%FSLAX43Y43*%
%MOMM*%
G71*
G01*
G75*
G04 Layer_Physical_Order=2*
G04 Layer_Color=16711680*
%ADD10C,0.500*%
%ADD11C,2.540*%
%ADD12R,2.500X3.000*%
%ADD13R,2.400X3.000*%
%ADD14R,3.000X3.000*%
%ADD15C,2.032*%
%ADD16O,2.032X1.778*%
%ADD17C,1.000*%
%ADD18C,3.048*%
%ADD19O,2.286X1.778*%
%ADD20O,1.778X2.032*%
%ADD21C,1.270*%
G36*
X171041Y46167D02*
X170698Y45339D01*
X171179Y44179D01*
X172339Y43698D01*
X173168Y44041D01*
X173501Y43542D01*
X170850Y40892D01*
X170262Y41009D01*
X170197Y41165D01*
X170044Y41229D01*
Y41538D01*
X170044Y41538D01*
X170044D01*
X170358Y42295D01*
X167716D01*
X168030Y41538D01*
Y41538D01*
D01*
Y41229D01*
X167877Y41165D01*
X167699Y40736D01*
X167488Y40649D01*
X167320Y40579D01*
X166685Y39944D01*
X166447Y39370D01*
Y37065D01*
X165948Y36732D01*
X165735Y36820D01*
X164575Y36339D01*
X164094Y35179D01*
X164108Y35146D01*
X163609Y34813D01*
X162894Y35528D01*
X163011Y36116D01*
X163466Y36305D01*
X163947Y37465D01*
X163466Y38625D01*
D01*
X163466Y38625D01*
Y38845D01*
X163466D01*
X163876Y39835D01*
X167251Y43209D01*
X167750Y42876D01*
X167716Y42795D01*
X168787D01*
Y43866D01*
X168706Y43832D01*
X168373Y44331D01*
X170542Y46501D01*
X171041Y46167D01*
D02*
G37*
G36*
X233001Y59873D02*
Y58388D01*
X232763D01*
Y58388D01*
X231420D01*
X231303Y58976D01*
X231333Y58989D01*
X232447Y60103D01*
X233001Y59873D01*
D02*
G37*
G36*
X219582Y66164D02*
X219136Y65979D01*
X217866Y64709D01*
X217628Y64135D01*
Y62439D01*
X217288Y62099D01*
X217055Y62002D01*
X216630Y62426D01*
X217022Y63373D01*
X216582Y64436D01*
D01*
X216582Y64436D01*
Y64850D01*
X216582D01*
X217022Y65913D01*
X216844Y66344D01*
X217252Y66752D01*
X219465D01*
X219582Y66164D01*
D02*
G37*
G36*
X188164Y76880D02*
Y60280D01*
X185951Y58067D01*
X185446Y58168D01*
X185163Y58697D01*
X185471Y59440D01*
X182829D01*
X183143Y58683D01*
Y58683D01*
D01*
Y58374D01*
X182990Y58310D01*
X182845Y57962D01*
X182372D01*
X181966Y57794D01*
X181798Y57724D01*
X180561Y56488D01*
X179964Y56546D01*
X179873Y56683D01*
X180330Y57785D01*
X179849Y58945D01*
X178689Y59426D01*
X177529Y58945D01*
D01*
Y58945D01*
X177309D01*
Y58945D01*
X176961Y59090D01*
Y61687D01*
X177309Y61832D01*
X177309Y61832D01*
X177529D01*
Y61832D01*
X178689Y61351D01*
X179849Y61832D01*
X180330Y62992D01*
X179849Y64152D01*
X178689Y64633D01*
X177529Y64152D01*
D01*
Y64152D01*
X177309D01*
Y64152D01*
X176308Y64567D01*
X176308Y65167D01*
X176723Y65339D01*
X178340Y66956D01*
X178689Y66812D01*
X179849Y67293D01*
X180038Y67748D01*
X180626Y67865D01*
X181755Y66736D01*
X181924Y66666D01*
X182329Y66498D01*
X182845D01*
X182990Y66150D01*
D01*
Y66150D01*
Y66150D01*
D01*
X182990Y65930D01*
X182990D01*
X182509Y64770D01*
X182990Y63610D01*
D01*
Y63610D01*
Y63610D01*
D01*
X182990Y63390D01*
X182990D01*
X182509Y62230D01*
X182990Y61070D01*
X183143Y61006D01*
Y60697D01*
X183143Y60697D01*
X183143D01*
X182829Y59940D01*
X185471D01*
X185157Y60697D01*
Y60697D01*
D01*
Y61006D01*
X185310Y61070D01*
X185791Y62230D01*
X185310Y63390D01*
D01*
X185310Y63390D01*
Y63610D01*
X185310D01*
X185791Y64770D01*
X185310Y65930D01*
D01*
X185310Y65930D01*
Y66150D01*
X185310D01*
X185791Y67310D01*
X185310Y68470D01*
D01*
X185310Y68470D01*
Y68690D01*
X185310D01*
X185791Y69850D01*
X185310Y71010D01*
D01*
X185310Y71010D01*
Y71230D01*
X185310D01*
X185791Y72390D01*
X185310Y73550D01*
D01*
X185310Y73550D01*
Y73770D01*
X185310D01*
X185791Y74930D01*
X185310Y76090D01*
X185157Y76154D01*
Y76463D01*
X185157Y76463D01*
X185157D01*
X185471Y77220D01*
X184150D01*
Y77720D01*
X185471D01*
X185163Y78463D01*
X185446Y78992D01*
X185951Y79093D01*
X188164Y76880D01*
D02*
G37*
G36*
X175274Y34441D02*
X175157Y33852D01*
X174731Y33676D01*
X174405Y32889D01*
X175641D01*
Y32389D01*
X174405D01*
X174708Y31658D01*
X174375Y31159D01*
X172985D01*
X172652Y31658D01*
X172953Y32385D01*
Y32639D01*
X172546Y33624D01*
X173499Y34019D01*
X173936Y35073D01*
X174524Y35190D01*
X175274Y34441D01*
D02*
G37*
G36*
X176852Y46894D02*
X174136Y44177D01*
X173637Y44510D01*
X173980Y45339D01*
X173499Y46499D01*
X172629Y46860D01*
X172746Y47448D01*
X176623D01*
X176852Y46894D01*
D02*
G37*
G36*
X174826Y41866D02*
X175015Y41411D01*
Y41411D01*
D01*
Y41102D01*
X174862Y41038D01*
X174679Y40597D01*
X174329Y40452D01*
X173682Y39805D01*
X173444Y39231D01*
Y36902D01*
X172945Y36569D01*
X172339Y36820D01*
D01*
X172339Y36820D01*
Y36820D01*
X171179Y36339D01*
X170698Y35179D01*
X170698Y35179D01*
X170698D01*
X170156Y34954D01*
X169595Y35515D01*
X169712Y36104D01*
X170197Y36305D01*
X170678Y37465D01*
X170197Y38625D01*
D01*
X170197Y38625D01*
Y38845D01*
X170197D01*
X170342Y39193D01*
X171111D01*
X171686Y39431D01*
X174238Y41983D01*
X174826Y41866D01*
D02*
G37*
G36*
X195149Y73959D02*
Y51689D01*
X195387Y51115D01*
X195387Y51115D01*
X195387Y51115D01*
X202626Y43876D01*
X203200Y43638D01*
X205705D01*
X205850Y43290D01*
X207010Y42809D01*
X208170Y43290D01*
X208651Y44450D01*
X208170Y45610D01*
D01*
X208170Y45610D01*
Y45830D01*
X208170D01*
X208651Y46990D01*
X208170Y48150D01*
D01*
X208170Y48150D01*
Y48370D01*
X208170D01*
X208651Y49530D01*
X208428Y50069D01*
X208926Y50402D01*
X209627Y49702D01*
Y42373D01*
X207182Y39928D01*
X203454D01*
X202880Y39690D01*
X201009Y37819D01*
X200660Y37963D01*
X199500Y37482D01*
X199019Y36322D01*
X199210Y35860D01*
X199086Y35560D01*
Y35244D01*
X198587Y34911D01*
X198377Y34998D01*
X198137Y35577D01*
X197771Y35729D01*
X197551Y36261D01*
X196789Y37023D01*
X196215Y37261D01*
X192842D01*
X192803Y37355D01*
X191643Y37836D01*
X190483Y37355D01*
X190002Y36195D01*
X190483Y35035D01*
X191643Y34554D01*
X192641Y34967D01*
X192941Y34667D01*
X194437D01*
Y34417D01*
X194687D01*
Y33096D01*
X195444Y33410D01*
X195444D01*
D01*
X195753D01*
X195817Y33257D01*
X196977Y32776D01*
X197943Y33176D01*
X198498Y32947D01*
X198738Y32368D01*
X199898Y31887D01*
X201058Y32368D01*
X201539Y33528D01*
X201165Y34431D01*
X201394Y34985D01*
X201820Y35162D01*
X202301Y36322D01*
X202157Y36671D01*
X203790Y38304D01*
X207518D01*
X208092Y38542D01*
X208092Y38542D01*
X208092Y38542D01*
X211013Y41463D01*
X211251Y42037D01*
Y50038D01*
X211132Y50325D01*
X211013Y50612D01*
X208981Y52644D01*
X208407Y52882D01*
X208315D01*
X208170Y53230D01*
D01*
X208170Y53230D01*
Y53450D01*
X208170D01*
X208315Y53798D01*
X209042D01*
X209616Y54036D01*
X211521Y55941D01*
X211530Y55962D01*
X212118Y55844D01*
Y54388D01*
X218793D01*
Y55576D01*
X218821D01*
X219395Y55814D01*
X219395Y55814D01*
X219395Y55814D01*
X221300Y57719D01*
X221370Y57887D01*
X221538Y58293D01*
Y61687D01*
X221886Y61832D01*
X222367Y62992D01*
X221910Y64094D01*
X222244Y64593D01*
X224073D01*
X227026Y61640D01*
Y58188D01*
X226338D01*
Y56638D01*
X227838D01*
Y56388D01*
X228088D01*
Y54588D01*
X229263D01*
Y54388D01*
X232763D01*
D01*
X232763D01*
X233001Y54150D01*
Y35963D01*
X233001D01*
X232813D01*
X232577Y35963D01*
X232577Y35963D01*
Y35963D01*
X231263D01*
Y34163D01*
Y32363D01*
X232577D01*
X232577Y32363D01*
X232577Y32363D01*
X232813Y32363D01*
X233001Y32175D01*
Y31159D01*
X179664D01*
X179331Y31658D01*
X179684Y32512D01*
Y32766D01*
X179303Y33687D01*
X180103Y34019D01*
X180332Y34572D01*
X180887Y34801D01*
X181483Y34554D01*
X182643Y35035D01*
X183124Y36195D01*
X182643Y37355D01*
X181483Y37836D01*
X180323Y37355D01*
X179931Y36411D01*
X178943Y36820D01*
X177863Y36373D01*
X177439Y36797D01*
X177663Y37338D01*
X177182Y38498D01*
D01*
X177182Y38498D01*
Y38718D01*
X177182D01*
X177663Y39878D01*
X177182Y41038D01*
X177029Y41102D01*
Y41411D01*
X177029Y41411D01*
X177029D01*
X177343Y42168D01*
X176022D01*
Y42668D01*
X177343D01*
X177029Y43425D01*
X176574Y43614D01*
X176457Y44202D01*
X177006Y44751D01*
X177594Y44634D01*
X177783Y44179D01*
X178131Y44034D01*
Y42926D01*
X178369Y42352D01*
X181671Y39050D01*
X182245Y38812D01*
X185801D01*
X186375Y39050D01*
X186375Y39050D01*
X186375Y39050D01*
X189550Y42225D01*
X189550Y42225D01*
X189550Y42225D01*
X189788Y42799D01*
Y54356D01*
X189669Y54643D01*
X189550Y54930D01*
X187630Y56850D01*
Y57450D01*
X189550Y59370D01*
X189669Y59657D01*
X189788Y59944D01*
Y77216D01*
X189669Y77503D01*
X189550Y77790D01*
X186756Y80584D01*
X186182Y80822D01*
X185455D01*
X185310Y81170D01*
X184150Y81651D01*
X183173Y81246D01*
X180936Y83483D01*
X180445Y84668D01*
X180778Y85167D01*
X183941D01*
X195149Y73959D01*
D02*
G37*
G36*
X182799Y55311D02*
X182509Y54610D01*
X182990Y53450D01*
D01*
Y53450D01*
Y53450D01*
D01*
X182990Y53230D01*
X182990D01*
X182838Y52864D01*
X182474Y52714D01*
X182306Y52644D01*
X180426Y50764D01*
X179927Y51097D01*
X180330Y52070D01*
X179849Y53230D01*
X178689Y53711D01*
X177529Y53230D01*
D01*
Y53230D01*
X177309D01*
Y53230D01*
X176961Y53375D01*
Y54560D01*
X180594D01*
X181168Y54798D01*
X181168Y54798D01*
X181168Y54798D01*
X181914Y55544D01*
X182375Y55735D01*
X182799Y55311D01*
D02*
G37*
G36*
X188164Y54020D02*
Y43135D01*
X185465Y40436D01*
X182581D01*
X179755Y43262D01*
Y44034D01*
X180103Y44179D01*
X180584Y45339D01*
X180103Y46499D01*
Y46499D01*
Y46499D01*
X180140Y46531D01*
X180140D01*
X180140Y46531D01*
X182312Y48703D01*
X182686Y48628D01*
X182969Y48099D01*
X182509Y46990D01*
X182990Y45830D01*
D01*
Y45830D01*
Y45830D01*
D01*
X182990Y45610D01*
X182990D01*
X182509Y44450D01*
X182990Y43290D01*
X184150Y42809D01*
X185310Y43290D01*
X185791Y44450D01*
X185310Y45610D01*
D01*
X185310Y45610D01*
Y45830D01*
X185310D01*
X185791Y46990D01*
X185310Y48150D01*
D01*
X185310Y48150D01*
Y48370D01*
X185310D01*
X185791Y49530D01*
X185310Y50690D01*
D01*
X185310Y50690D01*
Y50910D01*
X185310D01*
X185791Y52070D01*
X185310Y53230D01*
D01*
X185310Y53230D01*
Y53450D01*
X185310D01*
X185791Y54610D01*
X185363Y55643D01*
X185646Y56172D01*
X185951Y56233D01*
X188164Y54020D01*
D02*
G37*
G36*
X213896Y62436D02*
X213948Y62310D01*
X214101Y62246D01*
Y61743D01*
X214101Y61743D01*
X214101D01*
X213828Y61083D01*
X215265D01*
Y60833D01*
X215515D01*
Y59546D01*
X215519D01*
X216429Y59923D01*
X216470Y60021D01*
X217170D01*
X217744Y60259D01*
X219014Y61529D01*
X219039Y61590D01*
X219415Y61746D01*
X219914Y61413D01*
Y58629D01*
X219347Y58062D01*
X218793Y58292D01*
Y58388D01*
X212118D01*
D01*
X212118D01*
X211759Y58747D01*
Y61005D01*
X213307Y62553D01*
X213896Y62436D01*
D02*
G37*
G36*
X161849Y34277D02*
X161732Y33688D01*
X161396Y33549D01*
X161070Y32762D01*
X162306D01*
Y32262D01*
X161070D01*
X161320Y31658D01*
X160987Y31159D01*
X159777D01*
X159444Y31658D01*
X159745Y32385D01*
Y32639D01*
X159305Y33702D01*
Y33702D01*
D01*
Y33842D01*
X160037Y34146D01*
X160400Y35020D01*
X160988Y35137D01*
X161849Y34277D01*
D02*
G37*
G36*
X217755Y83103D02*
Y75096D01*
X217167Y74979D01*
X216810Y75840D01*
X215900Y76217D01*
X215896D01*
Y74930D01*
X215396D01*
Y76217D01*
X215392D01*
X214482Y75840D01*
X214441Y75742D01*
X214122D01*
X213716Y75574D01*
X213548Y75504D01*
X213516Y75472D01*
X212928Y75590D01*
X212615Y76344D01*
X211771Y76694D01*
X211654Y77283D01*
X212159Y77788D01*
X212873Y78084D01*
X212873D01*
D01*
X213376D01*
X213440Y77931D01*
X214503Y77491D01*
X215566Y77931D01*
X216006Y78994D01*
Y79248D01*
X215566Y80311D01*
X215176Y80473D01*
X215077Y80711D01*
X212660Y83128D01*
X212842Y83566D01*
X212491Y84414D01*
X212824Y84913D01*
X215945D01*
X217755Y83103D01*
D02*
G37*
G36*
X176417Y86744D02*
X176124Y86623D01*
X175956Y86553D01*
X174813Y85410D01*
X174575Y84836D01*
Y81661D01*
X174813Y81087D01*
X174813Y81087D01*
X174813Y81087D01*
X176931Y78969D01*
X176625Y78232D01*
X177267Y76683D01*
X178816Y76041D01*
X180365Y76683D01*
X181007Y78232D01*
X180365Y79781D01*
X178816Y80423D01*
X178079Y80117D01*
X176199Y81997D01*
Y82804D01*
X176787Y82921D01*
X177267Y81763D01*
X178816Y81121D01*
X180362Y81761D01*
X182687Y79436D01*
X182759Y79406D01*
X182990Y78850D01*
X183143Y78786D01*
Y78477D01*
X183143Y78477D01*
X183143D01*
X182968Y78055D01*
X182941Y78044D01*
X179670Y74773D01*
X179066Y75023D01*
Y73402D01*
X180687D01*
X180660Y73467D01*
X182014Y74821D01*
X182603Y74704D01*
X182990Y73770D01*
D01*
Y73770D01*
Y73770D01*
D01*
X182990Y73550D01*
X182990D01*
X182509Y72390D01*
X182990Y71230D01*
D01*
Y71230D01*
Y71230D01*
D01*
X182990Y71010D01*
X182990D01*
X182509Y69850D01*
X182799Y69149D01*
X182375Y68725D01*
X181842Y68946D01*
X179995Y70793D01*
X179665Y70929D01*
Y71529D01*
X180212Y71756D01*
X180687Y72902D01*
X176945D01*
X177420Y71756D01*
X177750Y71619D01*
X177633Y71031D01*
X168686D01*
X168281Y70863D01*
X168112Y70793D01*
X166801Y69482D01*
X166243Y69713D01*
X165083Y69232D01*
D01*
Y69232D01*
X164736D01*
Y69232D01*
X163576Y69713D01*
X162416Y69232D01*
X161935Y68072D01*
X162416Y66912D01*
X163576Y66431D01*
X164736Y66912D01*
X164736Y66912D01*
X165083D01*
Y66912D01*
X166243Y66431D01*
X167403Y66912D01*
X167701Y67631D01*
X168290Y67748D01*
X168582Y67455D01*
X168609Y67390D01*
D01*
Y67390D01*
Y67390D01*
D01*
X168609Y66976D01*
X168609D01*
X168169Y65913D01*
X168609Y64850D01*
X169672Y64410D01*
X169926D01*
X170989Y64850D01*
X171023Y64932D01*
X171623D01*
X171657Y64850D01*
X172720Y64410D01*
X172974D01*
X174037Y64850D01*
X174141Y65101D01*
X175742D01*
X175859Y64513D01*
X174989Y64152D01*
X174508Y62992D01*
X174989Y61832D01*
X175337Y61687D01*
Y59090D01*
X174989Y58945D01*
X174508Y57785D01*
X174989Y56625D01*
X175337Y56480D01*
Y55372D01*
X175337Y55372D01*
X175337D01*
Y53375D01*
X174989Y53230D01*
X174508Y52070D01*
X174989Y50910D01*
X176149Y50429D01*
X177309Y50910D01*
X177309Y50910D01*
X177529D01*
Y50910D01*
X178689Y50429D01*
X179662Y50832D01*
X179995Y50333D01*
X178734Y49072D01*
X171154D01*
X170748Y48904D01*
X170579Y48834D01*
X167672Y45927D01*
X167084Y46044D01*
X166895Y46499D01*
X165735Y46980D01*
X164575Y46499D01*
X164094Y45339D01*
X164575Y44179D01*
X165030Y43990D01*
X165147Y43402D01*
X164276Y42531D01*
X163688Y42648D01*
X163313Y43552D01*
X162556Y43866D01*
Y42545D01*
X162306D01*
Y42295D01*
X160985D01*
X161299Y41538D01*
Y41538D01*
D01*
Y41229D01*
X161146Y41165D01*
X160942Y40672D01*
X160716Y40579D01*
X159954Y39817D01*
X159716Y39243D01*
Y37139D01*
X159217Y36806D01*
X158877Y36947D01*
X157717Y36466D01*
X157255Y35352D01*
X156754Y35253D01*
X156330Y35677D01*
X156430Y36178D01*
X156735Y36305D01*
X157216Y37465D01*
X156735Y38625D01*
D01*
X156735Y38625D01*
Y38845D01*
X156735D01*
X157216Y40005D01*
X156735Y41165D01*
X156582Y41229D01*
Y41538D01*
X156582Y41538D01*
X156582D01*
X156896Y42295D01*
X155575D01*
Y42545D01*
X155325D01*
Y43866D01*
X155120Y43781D01*
X154621Y44114D01*
Y45269D01*
X155899Y46547D01*
X155956Y46523D01*
X156825Y46883D01*
X157185Y47752D01*
X156825Y48621D01*
X155956Y48981D01*
X155087Y48621D01*
X154727Y47752D01*
X154751Y47695D01*
X153887Y46831D01*
X153333Y47061D01*
Y87332D01*
X176300D01*
X176417Y86744D01*
D02*
G37*
G36*
X233001Y84836D02*
Y76652D01*
X232447Y76422D01*
X229109Y79760D01*
X227961D01*
Y78612D01*
X231852Y74721D01*
Y66625D01*
X231298Y66395D01*
X228412Y69281D01*
X227838Y69519D01*
X226878D01*
X226653Y70062D01*
X225298Y70623D01*
X223943Y70062D01*
X223718Y69519D01*
X223012D01*
X222606Y69351D01*
X222438Y69281D01*
X221533Y68376D01*
X217333D01*
X217244Y68509D01*
X217527Y69038D01*
X217551D01*
X218125Y69276D01*
X221935Y73086D01*
X222005Y73254D01*
X222173Y73660D01*
Y82261D01*
X222521Y82406D01*
X223002Y83566D01*
X222651Y84414D01*
X222801Y84640D01*
X223398Y84699D01*
X224486Y83611D01*
Y82677D01*
Y76637D01*
X223943Y76412D01*
X223382Y75057D01*
X223943Y73702D01*
X225298Y73141D01*
X226653Y73702D01*
X227214Y75057D01*
X226653Y76412D01*
X226110Y76637D01*
Y78899D01*
X226698Y79016D01*
X226704Y79003D01*
X227461Y78689D01*
Y80010D01*
X227711D01*
Y80260D01*
X229032D01*
X228718Y81017D01*
Y81017D01*
D01*
Y81326D01*
X228871Y81390D01*
X229352Y82550D01*
X228871Y83710D01*
X227711Y84191D01*
X226650Y83751D01*
X226096Y83981D01*
X225942Y84353D01*
X225872Y84521D01*
X224094Y86299D01*
X223520Y86537D01*
X209931D01*
X209357Y86299D01*
X206436Y83378D01*
X206198Y82804D01*
Y81315D01*
X205850Y81170D01*
X205369Y80010D01*
X205850Y78850D01*
X206003Y78786D01*
Y78477D01*
X206003Y78477D01*
X206003D01*
X205689Y77720D01*
X207010D01*
Y77220D01*
X205689D01*
X206003Y76463D01*
Y76463D01*
D01*
Y76154D01*
X205850Y76090D01*
X205369Y74930D01*
X205850Y73770D01*
D01*
Y73770D01*
Y73770D01*
D01*
X205850Y73550D01*
X205850D01*
X205369Y72390D01*
X205850Y71230D01*
D01*
Y71230D01*
Y71230D01*
D01*
X205850Y71010D01*
X205850D01*
X205369Y69850D01*
X205850Y68690D01*
X206003Y68626D01*
Y68317D01*
X206003Y68317D01*
X206003D01*
X205689Y67560D01*
X207010D01*
Y67060D01*
X205689D01*
X206003Y66303D01*
Y66303D01*
D01*
Y65994D01*
X205850Y65930D01*
X205369Y64770D01*
X205850Y63610D01*
D01*
Y63610D01*
Y63610D01*
D01*
X205850Y63390D01*
X205850D01*
X205369Y62230D01*
X205850Y61070D01*
D01*
Y61070D01*
Y61070D01*
D01*
X205850Y60850D01*
X205850D01*
X205369Y59690D01*
X205850Y58530D01*
D01*
Y58530D01*
Y58530D01*
D01*
X205850Y58310D01*
X205850D01*
X205369Y57150D01*
X205850Y55990D01*
D01*
Y55990D01*
Y55990D01*
D01*
X205850Y55770D01*
X205850D01*
X205369Y54610D01*
X205850Y53450D01*
D01*
Y53450D01*
Y53450D01*
D01*
X205850Y53230D01*
X205850D01*
X205369Y52070D01*
X205850Y50910D01*
D01*
Y50910D01*
Y50910D01*
D01*
X205850Y50690D01*
X205850D01*
X205369Y49530D01*
X205850Y48370D01*
D01*
Y48370D01*
Y48370D01*
D01*
X205850Y48150D01*
X205850D01*
X205369Y46990D01*
X205850Y45830D01*
D01*
Y45830D01*
Y45830D01*
D01*
X205850Y45610D01*
X205850D01*
X205705Y45262D01*
X203536D01*
X196773Y52025D01*
Y74295D01*
X196605Y74701D01*
X196535Y74869D01*
X184851Y86553D01*
X184390Y86744D01*
X184507Y87332D01*
X230997D01*
X231114Y86744D01*
D01*
X231114D01*
D01*
X230502Y86490D01*
X230185Y85725D01*
X230502Y84960D01*
X231267Y84643D01*
X232032Y84960D01*
X232349Y85725D01*
X232032Y86490D01*
X231420Y86744D01*
X231537Y87332D01*
X233001D01*
Y84836D01*
D02*
G37*
G36*
X154269Y35125D02*
X154438Y35055D01*
X154631Y34975D01*
X155305Y34301D01*
X155188Y33713D01*
X154792Y33549D01*
X154466Y32762D01*
X155702D01*
Y32262D01*
X154466D01*
X154716Y31658D01*
X154383Y31159D01*
X153333D01*
Y35278D01*
X153887Y35507D01*
X154269Y35125D01*
D02*
G37*
G36*
X209579Y83520D02*
X210041Y82406D01*
X211201Y81925D01*
X211460Y82032D01*
X212572Y80919D01*
X212239Y80421D01*
X212213Y80431D01*
Y79121D01*
X211963D01*
Y78871D01*
X210727D01*
X210791Y78716D01*
X210357Y78282D01*
X208406D01*
X208170Y78850D01*
D01*
D01*
X208651Y80010D01*
X208170Y81170D01*
X207822Y81315D01*
Y82468D01*
X208991Y83637D01*
X209579Y83520D01*
D02*
G37*
G36*
X210435Y73619D02*
X210134Y72894D01*
X211455D01*
Y72394D01*
X210134D01*
X210448Y71637D01*
X210659Y71549D01*
X210659Y70949D01*
X210265Y70786D01*
X210213Y70662D01*
X208315D01*
X208170Y71010D01*
D01*
X208170Y71010D01*
Y71230D01*
X208170D01*
X208651Y72390D01*
X208170Y73550D01*
D01*
X208170Y73550D01*
Y73770D01*
X208170D01*
X208315Y74118D01*
X210101D01*
X210435Y73619D01*
D02*
G37*
G36*
X215392Y68347D02*
X215767D01*
X215983Y67824D01*
X215559Y67400D01*
X215519Y67416D01*
X215011D01*
X213948Y66976D01*
X213508Y65913D01*
X213948Y64850D01*
D01*
Y64850D01*
Y64850D01*
D01*
X213948Y64436D01*
X213948D01*
X213844Y64185D01*
X212979D01*
X212692Y64066D01*
X212405Y63947D01*
X210373Y61915D01*
X210135Y61341D01*
Y56851D01*
X208811Y55527D01*
X208506Y55588D01*
X208223Y56117D01*
X208651Y57150D01*
X208170Y58310D01*
D01*
X208170Y58310D01*
Y58530D01*
X208170D01*
X208651Y59690D01*
X208170Y60850D01*
D01*
X208170Y60850D01*
Y61070D01*
X208170D01*
X208651Y62230D01*
X208170Y63390D01*
D01*
X208170Y63390D01*
Y63610D01*
X208170D01*
X208651Y64770D01*
X208170Y65930D01*
Y65930D01*
Y65930D01*
X208406Y66498D01*
X210325D01*
X210418Y66273D01*
X211205Y65947D01*
Y67183D01*
X211705D01*
Y65947D01*
X212492Y66273D01*
X212788Y66987D01*
X214061Y68260D01*
X214124Y68412D01*
X214679Y68642D01*
X215392Y68347D01*
D02*
G37*
G36*
X230074Y65323D02*
Y64297D01*
X229726Y64152D01*
X229245Y62992D01*
X229726Y61832D01*
X230750Y61407D01*
X230867Y60819D01*
X230423Y60375D01*
X228650D01*
Y61976D01*
X228482Y62382D01*
X228412Y62550D01*
X224983Y65979D01*
X224409Y66217D01*
X222114D01*
X221997Y66805D01*
X222443Y66990D01*
X223228Y67775D01*
X223817Y67658D01*
X223943Y67352D01*
X225298Y66791D01*
X226653Y67352D01*
X226878Y67895D01*
X227502D01*
X230074Y65323D01*
D02*
G37*
G36*
X168513Y34301D02*
X168396Y33713D01*
X168000Y33549D01*
X167674Y32762D01*
X168910D01*
Y32262D01*
X167674D01*
X167924Y31658D01*
X167591Y31159D01*
X166381D01*
X166048Y31658D01*
X166349Y32385D01*
Y32639D01*
X165942Y33624D01*
X166895Y34019D01*
X167245Y34863D01*
X167834Y34980D01*
X168513Y34301D01*
D02*
G37*
G36*
X220201Y82406D02*
X220549Y82261D01*
Y73996D01*
X219876Y73323D01*
X219377Y73657D01*
X219379Y73660D01*
X219379Y73660D01*
X219379Y73660D01*
Y73660D01*
Y82852D01*
X219967Y82969D01*
X220201Y82406D01*
D02*
G37*
%LPC*%
G36*
X162056Y43866D02*
X161299Y43552D01*
X160985Y42795D01*
X162056D01*
Y43866D01*
D02*
G37*
G36*
X155825D02*
Y42795D01*
X156896D01*
X156582Y43552D01*
X155825Y43866D01*
D02*
G37*
G36*
X209808Y33278D02*
X208737D01*
X209051Y32521D01*
X209808Y32207D01*
Y33278D01*
D02*
G37*
G36*
X210820Y37963D02*
X209660Y37482D01*
X209179Y36322D01*
X209630Y35234D01*
X209400Y34680D01*
X209051Y34535D01*
X208737Y33778D01*
X210058D01*
Y33528D01*
X210308D01*
Y32207D01*
X211065Y32521D01*
X211280Y33038D01*
X211868Y32921D01*
Y32163D01*
X215868D01*
Y36163D01*
X212567D01*
X212461Y36322D01*
X212461Y36322D01*
X212461D01*
X211980Y37482D01*
X210820Y37963D01*
D02*
G37*
G36*
X230763Y33913D02*
X229213D01*
Y32363D01*
X230763D01*
Y33913D01*
D02*
G37*
G36*
Y35963D02*
X229213D01*
Y34413D01*
X230763D01*
Y35963D01*
D02*
G37*
G36*
X194187Y34167D02*
X193116D01*
X193430Y33410D01*
X194187Y33096D01*
Y34167D01*
D02*
G37*
G36*
X172212Y63617D02*
X171052Y63136D01*
D01*
Y63136D01*
X170578D01*
Y63136D01*
X169418Y63617D01*
X168258Y63136D01*
X167777Y61976D01*
X168258Y60816D01*
X168606Y60671D01*
Y56819D01*
X167755D01*
X167421Y57318D01*
X167564Y57662D01*
X166243D01*
Y57912D01*
X165993D01*
Y59233D01*
X165236Y58919D01*
X165210Y58856D01*
X164609D01*
X164583Y58919D01*
X163826Y59233D01*
Y57912D01*
X163576D01*
Y57662D01*
X162178D01*
X160208Y55692D01*
X159970Y55118D01*
Y49911D01*
X160208Y49337D01*
X160208Y49337D01*
X160208Y49337D01*
X161097Y48448D01*
X161671Y48210D01*
X168275D01*
X168849Y48448D01*
X168849Y48448D01*
X168849Y48448D01*
X169992Y49591D01*
X170062Y49759D01*
X170230Y50165D01*
Y50728D01*
X170425Y50809D01*
X170506Y51004D01*
X171124D01*
X171205Y50809D01*
X171962Y50495D01*
Y51816D01*
Y53137D01*
X171205Y52823D01*
X171124Y52628D01*
X170845D01*
X170464Y53092D01*
X170529Y53417D01*
X170561D01*
X171135Y53655D01*
X172786Y55306D01*
X172905Y55593D01*
X173024Y55880D01*
Y60671D01*
X173372Y60816D01*
X173853Y61976D01*
X173372Y63136D01*
X172212Y63617D01*
D02*
G37*
G36*
X215015Y60583D02*
X213828D01*
X214101Y59923D01*
X215011Y59546D01*
X215015D01*
Y60583D01*
D02*
G37*
G36*
X166493Y59233D02*
Y58162D01*
X167564D01*
X167250Y58919D01*
X166493Y59233D01*
D02*
G37*
G36*
X155194Y86680D02*
X154429Y86363D01*
X154112Y85598D01*
X154429Y84833D01*
X155194Y84516D01*
X155959Y84833D01*
X156276Y85598D01*
X155959Y86363D01*
X155194Y86680D01*
D02*
G37*
G36*
X211713Y80431D02*
X211053Y80158D01*
X210727Y79371D01*
X211713D01*
Y80431D01*
D02*
G37*
G36*
X178566Y75023D02*
X177420Y74548D01*
X176945Y73402D01*
X178566D01*
Y75023D01*
D02*
G37*
G36*
X163326Y59233D02*
X162569Y58919D01*
X162255Y58162D01*
X163326D01*
Y59233D01*
D02*
G37*
G36*
X155448Y52263D02*
X154683Y51946D01*
X154366Y51181D01*
X154683Y50416D01*
X155448Y50099D01*
X156213Y50416D01*
X156530Y51181D01*
X156213Y51946D01*
X155448Y52263D01*
D02*
G37*
G36*
X158877Y47107D02*
X157717Y46626D01*
X157236Y45466D01*
X157717Y44306D01*
X158877Y43825D01*
X160037Y44306D01*
X160518Y45466D01*
X160037Y46626D01*
X158877Y47107D01*
D02*
G37*
G36*
X169287Y43866D02*
Y42795D01*
X170358D01*
X170044Y43552D01*
X169287Y43866D01*
D02*
G37*
G36*
X173533Y51566D02*
X172462D01*
Y50495D01*
X173219Y50809D01*
X173533Y51566D01*
D02*
G37*
G36*
X227588Y56138D02*
X226338D01*
Y54588D01*
X227588D01*
Y56138D01*
D02*
G37*
G36*
X172462Y53137D02*
Y52066D01*
X173533D01*
X173219Y52823D01*
X172462Y53137D01*
D02*
G37*
%LPD*%
G36*
X171400Y60671D02*
Y56216D01*
X170450Y55266D01*
X169861Y55383D01*
X169773Y55595D01*
X169992Y55814D01*
X169992Y55814D01*
X169992Y55814D01*
X170230Y56388D01*
Y60671D01*
X170578Y60816D01*
Y60816D01*
X171052Y60816D01*
Y60816D01*
Y60816D01*
D01*
D01*
D01*
X171400Y60671D01*
D02*
G37*
D10*
X153809Y45605D02*
X155956Y47752D01*
X153809Y41813D02*
Y45605D01*
X188976Y59944D02*
Y77216D01*
X186182Y80010D02*
X188976Y77216D01*
X184150Y80010D02*
X186182D01*
X203200Y44450D02*
X207010D01*
X195961Y51689D02*
X203200Y44450D01*
X195961Y51689D02*
Y74295D01*
X221869Y67564D02*
X223012Y68707D01*
X216916Y67564D02*
X221869D01*
X215265Y65913D02*
X216916Y67564D01*
X223012Y68707D02*
X225298D01*
X227838Y56388D02*
Y61976D01*
X220726Y58293D02*
Y62992D01*
X218821Y56388D02*
X220726Y58293D01*
X217678Y56388D02*
X218821D01*
X219710Y65405D02*
X224409D01*
X218440Y64135D02*
X219710Y65405D01*
X218440Y62103D02*
Y64135D01*
X224409Y65405D02*
X227838Y61976D01*
X230886Y62992D02*
Y65659D01*
X227838Y68707D02*
X230886Y65659D01*
X225298Y68707D02*
X227838D01*
X218567Y73660D02*
Y83439D01*
X217297Y72390D02*
X218567Y73660D01*
X215265Y72390D02*
X217297D01*
X221361Y73660D02*
Y83566D01*
X217551Y69850D02*
X221361Y73660D01*
X215646Y69850D02*
X217551D01*
X216281Y85725D02*
X218567Y83439D01*
X223520Y85725D02*
X225298Y83947D01*
X209931Y85725D02*
X223520D01*
X207010Y82804D02*
X209931Y85725D01*
X214503Y79121D02*
Y80137D01*
Y78740D02*
Y79121D01*
X215265Y69850D02*
X215646D01*
X196977Y34036D02*
Y35687D01*
X196215Y36449D02*
X196977Y35687D01*
X191643Y36449D02*
X196215D01*
X191135Y35941D02*
X191643Y36449D01*
X199898Y35560D02*
X203454Y39116D01*
X199898Y33528D02*
Y35560D01*
X210439Y36322D02*
X212598Y34163D01*
X210312Y36322D02*
X210439D01*
X203454Y39116D02*
X207518D01*
X232664Y61468D02*
Y75057D01*
X230759Y59563D02*
X232664Y61468D01*
X227838Y59563D02*
X230759D01*
X227711Y80010D02*
X232664Y75057D01*
X220726Y62992D02*
Y63500D01*
X186182Y57150D02*
X188976Y59944D01*
X184150Y57150D02*
X186182D01*
X169418Y51816D02*
X172212D01*
X169418Y50165D02*
Y51816D01*
X168275Y49022D02*
X169418Y50165D01*
X161671Y49022D02*
X168275D01*
X160782Y49911D02*
X161671Y49022D01*
X160782Y49911D02*
Y55118D01*
X163576Y57912D01*
X166243D01*
X163195Y54229D02*
X164973Y56007D01*
X169037D01*
X169418Y56388D01*
Y61976D01*
X172212Y55880D02*
Y61976D01*
X170561Y54229D02*
X172212Y55880D01*
X166243Y54229D02*
X170561D01*
X182245Y39624D02*
X185801D01*
X178943Y42926D02*
X182245Y39624D01*
X178943Y42926D02*
Y45339D01*
X188976Y42799D02*
Y54356D01*
X186182Y57150D02*
X188976Y54356D01*
X182372Y57150D02*
X184150D01*
X180594Y55372D02*
X182372Y57150D01*
X176149Y55372D02*
X180594D01*
X185801Y39624D02*
X188976Y42799D01*
X176149Y55372D02*
Y57785D01*
Y52070D02*
Y55372D01*
Y57785D02*
Y62992D01*
Y65913D02*
X178689Y68453D01*
X172847Y65913D02*
X176149D01*
X172847Y68453D02*
X176149D01*
X169799D02*
X172847D01*
X182329Y67310D02*
X184150D01*
X168686Y70219D02*
X179421D01*
X166540Y68072D02*
X168686Y70219D01*
X179421D02*
X182329Y67310D01*
X166243Y68072D02*
X166540D01*
X179070Y48260D02*
X182880Y52070D01*
X171154Y48260D02*
X179070D01*
X162898Y40005D02*
X171154Y48260D01*
X178212Y47105D02*
X179566D01*
X171111Y40005D02*
X178212Y47105D01*
X182880Y52070D02*
X184150D01*
X169037Y40005D02*
X171111D01*
X179566Y47105D02*
X181991Y49530D01*
X184150D01*
X184277Y85979D02*
X195961Y74295D01*
X176530Y85979D02*
X184277D01*
X175387Y84836D02*
X176530Y85979D01*
X153809Y41813D02*
X155575Y40048D01*
Y40005D02*
Y40048D01*
X162306Y40005D02*
X162898D01*
X174903Y39878D02*
X176022D01*
X174256Y39231D02*
X174903Y39878D01*
X174256Y36606D02*
Y39231D01*
X181483Y36195D02*
Y36449D01*
X174256Y36606D02*
X178181Y32681D01*
Y32639D02*
Y32681D01*
X167894Y40005D02*
X169037D01*
X167259Y39370D02*
X167894Y40005D01*
X167259Y36703D02*
Y39370D01*
Y36703D02*
X171450Y32512D01*
X161290Y40005D02*
X162306D01*
X160528Y39243D02*
X161290Y40005D01*
X160528Y36745D02*
Y39243D01*
Y36745D02*
X164762Y32512D01*
X164846D01*
X154813Y40005D02*
X155575D01*
X153797Y38989D02*
X154813Y40005D01*
X153797Y36745D02*
Y38989D01*
Y36745D02*
X154844Y35699D01*
X155055D01*
X158242Y32512D01*
X178689Y73025D02*
X178816Y73152D01*
X175387Y81661D02*
X178816Y78232D01*
X175387Y81661D02*
Y84836D01*
X178816Y83312D02*
X179959D01*
X183261Y80010D01*
X184150D01*
X178816Y73152D02*
X179197D01*
X183515Y77470D01*
X184150D01*
X207010Y52070D02*
X208407D01*
X210439Y50038D01*
Y42037D02*
Y50038D01*
X207518Y39116D02*
X210439Y42037D01*
X212598Y34163D02*
X214503D01*
X211201Y83439D02*
Y83566D01*
Y83439D02*
X214503Y80137D01*
X210693Y77470D02*
X211963Y78740D01*
X207010Y77470D02*
X210693D01*
X207010Y67310D02*
X211328D01*
X211455Y67183D01*
X207010Y69850D02*
X211328D01*
X207010Y74930D02*
X211201D01*
X211455Y75184D01*
X207010Y80010D02*
Y82804D01*
X225425Y82550D02*
X227711D01*
X225298Y82677D02*
X225425Y82550D01*
X225298Y75057D02*
Y82677D01*
Y83947D01*
X212979Y63373D02*
X215265D01*
X207010Y54610D02*
X209042D01*
X210947Y56515D01*
Y61341D01*
X212979Y63373D01*
X215137Y60833D02*
X215265D01*
X217170D01*
X218440Y62103D01*
X211455Y72644D02*
X213487Y70612D01*
X211455Y67183D02*
X211836D01*
X213487Y68834D01*
Y70612D01*
X211455Y72644D02*
X211836D01*
X214122Y74930D01*
X215265D01*
D11*
X225298Y68707D02*
D03*
Y75057D02*
D03*
D12*
X217043Y56388D02*
D03*
X213868D02*
D03*
X231013D02*
D03*
D13*
X227838D02*
D03*
D14*
X213868Y34163D02*
D03*
X231013D02*
D03*
D15*
X184150Y80010D02*
D03*
Y62230D02*
D03*
Y64770D02*
D03*
Y67310D02*
D03*
Y69850D02*
D03*
Y72390D02*
D03*
Y74930D02*
D03*
Y77470D02*
D03*
Y59690D02*
D03*
Y44450D02*
D03*
Y46990D02*
D03*
Y49530D02*
D03*
Y52070D02*
D03*
Y54610D02*
D03*
Y57150D02*
D03*
X207010D02*
D03*
Y54610D02*
D03*
Y52070D02*
D03*
Y49530D02*
D03*
Y46990D02*
D03*
Y44450D02*
D03*
Y59690D02*
D03*
Y77470D02*
D03*
Y74930D02*
D03*
Y72390D02*
D03*
Y69850D02*
D03*
Y67310D02*
D03*
Y64770D02*
D03*
Y62230D02*
D03*
Y80010D02*
D03*
X227711D02*
D03*
Y82550D02*
D03*
X176149Y52070D02*
D03*
X178689D02*
D03*
X176149Y57785D02*
D03*
X178689D02*
D03*
X176149Y62992D02*
D03*
X178689D02*
D03*
X176149Y68453D02*
D03*
X178689D02*
D03*
X169037Y37465D02*
D03*
Y40005D02*
D03*
Y42545D02*
D03*
X162306Y37465D02*
D03*
Y40005D02*
D03*
Y42545D02*
D03*
X155575Y37465D02*
D03*
Y40005D02*
D03*
Y42545D02*
D03*
X211201Y83566D02*
D03*
X221361D02*
D03*
X200660Y36322D02*
D03*
X210820D02*
D03*
X169418Y51816D02*
D03*
Y61976D02*
D03*
X172212Y51816D02*
D03*
Y61976D02*
D03*
X166243Y57912D02*
D03*
Y68072D02*
D03*
X163576Y57912D02*
D03*
Y68072D02*
D03*
X210058Y33528D02*
D03*
X199898D02*
D03*
X191643Y36195D02*
D03*
X181483D02*
D03*
X178943Y35179D02*
D03*
Y45339D02*
D03*
X172339Y35179D02*
D03*
Y45339D02*
D03*
X165735Y35179D02*
D03*
Y45339D02*
D03*
X158877Y35306D02*
D03*
Y45466D02*
D03*
X176022Y37338D02*
D03*
Y39878D02*
D03*
Y42418D02*
D03*
X230886Y62992D02*
D03*
X220726D02*
D03*
X196977Y34417D02*
D03*
X194437D02*
D03*
X211455Y75184D02*
D03*
Y72644D02*
D03*
D16*
X172847Y68453D02*
D03*
Y65913D02*
D03*
X169799Y68453D02*
D03*
Y65913D02*
D03*
X166243Y51689D02*
D03*
Y54229D02*
D03*
X163195Y51689D02*
D03*
Y54229D02*
D03*
X211455Y69723D02*
D03*
Y67183D02*
D03*
D17*
X231267Y85725D02*
D03*
X155448Y51181D02*
D03*
X155194Y85598D02*
D03*
D18*
X178816Y83312D02*
D03*
Y78232D02*
D03*
Y73152D02*
D03*
D19*
X215265Y63373D02*
D03*
Y60833D02*
D03*
Y65913D02*
D03*
X215646Y72390D02*
D03*
Y69850D02*
D03*
Y74930D02*
D03*
D20*
X214503Y79121D02*
D03*
X211963D02*
D03*
X178181Y32639D02*
D03*
X175641D02*
D03*
X171450Y32512D02*
D03*
X168910D02*
D03*
X164846D02*
D03*
X162306D02*
D03*
X158242D02*
D03*
X155702D02*
D03*
D21*
X155956Y47752D02*
D03*
M02*
