%FSLAX43Y43*%
%MOMM*%
G71*
G01*
G75*
%ADD10C,0.500*%
%ADD11C,2.540*%
%ADD12R,2.500X3.000*%
%ADD13R,2.400X3.000*%
%ADD14R,3.000X3.000*%
%ADD15C,2.032*%
%ADD16O,2.032X1.778*%
%ADD17C,1.000*%
%ADD18C,3.048*%
%ADD19O,2.286X1.778*%
%ADD20O,1.778X2.032*%
%ADD21C,1.270*%
%ADD22C,0.254*%
%ADD23C,0.127*%
%ADD24C,2.840*%
%ADD25R,2.800X3.300*%
%ADD26R,2.700X3.300*%
%ADD27R,3.300X3.300*%
%ADD28C,2.332*%
%ADD29O,2.332X2.078*%
%ADD30C,3.000*%
%ADD31C,3.348*%
%ADD32O,2.586X2.078*%
%ADD33O,2.078X2.332*%
%ADD34C,1.570*%
%ADD35C,0.169*%
D23*
X224790Y68707D02*
X225806D01*
X225298Y68199D02*
Y69215D01*
X224790Y75057D02*
X225806D01*
X225298Y74549D02*
Y75565D01*
X216662Y56388D02*
X217424D01*
X217043Y56007D02*
Y56769D01*
X227457Y56388D02*
X228219D01*
X227838Y56007D02*
Y56769D01*
X213487Y34163D02*
X214249D01*
X213868Y33782D02*
Y34544D01*
X213487Y56388D02*
X214249D01*
X213868Y56007D02*
Y56769D01*
X230632Y56388D02*
X231394D01*
X231013Y56007D02*
Y56769D01*
X230632Y34163D02*
X231394D01*
X231013Y33782D02*
Y34544D01*
X183642Y80010D02*
X184658D01*
X184150Y79502D02*
Y80518D01*
X183642Y62230D02*
X184658D01*
X184150Y61722D02*
Y62738D01*
X183642Y64770D02*
X184658D01*
X184150Y64262D02*
Y65278D01*
X183642Y67310D02*
X184658D01*
X184150Y66802D02*
Y67818D01*
X183642Y69850D02*
X184658D01*
X184150Y69342D02*
Y70358D01*
X183642Y72390D02*
X184658D01*
X184150Y71882D02*
Y72898D01*
X183642Y74930D02*
X184658D01*
X184150Y74422D02*
Y75438D01*
X183642Y77470D02*
X184658D01*
X184150Y76962D02*
Y77978D01*
X183642Y59690D02*
X184658D01*
X184150Y59182D02*
Y60198D01*
X183642Y44450D02*
X184658D01*
X184150Y43942D02*
Y44958D01*
X183642Y46990D02*
X184658D01*
X184150Y46482D02*
Y47498D01*
X183642Y49530D02*
X184658D01*
X184150Y49022D02*
Y50038D01*
X183642Y52070D02*
X184658D01*
X184150Y51562D02*
Y52578D01*
X183642Y54610D02*
X184658D01*
X184150Y54102D02*
Y55118D01*
X183642Y57150D02*
X184658D01*
X184150Y56642D02*
Y57658D01*
X206502Y57150D02*
X207518D01*
X207010Y56642D02*
Y57658D01*
X206502Y54610D02*
X207518D01*
X207010Y54102D02*
Y55118D01*
X206502Y52070D02*
X207518D01*
X207010Y51562D02*
Y52578D01*
X206502Y49530D02*
X207518D01*
X207010Y49022D02*
Y50038D01*
X206502Y46990D02*
X207518D01*
X207010Y46482D02*
Y47498D01*
X206502Y44450D02*
X207518D01*
X207010Y43942D02*
Y44958D01*
X206502Y59690D02*
X207518D01*
X207010Y59182D02*
Y60198D01*
X206502Y77470D02*
X207518D01*
X207010Y76962D02*
Y77978D01*
X206502Y74930D02*
X207518D01*
X207010Y74422D02*
Y75438D01*
X206502Y72390D02*
X207518D01*
X207010Y71882D02*
Y72898D01*
X206502Y69850D02*
X207518D01*
X207010Y69342D02*
Y70358D01*
X206502Y67310D02*
X207518D01*
X207010Y66802D02*
Y67818D01*
X206502Y64770D02*
X207518D01*
X207010Y64262D02*
Y65278D01*
X206502Y62230D02*
X207518D01*
X207010Y61722D02*
Y62738D01*
X206502Y80010D02*
X207518D01*
X207010Y79502D02*
Y80518D01*
X172339Y68453D02*
X173355D01*
X172847Y67945D02*
Y68961D01*
X172339Y65913D02*
X173355D01*
X172847Y65405D02*
Y66421D01*
X169291Y68453D02*
X170307D01*
X169799Y67945D02*
Y68961D01*
X169291Y65913D02*
X170307D01*
X169799Y65405D02*
Y66421D01*
X165735Y51689D02*
X166751D01*
X166243Y51181D02*
Y52197D01*
X165735Y54229D02*
X166751D01*
X166243Y53721D02*
Y54737D01*
X162687Y51689D02*
X163703D01*
X163195Y51181D02*
Y52197D01*
X162687Y54229D02*
X163703D01*
X163195Y53721D02*
Y54737D01*
X227203Y80010D02*
X228219D01*
X227711Y79502D02*
Y80518D01*
X227203Y82550D02*
X228219D01*
X227711Y82042D02*
Y83058D01*
X175641Y52070D02*
X176657D01*
X176149Y51562D02*
Y52578D01*
X178181Y52070D02*
X179197D01*
X178689Y51562D02*
Y52578D01*
X175641Y57785D02*
X176657D01*
X176149Y57277D02*
Y58293D01*
X178181Y57785D02*
X179197D01*
X178689Y57277D02*
Y58293D01*
X175641Y62992D02*
X176657D01*
X176149Y62484D02*
Y63500D01*
X178181Y62992D02*
X179197D01*
X178689Y62484D02*
Y63500D01*
X175641Y68453D02*
X176657D01*
X176149Y67945D02*
Y68961D01*
X178181Y68453D02*
X179197D01*
X178689Y67945D02*
Y68961D01*
X168529Y37465D02*
X169545D01*
X169037Y36957D02*
Y37973D01*
X168529Y40005D02*
X169545D01*
X169037Y39497D02*
Y40513D01*
X168529Y42545D02*
X169545D01*
X169037Y42037D02*
Y43053D01*
X161798Y37465D02*
X162814D01*
X162306Y36957D02*
Y37973D01*
X161798Y40005D02*
X162814D01*
X162306Y39497D02*
Y40513D01*
X161798Y42545D02*
X162814D01*
X162306Y42037D02*
Y43053D01*
X155067Y37465D02*
X156083D01*
X155575Y36957D02*
Y37973D01*
X155067Y40005D02*
X156083D01*
X155575Y39497D02*
Y40513D01*
X155067Y42545D02*
X156083D01*
X155575Y42037D02*
Y43053D01*
X210693Y83566D02*
X211709D01*
X211201Y83058D02*
Y84074D01*
X220853Y83566D02*
X221869D01*
X221361Y83058D02*
Y84074D01*
X200152Y36322D02*
X201168D01*
X200660Y35814D02*
Y36830D01*
X210312Y36322D02*
X211328D01*
X210820Y35814D02*
Y36830D01*
X168910Y51816D02*
X169926D01*
X169418Y51308D02*
Y52324D01*
X168910Y61976D02*
X169926D01*
X169418Y61468D02*
Y62484D01*
X171704Y51816D02*
X172720D01*
X172212Y51308D02*
Y52324D01*
X171704Y61976D02*
X172720D01*
X172212Y61468D02*
Y62484D01*
X165735Y57912D02*
X166751D01*
X166243Y57404D02*
Y58420D01*
X165735Y68072D02*
X166751D01*
X166243Y67564D02*
Y68580D01*
X163068Y57912D02*
X164084D01*
X163576Y57404D02*
Y58420D01*
X163068Y68072D02*
X164084D01*
X163576Y67564D02*
Y68580D01*
X209550Y33528D02*
X210566D01*
X210058Y33020D02*
Y34036D01*
X199390Y33528D02*
X200406D01*
X199898Y33020D02*
Y34036D01*
X191135Y36195D02*
X192151D01*
X191643Y35687D02*
Y36703D01*
X180975Y36195D02*
X181991D01*
X181483Y35687D02*
Y36703D01*
X178435Y35179D02*
X179451D01*
X178943Y34671D02*
Y35687D01*
X178435Y45339D02*
X179451D01*
X178943Y44831D02*
Y45847D01*
X171831Y35179D02*
X172847D01*
X172339Y34671D02*
Y35687D01*
X171831Y45339D02*
X172847D01*
X172339Y44831D02*
Y45847D01*
X165227Y35179D02*
X166243D01*
X165735Y34671D02*
Y35687D01*
X165227Y45339D02*
X166243D01*
X165735Y44831D02*
Y45847D01*
X158369Y35306D02*
X159385D01*
X158877Y34798D02*
Y35814D01*
X158369Y45466D02*
X159385D01*
X158877Y44958D02*
Y45974D01*
X178308Y83312D02*
X179324D01*
X178816Y82804D02*
Y83820D01*
X178308Y78232D02*
X179324D01*
X178816Y77724D02*
Y78740D01*
X178308Y73152D02*
X179324D01*
X178816Y72644D02*
Y73660D01*
X175514Y37338D02*
X176530D01*
X176022Y36830D02*
Y37846D01*
X175514Y39878D02*
X176530D01*
X176022Y39370D02*
Y40386D01*
X175514Y42418D02*
X176530D01*
X176022Y41910D02*
Y42926D01*
X214757Y63373D02*
X215773D01*
X215265Y62865D02*
Y63881D01*
X214757Y60833D02*
X215773D01*
X215265Y60325D02*
Y61341D01*
X214757Y65913D02*
X215773D01*
X215265Y65405D02*
Y66421D01*
X215138Y72390D02*
X216154D01*
X215646Y71882D02*
Y72898D01*
X215138Y69850D02*
X216154D01*
X215646Y69342D02*
Y70358D01*
X215138Y74930D02*
X216154D01*
X215646Y74422D02*
Y75438D01*
X230378Y62992D02*
X231394D01*
X230886Y62484D02*
Y63500D01*
X220218Y62992D02*
X221234D01*
X220726Y62484D02*
Y63500D01*
X213995Y79121D02*
X215011D01*
X214503Y78613D02*
Y79629D01*
X211455Y79121D02*
X212471D01*
X211963Y78613D02*
Y79629D01*
X196469Y34417D02*
X197485D01*
X196977Y33909D02*
Y34925D01*
X193929Y34417D02*
X194945D01*
X194437Y33909D02*
Y34925D01*
X177673Y32639D02*
X178689D01*
X178181Y32131D02*
Y33147D01*
X175133Y32639D02*
X176149D01*
X175641Y32131D02*
Y33147D01*
X170942Y32512D02*
X171958D01*
X171450Y32004D02*
Y33020D01*
X168402Y32512D02*
X169418D01*
X168910Y32004D02*
Y33020D01*
X164338Y32512D02*
X165354D01*
X164846Y32004D02*
Y33020D01*
X161798Y32512D02*
X162814D01*
X162306Y32004D02*
Y33020D01*
X157734Y32512D02*
X158750D01*
X158242Y32004D02*
Y33020D01*
X155194Y32512D02*
X156210D01*
X155702Y32004D02*
Y33020D01*
X210947Y69723D02*
X211963D01*
X211455Y69215D02*
Y70231D01*
X210947Y67183D02*
X211963D01*
X211455Y66675D02*
Y67691D01*
X210947Y75184D02*
X211963D01*
X211455Y74676D02*
Y75692D01*
X210947Y72644D02*
X211963D01*
X211455Y72136D02*
Y73152D01*
X155600Y47752D02*
X156312D01*
X155956Y47396D02*
Y48108D01*
M02*
