%FSLAX43Y43*%
%MOMM*%
G71*
G01*
G75*
G04 Layer_Color=16711935*
%ADD10C,0.500*%
%ADD11C,2.540*%
%ADD12R,2.500X3.000*%
%ADD13R,2.400X3.000*%
%ADD14R,3.000X3.000*%
%ADD15C,2.032*%
%ADD16O,2.032X1.778*%
%ADD17C,1.000*%
%ADD18C,3.048*%
%ADD19O,2.286X1.778*%
%ADD20O,1.778X2.032*%
%ADD21C,1.270*%
%ADD22C,0.254*%
%ADD23C,0.127*%
%ADD24C,2.840*%
%ADD25R,2.800X3.300*%
%ADD26R,2.700X3.300*%
%ADD27R,3.300X3.300*%
%ADD28C,2.332*%
%ADD29O,2.332X2.078*%
%ADD30C,3.000*%
%ADD31C,3.348*%
%ADD32O,2.586X2.078*%
%ADD33O,2.078X2.332*%
%ADD34C,1.570*%
D24*
X225298Y68707D02*
D03*
Y75057D02*
D03*
D25*
X217043Y56388D02*
D03*
X213868D02*
D03*
X231013D02*
D03*
D26*
X227838D02*
D03*
D27*
X213868Y34163D02*
D03*
X231013D02*
D03*
D28*
X184150Y80010D02*
D03*
Y62230D02*
D03*
Y64770D02*
D03*
Y67310D02*
D03*
Y69850D02*
D03*
Y72390D02*
D03*
Y74930D02*
D03*
Y77470D02*
D03*
Y59690D02*
D03*
Y44450D02*
D03*
Y46990D02*
D03*
Y49530D02*
D03*
Y52070D02*
D03*
Y54610D02*
D03*
Y57150D02*
D03*
X207010D02*
D03*
Y54610D02*
D03*
Y52070D02*
D03*
Y49530D02*
D03*
Y46990D02*
D03*
Y44450D02*
D03*
Y59690D02*
D03*
Y77470D02*
D03*
Y74930D02*
D03*
Y72390D02*
D03*
Y69850D02*
D03*
Y67310D02*
D03*
Y64770D02*
D03*
Y62230D02*
D03*
Y80010D02*
D03*
X227711D02*
D03*
Y82550D02*
D03*
X176149Y52070D02*
D03*
X178689D02*
D03*
X176149Y57785D02*
D03*
X178689D02*
D03*
X176149Y62992D02*
D03*
X178689D02*
D03*
X176149Y68453D02*
D03*
X178689D02*
D03*
X169037Y37465D02*
D03*
Y40005D02*
D03*
Y42545D02*
D03*
X162306Y37465D02*
D03*
Y40005D02*
D03*
Y42545D02*
D03*
X155575Y37465D02*
D03*
Y40005D02*
D03*
Y42545D02*
D03*
X211201Y83566D02*
D03*
X221361D02*
D03*
X200660Y36322D02*
D03*
X210820D02*
D03*
X169418Y51816D02*
D03*
Y61976D02*
D03*
X172212Y51816D02*
D03*
Y61976D02*
D03*
X166243Y57912D02*
D03*
Y68072D02*
D03*
X163576Y57912D02*
D03*
Y68072D02*
D03*
X210058Y33528D02*
D03*
X199898D02*
D03*
X191643Y36195D02*
D03*
X181483D02*
D03*
X178943Y35179D02*
D03*
Y45339D02*
D03*
X172339Y35179D02*
D03*
Y45339D02*
D03*
X165735Y35179D02*
D03*
Y45339D02*
D03*
X158877Y35306D02*
D03*
Y45466D02*
D03*
X176022Y37338D02*
D03*
Y39878D02*
D03*
Y42418D02*
D03*
X230886Y62992D02*
D03*
X220726D02*
D03*
X196977Y34417D02*
D03*
X194437D02*
D03*
X211455Y75184D02*
D03*
Y72644D02*
D03*
D29*
X172847Y68453D02*
D03*
Y65913D02*
D03*
X169799Y68453D02*
D03*
Y65913D02*
D03*
X166243Y51689D02*
D03*
Y54229D02*
D03*
X163195Y51689D02*
D03*
Y54229D02*
D03*
X211455Y69723D02*
D03*
Y67183D02*
D03*
D30*
X231267Y85725D02*
D03*
X155448Y51181D02*
D03*
X155194Y85598D02*
D03*
D31*
X178816Y83312D02*
D03*
Y78232D02*
D03*
Y73152D02*
D03*
D32*
X215265Y63373D02*
D03*
Y60833D02*
D03*
Y65913D02*
D03*
X215646Y72390D02*
D03*
Y69850D02*
D03*
Y74930D02*
D03*
D33*
X214503Y79121D02*
D03*
X211963D02*
D03*
X178181Y32639D02*
D03*
X175641D02*
D03*
X171450Y32512D02*
D03*
X168910D02*
D03*
X164846D02*
D03*
X162306D02*
D03*
X158242D02*
D03*
X155702D02*
D03*
D34*
X155956Y47752D02*
D03*
M02*
