M48
;Layer_Color=9474304
;FILE_FORMAT=4:3
METRIC,LZ
;TYPE=PLATED
T1F00S00C0.711
T2F00S00C0.762
T3F00S00C1.016
%
T01
X0155956Y0047752
T02
X0213868Y0034163
X0231013
Y0056388
X0227838
X0217043
X0213868
T03
X0155702Y0032512
X0158242
X0155575Y0037465
X0158877Y0035306
X0162306Y0037465
Y0032512
X0164846
X0165735Y0035179
X0169037Y0037465
X016891Y0032512
X017145
X0172339Y0035179
X0176022Y0037338
X0178943Y0035179
X0178181Y0032639
X0175641
X0181483Y0036195
X0191643
X0194437Y0034417
X0196977
X0199898Y0033528
X020066Y0036322
X021082
X0210058Y0033528
X020701Y004445
Y004699
Y004953
Y005207
Y005461
Y005715
Y005969
Y006223
Y006477
Y006731
Y006985
Y007239
Y007493
Y007747
X0211963Y0079121
X0214503
X0215646Y007493
Y007239
Y006985
X0215265Y0065913
Y0063373
Y0060833
X0220726Y0062992
X0230886
X0225298Y0068707
Y0075057
X0211455Y0075184
Y0072644
Y0069723
Y0067183
X018415Y006731
Y006477
Y006223
Y005969
Y005715
Y005461
Y005207
Y004953
Y004699
Y004445
X0178943Y0045339
X0176022Y0042418
Y0039878
X0169037Y0040005
Y0042545
X0172339Y0045339
X0172212Y0051816
X0169418
X0166243Y0051689
Y0054229
X0163195
Y0051689
X0163576Y0057912
X0166243
X0169418Y0061976
X0172212
X0172847Y0065913
Y0068453
X0169799
Y0065913
X0166243Y0068072
X0163576
X0176149Y0068453
X0178689
X0178816Y0073152
Y0078232
X018415Y007747
Y007493
Y007239
Y006985
X0178689Y0062992
X0176149
Y0057785
X0178689
Y005207
X0176149
X0165735Y0045339
X0162306Y0042545
Y0040005
X0158877Y0045466
X0155575Y0042545
Y0040005
X0178816Y0083312
X018415Y008001
X020701
X0211201Y0083566
X0221361
X0227711Y008255
Y008001
M30
