%FSLAX43Y43*%
%MOMM*%
G71*
G01*
G75*
G04 Layer_Physical_Order=1*
G04 Layer_Color=255*
%ADD10C,0.500*%
%ADD11C,2.540*%
%ADD12R,2.500X3.000*%
%ADD13R,2.400X3.000*%
%ADD14R,3.000X3.000*%
%ADD15C,2.032*%
%ADD16O,2.032X1.778*%
%ADD17C,1.000*%
%ADD18C,3.048*%
%ADD19O,2.286X1.778*%
%ADD20O,1.778X2.032*%
%ADD21C,1.270*%
G36*
X183338Y40757D02*
Y39452D01*
X181652Y37766D01*
X181483Y37836D01*
X180323Y37355D01*
X179931Y36411D01*
X178943Y36820D01*
X178056Y36452D01*
X177519Y36989D01*
X177663Y37338D01*
X177182Y38498D01*
D01*
X177182Y38498D01*
Y38718D01*
X177182D01*
X177327Y39066D01*
X180594D01*
X181168Y39304D01*
X182692Y40828D01*
D01*
X182906Y40936D01*
X182906Y40936D01*
X183338Y40757D01*
D02*
G37*
G36*
X171179Y44179D02*
X172049Y43818D01*
X171932Y43230D01*
X170178D01*
X170044Y43552D01*
X169287Y43866D01*
Y42545D01*
X168787D01*
Y43866D01*
X168030Y43552D01*
X167949Y43357D01*
X166449D01*
X166332Y43945D01*
X166895Y44179D01*
X167092Y44654D01*
X170982D01*
X171179Y44179D01*
D02*
G37*
G36*
X166459Y41508D02*
Y37060D01*
X165960Y36727D01*
X165735Y36820D01*
X164578Y36341D01*
X163803Y37116D01*
X163947Y37465D01*
X163466Y38625D01*
D01*
X163466Y38625D01*
Y38845D01*
X163466D01*
X163947Y40005D01*
X163466Y41165D01*
Y41165D01*
Y41165D01*
X163702Y41733D01*
X166309D01*
X166459Y41508D01*
D02*
G37*
G36*
X159728Y37134D02*
X159229Y36801D01*
X158877Y36947D01*
X157720Y36468D01*
X157072Y37116D01*
X157216Y37465D01*
X156735Y38625D01*
D01*
X156735Y38625D01*
Y38845D01*
X156735D01*
X157216Y40005D01*
X156735Y41165D01*
Y41165D01*
Y41165D01*
X156971Y41733D01*
X159728D01*
Y37134D01*
D02*
G37*
G36*
X164575Y44179D02*
X165138Y43945D01*
X165021Y43357D01*
X163394D01*
X163313Y43552D01*
X162556Y43866D01*
Y42545D01*
X162056D01*
Y43866D01*
X161299Y43552D01*
X161218Y43357D01*
X159284D01*
X159167Y43945D01*
X160037Y44306D01*
X160182Y44654D01*
X164378D01*
X164575Y44179D01*
D02*
G37*
G36*
X177514Y46807D02*
X177232Y46278D01*
X174050D01*
X173768Y46807D01*
X173857Y46940D01*
X177425D01*
X177514Y46807D01*
D02*
G37*
G36*
X182686Y48628D02*
X182969Y48099D01*
X182610Y47233D01*
X181544Y46167D01*
X181306Y45593D01*
Y41738D01*
X180258Y40690D01*
X177327D01*
X177182Y41038D01*
X177029Y41102D01*
Y41411D01*
X177029Y41411D01*
X177029D01*
X177343Y42168D01*
X176022D01*
Y42418D01*
X175772D01*
Y43739D01*
X175015Y43425D01*
X174934Y43230D01*
X172746D01*
X172629Y43818D01*
X173499Y44179D01*
X173696Y44654D01*
X177586D01*
X177783Y44179D01*
X178943Y43698D01*
X180103Y44179D01*
X180584Y45339D01*
X180103Y46499D01*
Y46499D01*
Y46499D01*
X180191Y46940D01*
X180213D01*
X180787Y47178D01*
X180787Y47178D01*
X180787Y47178D01*
X182312Y48703D01*
X182686Y48628D01*
D02*
G37*
G36*
X164306Y46807D02*
X164024Y46278D01*
X160641D01*
X160358Y46807D01*
X160447Y46940D01*
X164217D01*
X164306Y46807D01*
D02*
G37*
G36*
X170910D02*
X170628Y46278D01*
X167446D01*
X167164Y46807D01*
X167253Y46940D01*
X170821D01*
X170910Y46807D01*
D02*
G37*
G36*
X168098Y34588D02*
Y33590D01*
X168000Y33549D01*
X167674Y32762D01*
X168910D01*
Y32262D01*
X167674D01*
X167924Y31658D01*
X167591Y31159D01*
X166381D01*
X166048Y31658D01*
X166349Y32385D01*
Y32639D01*
X165942Y33624D01*
X166895Y34019D01*
X167258Y34893D01*
X167634Y34968D01*
X168098Y34588D01*
D02*
G37*
G36*
X174829Y34778D02*
Y33717D01*
X174731Y33676D01*
X174405Y32889D01*
X175641D01*
Y32389D01*
X174405D01*
X174708Y31658D01*
X174375Y31159D01*
X172985D01*
X172652Y31658D01*
X172953Y32385D01*
Y32639D01*
X172546Y33624D01*
X173499Y34019D01*
X173936Y35073D01*
X174365Y35158D01*
X174829Y34778D01*
D02*
G37*
G36*
X161494Y34631D02*
Y33590D01*
X161396Y33549D01*
X161070Y32762D01*
X162306D01*
Y32262D01*
X161070D01*
X161320Y31658D01*
X160987Y31159D01*
X159777D01*
X159444Y31658D01*
X159745Y32385D01*
Y32639D01*
X159305Y33702D01*
Y33702D01*
D01*
Y33842D01*
X160037Y34146D01*
X160400Y35020D01*
X160988Y35137D01*
X161494Y34631D01*
D02*
G37*
G36*
X233001Y84836D02*
X233001Y84836D01*
X233001D01*
Y63384D01*
X232537Y63292D01*
Y63292D01*
X232413Y63267D01*
X232046Y64152D01*
X230886Y64633D01*
X229726Y64152D01*
X229245Y62992D01*
X229726Y61832D01*
X230886Y61351D01*
X232046Y61832D01*
X232413Y62717D01*
X232537Y62692D01*
Y62692D01*
X233001Y62600D01*
Y58388D01*
X233001D01*
X232763D01*
X232577Y58388D01*
X232577Y58388D01*
Y58388D01*
X229263D01*
Y58188D01*
X228088D01*
Y56388D01*
Y54588D01*
X229263D01*
Y54388D01*
X232577D01*
X232577Y54388D01*
X232577Y54388D01*
X232763Y54388D01*
X233001Y54150D01*
Y35963D01*
X233001D01*
X232813D01*
X232577Y35963D01*
X232577Y35963D01*
Y35963D01*
X231263D01*
Y34163D01*
Y32363D01*
X232577D01*
X232577Y32363D01*
X232577Y32363D01*
X232813Y32363D01*
X233001Y32175D01*
Y31159D01*
X179664D01*
X179331Y31658D01*
X179684Y32512D01*
Y32766D01*
X179303Y33687D01*
X180103Y34019D01*
X180332Y34572D01*
X180887Y34801D01*
X181483Y34554D01*
X182643Y35035D01*
X183124Y36195D01*
X182905Y36723D01*
X184724Y38542D01*
X184794Y38710D01*
X184962Y39116D01*
Y43145D01*
X185310Y43290D01*
X185791Y44450D01*
X185310Y45610D01*
D01*
X185310Y45610D01*
Y45830D01*
X185310D01*
X185791Y46990D01*
X185310Y48150D01*
D01*
X185310Y48150D01*
Y48370D01*
X185310D01*
X185791Y49530D01*
X185310Y50690D01*
D01*
X185310Y50690D01*
Y50910D01*
X185310D01*
X185791Y52070D01*
X185310Y53230D01*
D01*
X185310Y53230D01*
Y53450D01*
X185310D01*
X185791Y54610D01*
X185310Y55770D01*
D01*
X185310Y55770D01*
Y55990D01*
X185310D01*
X185455Y56338D01*
X187706D01*
X188280Y56576D01*
X200742Y69038D01*
X205705D01*
X205850Y68690D01*
X206003Y68626D01*
Y68317D01*
X206003Y68317D01*
X206003D01*
X205689Y67560D01*
X208331D01*
X208017Y68317D01*
Y68317D01*
D01*
Y68626D01*
X208170Y68690D01*
X208651Y69850D01*
X208170Y71010D01*
D01*
X208170Y71010D01*
Y71230D01*
X208170D01*
X208651Y72390D01*
X208170Y73550D01*
D01*
X208170Y73550D01*
Y73770D01*
X208170D01*
X208651Y74930D01*
X208170Y76090D01*
X208017Y76154D01*
Y76463D01*
X208017Y76463D01*
X208017D01*
X208331Y77220D01*
X205689D01*
X206003Y76463D01*
Y76463D01*
D01*
Y76154D01*
X205850Y76090D01*
X205369Y74930D01*
X205850Y73770D01*
D01*
Y73770D01*
Y73770D01*
D01*
X205850Y73550D01*
X205850D01*
X205369Y72390D01*
X205850Y71230D01*
D01*
Y71230D01*
Y71230D01*
D01*
X205850Y71010D01*
X205850D01*
X205705Y70662D01*
X200406D01*
X200119Y70543D01*
X199832Y70424D01*
X187370Y57962D01*
X185455D01*
X185310Y58310D01*
X185157Y58374D01*
Y58683D01*
X185157Y58683D01*
X185157D01*
X185471Y59440D01*
X182829D01*
X183143Y58683D01*
Y58683D01*
D01*
Y58374D01*
X182990Y58310D01*
X182509Y57150D01*
X182990Y55990D01*
D01*
Y55990D01*
Y55990D01*
D01*
X182990Y55770D01*
X182990D01*
X182509Y54610D01*
X182666Y54231D01*
X181417Y52983D01*
X181179Y52409D01*
Y49866D01*
X179877Y48564D01*
X156848D01*
X156825Y48621D01*
X155956Y48981D01*
X155087Y48621D01*
X154727Y47752D01*
X155087Y46883D01*
X155956Y46523D01*
X156825Y46883D01*
D01*
X157544Y46585D01*
X157640Y46441D01*
X157236Y45466D01*
X157717Y44306D01*
X158587Y43945D01*
X158470Y43357D01*
X156663D01*
X156582Y43552D01*
X155825Y43866D01*
Y42545D01*
X155325D01*
Y43866D01*
X154568Y43552D01*
X154467Y43309D01*
X154009Y43119D01*
X153887Y42997D01*
X153333Y43227D01*
Y87332D01*
X230997D01*
X231114Y86744D01*
D01*
X231114D01*
D01*
X230502Y86490D01*
X230185Y85725D01*
X230502Y84960D01*
X231267Y84643D01*
X232032Y84960D01*
X232349Y85725D01*
X232032Y86490D01*
X231420Y86744D01*
X231537Y87332D01*
X233001D01*
Y84836D01*
D02*
G37*
G36*
X154890Y34504D02*
Y33590D01*
X154792Y33549D01*
X154466Y32762D01*
X155702D01*
Y32262D01*
X154466D01*
X154716Y31658D01*
X154383Y31159D01*
X153333D01*
Y35278D01*
X153887Y35507D01*
X154890Y34504D01*
D02*
G37*
G36*
X173444Y36902D02*
X172945Y36569D01*
X172339Y36820D01*
D01*
X172339Y36820D01*
Y36820D01*
X171272Y36378D01*
X170534Y37116D01*
X170678Y37465D01*
X170197Y38625D01*
D01*
X170197Y38625D01*
Y38845D01*
X170197D01*
X170678Y40005D01*
X170221Y41107D01*
X170555Y41606D01*
X173444D01*
Y36902D01*
D02*
G37*
%LPC*%
G36*
X163326Y57662D02*
X162255D01*
X162569Y56905D01*
X163326Y56591D01*
Y57662D01*
D02*
G37*
G36*
X173533Y51566D02*
X172462D01*
Y50495D01*
X173219Y50809D01*
X173533Y51566D01*
D02*
G37*
G36*
X227588Y58188D02*
X226338D01*
Y56638D01*
X227588D01*
Y58188D01*
D02*
G37*
G36*
X167564Y57662D02*
X166493D01*
Y56591D01*
X167250Y56905D01*
X167564Y57662D01*
D02*
G37*
G36*
X155448Y52263D02*
X154683Y51946D01*
X154366Y51181D01*
X154683Y50416D01*
X155448Y50099D01*
X156213Y50416D01*
X156530Y51181D01*
X156213Y51946D01*
X155448Y52263D01*
D02*
G37*
G36*
X194187Y34167D02*
X193116D01*
X193430Y33410D01*
X194187Y33096D01*
Y34167D01*
D02*
G37*
G36*
X176272Y43739D02*
Y42668D01*
X177343D01*
X177029Y43425D01*
X176272Y43739D01*
D02*
G37*
G36*
X230763Y33913D02*
X229213D01*
Y32363D01*
X230763D01*
Y33913D01*
D02*
G37*
G36*
X227588Y56138D02*
X226338D01*
Y56036D01*
X223327Y53025D01*
X223089Y52451D01*
Y39039D01*
X196850D01*
X196563Y38920D01*
X196276Y38801D01*
X193863Y36388D01*
X193833Y36317D01*
X193233Y36317D01*
X192803Y37355D01*
X191643Y37836D01*
X190483Y37355D01*
X190002Y36195D01*
X190483Y35035D01*
X191643Y34554D01*
X192641Y34967D01*
X192941Y34667D01*
X194437D01*
Y34417D01*
X194687D01*
Y33096D01*
X195444Y33410D01*
X195444D01*
D01*
X195753D01*
X195817Y33257D01*
X196977Y32776D01*
X197943Y33176D01*
X198498Y32947D01*
X198738Y32368D01*
X199898Y31887D01*
X201058Y32368D01*
X201539Y33528D01*
X201165Y34431D01*
X201394Y34985D01*
X201820Y35162D01*
X202301Y36322D01*
X202055Y36916D01*
X202388Y37415D01*
X205944D01*
Y35687D01*
X206182Y35113D01*
X208341Y32954D01*
X208915Y32716D01*
X208970D01*
X209051Y32521D01*
X209808Y32207D01*
Y33528D01*
X210308D01*
Y32207D01*
X211065Y32521D01*
X211280Y33038D01*
X211868Y32921D01*
Y32163D01*
X215868D01*
Y36163D01*
X212567D01*
X212461Y36322D01*
X212461Y36322D01*
X212461D01*
X212215Y36916D01*
X212548Y37415D01*
X226613D01*
X229213Y34815D01*
Y34413D01*
X230763D01*
Y35963D01*
X230361D01*
X227523Y38801D01*
X226949Y39039D01*
X224713D01*
Y52115D01*
X227186Y54588D01*
X227588D01*
Y56138D01*
D02*
G37*
G36*
X178816Y80423D02*
X177267Y79781D01*
X176625Y78232D01*
X177267Y76683D01*
X178816Y76041D01*
X180365Y76683D01*
X181007Y78232D01*
X180365Y79781D01*
X178816Y80423D01*
D02*
G37*
G36*
X211201Y85207D02*
X210041Y84726D01*
X209560Y83566D01*
X210041Y82406D01*
X211201Y81925D01*
X211523Y82059D01*
X211857Y81560D01*
X211389Y81092D01*
X211151Y80518D01*
Y80199D01*
X211053Y80158D01*
X210727Y79371D01*
X211963D01*
Y79121D01*
X212213D01*
Y77811D01*
X212873Y78084D01*
X212873D01*
D01*
X213376D01*
X213440Y77931D01*
X213691Y77827D01*
Y77044D01*
X212929Y76282D01*
X212615Y76344D01*
X212615Y76344D01*
X212615Y76344D01*
X211455Y76825D01*
X210295Y76344D01*
X209814Y75184D01*
X210295Y74024D01*
X210448Y73960D01*
Y73651D01*
X210448Y73651D01*
X210448D01*
X210134Y72894D01*
X212776D01*
X212462Y73651D01*
Y73651D01*
D01*
Y73960D01*
X212615Y74024D01*
X212760Y74372D01*
X212979D01*
X213553Y74610D01*
X213553Y74610D01*
X213553Y74610D01*
X213655Y74712D01*
X214244Y74595D01*
X214482Y74020D01*
Y74020D01*
D01*
Y73517D01*
X214329Y73453D01*
X213889Y72390D01*
X214329Y71327D01*
D01*
Y71327D01*
Y71327D01*
D01*
X214329Y70913D01*
X214329D01*
X214172Y70535D01*
X212749D01*
X212645Y70786D01*
X212251Y70949D01*
X212251Y71549D01*
X212462Y71637D01*
X212776Y72394D01*
X210134D01*
X210448Y71637D01*
X210659Y71549D01*
X210659Y70949D01*
X210265Y70786D01*
X209825Y69723D01*
X210265Y68660D01*
X210418Y68596D01*
Y68093D01*
X210418Y68093D01*
X210418D01*
X210145Y67433D01*
X212765D01*
X212492Y68093D01*
Y68093D01*
D01*
Y68596D01*
X212645Y68660D01*
X212749Y68911D01*
X214277D01*
X214329Y68787D01*
X215392Y68347D01*
X215900D01*
X216963Y68787D01*
X217403Y69850D01*
X216963Y70913D01*
D01*
X216963Y70913D01*
Y71327D01*
X216963D01*
X217403Y72390D01*
X216963Y73453D01*
X216810Y73517D01*
Y74020D01*
X216810Y74020D01*
X216810D01*
X217083Y74680D01*
X215646D01*
Y75180D01*
X217083D01*
X216810Y75840D01*
Y75840D01*
Y75840D01*
X217255Y76915D01*
X217871Y77531D01*
X217990Y77818D01*
X218109Y78105D01*
Y80518D01*
X217941Y80924D01*
X217871Y81092D01*
X216728Y82235D01*
X216154Y82473D01*
X213106D01*
X212965Y82414D01*
X212541Y82839D01*
X212842Y83566D01*
X212361Y84726D01*
X211201Y85207D01*
D02*
G37*
G36*
X184150Y81651D02*
X182990Y81170D01*
X182509Y80010D01*
X182990Y78850D01*
X183143Y78786D01*
Y78477D01*
X183143Y78477D01*
X183143D01*
X182829Y77720D01*
X185471D01*
X185157Y78477D01*
Y78477D01*
D01*
Y78786D01*
X185310Y78850D01*
X185791Y80010D01*
X185310Y81170D01*
X184150Y81651D01*
D02*
G37*
G36*
X178566Y75023D02*
X177420Y74548D01*
X176945Y73402D01*
X178566D01*
Y75023D01*
D02*
G37*
G36*
X179066D02*
Y73402D01*
X180687D01*
X180212Y74548D01*
X179066Y75023D01*
D02*
G37*
G36*
X185471Y77220D02*
X182829D01*
X183143Y76463D01*
Y76463D01*
D01*
Y76154D01*
X182990Y76090D01*
X182509Y74930D01*
X182990Y73770D01*
D01*
Y73770D01*
Y73770D01*
D01*
X182990Y73550D01*
X182990D01*
X182509Y72390D01*
X182990Y71230D01*
D01*
Y71230D01*
Y71230D01*
D01*
X182990Y71010D01*
X182990D01*
X182845Y70662D01*
X182118D01*
X181712Y70494D01*
X181544Y70424D01*
X180490Y69370D01*
X179902Y69487D01*
X179849Y69613D01*
X179281Y69849D01*
X179263Y69892D01*
X178472Y70683D01*
X178805Y71182D01*
X178816Y71178D01*
X180212Y71756D01*
X180687Y72902D01*
X176945D01*
X177420Y71756D01*
X177750Y71619D01*
X177633Y71031D01*
X165893D01*
X165487Y70863D01*
X165318Y70793D01*
X164044Y69519D01*
X163576Y69713D01*
X162416Y69232D01*
X161935Y68072D01*
X162416Y66912D01*
X163576Y66431D01*
X164736Y66912D01*
X164736Y66912D01*
X165083D01*
Y66912D01*
X166243Y66431D01*
X166592Y66575D01*
X167828Y65339D01*
X168402Y65101D01*
X168505D01*
X168609Y64850D01*
X169672Y64410D01*
X169926D01*
X170989Y64850D01*
X171023Y64932D01*
X171623D01*
X171657Y64850D01*
X172720Y64410D01*
X172974D01*
X174037Y64850D01*
X174477Y65913D01*
X174037Y66976D01*
D01*
X174037Y66976D01*
Y67390D01*
X174037D01*
X174193Y67766D01*
X174793D01*
X174989Y67293D01*
X175337Y67148D01*
Y64297D01*
X174989Y64152D01*
X174508Y62992D01*
X174989Y61832D01*
X176149Y61351D01*
X177309Y61832D01*
X177309Y61832D01*
X177529D01*
Y61832D01*
X178553Y61407D01*
X178641Y60966D01*
X178260Y60502D01*
X174834D01*
X173709Y61627D01*
X173853Y61976D01*
X173372Y63136D01*
X172212Y63617D01*
X171052Y63136D01*
D01*
Y63136D01*
X170578D01*
Y63136D01*
X169418Y63617D01*
X168258Y63136D01*
X167777Y61976D01*
X168258Y60816D01*
X169175Y60436D01*
X174397Y55214D01*
X174167Y54660D01*
X168529D01*
X168209Y54527D01*
X167655Y54757D01*
X167433Y55292D01*
X166370Y55732D01*
X166116D01*
X165053Y55292D01*
X165019Y55210D01*
X164419D01*
X164385Y55292D01*
X163322Y55732D01*
X163068D01*
X162005Y55292D01*
X161565Y54229D01*
X162005Y53166D01*
D01*
Y53166D01*
Y53166D01*
D01*
X162005Y52752D01*
X162005D01*
X161565Y51689D01*
X162005Y50626D01*
X163068Y50186D01*
X163322D01*
X164385Y50626D01*
X164419Y50708D01*
X165019D01*
X165053Y50626D01*
X166116Y50186D01*
X166370D01*
X167433Y50626D01*
X167660Y51173D01*
X168260D01*
X168411Y50809D01*
X169168Y50495D01*
Y51816D01*
X169668D01*
Y50495D01*
X170425Y50809D01*
X170515Y51026D01*
X171115D01*
X171205Y50809D01*
X171962Y50495D01*
Y51816D01*
X172212D01*
Y52066D01*
X173533D01*
X173338Y52537D01*
X173554Y52861D01*
X174151Y52920D01*
X174652Y52419D01*
X174508Y52070D01*
X174989Y50910D01*
X176149Y50429D01*
X177309Y50910D01*
X177309Y50910D01*
X177529D01*
Y50910D01*
X178689Y50429D01*
X179849Y50910D01*
X180330Y52070D01*
X179849Y53230D01*
X179849Y53230D01*
X179849D01*
X179808Y53438D01*
X181549Y55179D01*
X181619Y55347D01*
X181787Y55753D01*
Y60116D01*
X182603Y60932D01*
X183102Y60599D01*
X182829Y59940D01*
X185471D01*
X185157Y60697D01*
Y60697D01*
D01*
Y61006D01*
X185310Y61070D01*
X185791Y62230D01*
X185310Y63390D01*
D01*
X185310Y63390D01*
Y63610D01*
X185310D01*
X185791Y64770D01*
X185310Y65930D01*
D01*
X185310Y65930D01*
Y66150D01*
X185310D01*
X185791Y67310D01*
X185310Y68470D01*
D01*
X185310Y68470D01*
Y68690D01*
X185310D01*
X185791Y69850D01*
X185310Y71010D01*
D01*
X185310Y71010D01*
Y71230D01*
X185310D01*
X185791Y72390D01*
X185310Y73550D01*
D01*
X185310Y73550D01*
Y73770D01*
X185310D01*
X185791Y74930D01*
X185310Y76090D01*
X185157Y76154D01*
Y76463D01*
X185157Y76463D01*
X185157D01*
X185471Y77220D01*
D02*
G37*
G36*
X178816Y85503D02*
X177267Y84861D01*
X176625Y83312D01*
X177267Y81763D01*
X178816Y81121D01*
X180365Y81763D01*
X181007Y83312D01*
X180365Y84861D01*
X178816Y85503D01*
D02*
G37*
G36*
X221361Y85207D02*
X220201Y84726D01*
X219720Y83566D01*
X220201Y82406D01*
X221361Y81925D01*
X222521Y82406D01*
X223002Y83566D01*
X222521Y84726D01*
X221361Y85207D01*
D02*
G37*
G36*
X155194Y86680D02*
X154429Y86363D01*
X154112Y85598D01*
X154429Y84833D01*
X155194Y84516D01*
X155959Y84833D01*
X156276Y85598D01*
X155959Y86363D01*
X155194Y86680D01*
D02*
G37*
G36*
X207010Y81651D02*
X205850Y81170D01*
X205369Y80010D01*
X205850Y78850D01*
X206003Y78786D01*
Y78477D01*
X206003Y78477D01*
X206003D01*
X205689Y77720D01*
X208331D01*
X208017Y78477D01*
Y78477D01*
D01*
Y78786D01*
X208170Y78850D01*
X208651Y80010D01*
X208170Y81170D01*
X207010Y81651D01*
D02*
G37*
G36*
X211713Y78871D02*
X210727D01*
X211053Y78084D01*
X211713Y77811D01*
Y78871D01*
D02*
G37*
G36*
X227461Y79760D02*
X226390D01*
X226704Y79003D01*
X227461Y78689D01*
Y79760D01*
D02*
G37*
G36*
X225298Y76973D02*
X223943Y76412D01*
X223382Y75057D01*
X223943Y73702D01*
X225298Y73141D01*
X226653Y73702D01*
X227214Y75057D01*
X226653Y76412D01*
X225298Y76973D01*
D02*
G37*
G36*
X166493Y59233D02*
Y58162D01*
X167564D01*
X167250Y58919D01*
X166493Y59233D01*
D02*
G37*
G36*
X227711Y84191D02*
X226551Y83710D01*
X226070Y82550D01*
X226551Y81390D01*
X226704Y81326D01*
Y81017D01*
X226704Y81017D01*
X226704D01*
X226390Y80260D01*
X227711D01*
Y80010D01*
X227961D01*
Y78689D01*
X228718Y79003D01*
X228851Y79323D01*
X229439Y79206D01*
Y69297D01*
X222909Y62767D01*
X222367Y62992D01*
Y62992D01*
X222367Y62992D01*
X221886Y64152D01*
X220726Y64633D01*
X219566Y64152D01*
X219085Y62992D01*
X219566Y61832D01*
X220726Y61351D01*
X220726Y61351D01*
Y61351D01*
X220951Y60809D01*
X218530Y58388D01*
X212118D01*
Y54388D01*
X218793D01*
Y56355D01*
X230825Y68387D01*
X230895Y68555D01*
X231063Y68961D01*
Y81788D01*
X230825Y82362D01*
X230063Y83124D01*
X229489Y83362D01*
X229016D01*
X228871Y83710D01*
X227711Y84191D01*
D02*
G37*
G36*
X216702Y60583D02*
X215515D01*
Y59546D01*
X215519D01*
X216429Y59923D01*
X216702Y60583D01*
D02*
G37*
G36*
X165993Y59233D02*
X165236Y58919D01*
X165210Y58856D01*
X164609D01*
X164583Y58919D01*
X163826Y59233D01*
Y57912D01*
Y56591D01*
X164583Y56905D01*
X164609Y56968D01*
X165210D01*
X165236Y56905D01*
X165993Y56591D01*
Y57912D01*
Y59233D01*
D02*
G37*
G36*
X208331Y67060D02*
X205689D01*
X206003Y66303D01*
Y66303D01*
D01*
Y65994D01*
X205850Y65930D01*
X205369Y64770D01*
X205850Y63610D01*
D01*
Y63610D01*
Y63610D01*
D01*
X205850Y63390D01*
X205850D01*
X205369Y62230D01*
X205850Y61070D01*
D01*
Y61070D01*
Y61070D01*
D01*
X205850Y60850D01*
X205850D01*
X205369Y59690D01*
X205850Y58530D01*
D01*
Y58530D01*
Y58530D01*
D01*
X205850Y58310D01*
X205850D01*
X205369Y57150D01*
X205850Y55990D01*
D01*
Y55990D01*
Y55990D01*
D01*
X205850Y55770D01*
X205850D01*
X205369Y54610D01*
X205850Y53450D01*
D01*
Y53450D01*
Y53450D01*
D01*
X205850Y53230D01*
X205850D01*
X205369Y52070D01*
X205850Y50910D01*
D01*
Y50910D01*
Y50910D01*
D01*
X205850Y50690D01*
X205850D01*
X205369Y49530D01*
X205850Y48370D01*
D01*
Y48370D01*
Y48370D01*
D01*
X205850Y48150D01*
X205850D01*
X205369Y46990D01*
X205850Y45830D01*
D01*
Y45830D01*
Y45830D01*
D01*
X205850Y45610D01*
X205850D01*
X205369Y44450D01*
X205850Y43290D01*
X207010Y42809D01*
X208170Y43290D01*
X208651Y44450D01*
X208170Y45610D01*
D01*
X208170Y45610D01*
Y45830D01*
X208170D01*
X208651Y46990D01*
X208170Y48150D01*
D01*
X208170Y48150D01*
Y48370D01*
X208170D01*
X208651Y49530D01*
X208170Y50690D01*
D01*
X208170Y50690D01*
Y50910D01*
X208170D01*
X208651Y52070D01*
X208170Y53230D01*
D01*
X208170Y53230D01*
Y53450D01*
X208170D01*
X208651Y54610D01*
X208170Y55770D01*
D01*
X208170Y55770D01*
Y55990D01*
X208170D01*
X208651Y57150D01*
X208170Y58310D01*
D01*
X208170Y58310D01*
Y58530D01*
X208170D01*
X208651Y59690D01*
X208170Y60850D01*
D01*
X208170Y60850D01*
Y61070D01*
X208170D01*
X208651Y62230D01*
X208170Y63390D01*
D01*
X208170Y63390D01*
Y63610D01*
X208170D01*
X208651Y64770D01*
X208170Y65930D01*
X208017Y65994D01*
Y66303D01*
X208017Y66303D01*
X208017D01*
X208331Y67060D01*
D02*
G37*
G36*
X225298Y70623D02*
X223943Y70062D01*
X223382Y68707D01*
X223943Y67352D01*
X225298Y66791D01*
X226653Y67352D01*
X227214Y68707D01*
X226653Y70062D01*
X225298Y70623D01*
D02*
G37*
G36*
X163326Y59233D02*
X162569Y58919D01*
X162255Y58162D01*
X163326D01*
Y59233D01*
D02*
G37*
G36*
X215519Y67416D02*
X215011D01*
X213948Y66976D01*
X213508Y65913D01*
X213948Y64850D01*
D01*
Y64850D01*
Y64850D01*
D01*
X213948Y64436D01*
X213948D01*
X213508Y63373D01*
X213948Y62310D01*
X214101Y62246D01*
Y62073D01*
X214016Y61645D01*
X213061D01*
X212267Y62439D01*
Y66180D01*
X212492Y66273D01*
X212765Y66933D01*
X210145D01*
X210418Y66273D01*
X210643Y66180D01*
Y62103D01*
X210881Y61529D01*
X212151Y60259D01*
X212725Y60021D01*
X214060D01*
X214101Y59923D01*
X215011Y59546D01*
X215015D01*
Y60833D01*
X215265D01*
Y61083D01*
X216702D01*
X216429Y61743D01*
Y61743D01*
D01*
Y62246D01*
X216582Y62310D01*
X217022Y63373D01*
X216582Y64436D01*
D01*
X216582Y64436D01*
Y64850D01*
X216582D01*
X217022Y65913D01*
X216582Y66976D01*
X215519Y67416D01*
D02*
G37*
%LPD*%
G36*
X173924Y59116D02*
X174092Y59046D01*
X174498Y58878D01*
X174722Y58543D01*
X174492Y57989D01*
X174013Y57894D01*
X172141Y59766D01*
X172205Y60087D01*
X172779Y60261D01*
X173924Y59116D01*
D02*
G37*
G36*
X178115Y54041D02*
X177877Y53467D01*
Y53375D01*
X177529Y53230D01*
D01*
Y53230D01*
X177309D01*
Y53230D01*
X176149Y53711D01*
X175800Y53567D01*
X175361Y54006D01*
X175591Y54560D01*
X177900D01*
X178115Y54041D01*
D02*
G37*
G36*
X182799Y65471D02*
X182509Y64770D01*
X182542Y64691D01*
X180862Y63011D01*
X180274Y63128D01*
X180000Y63790D01*
X181914Y65704D01*
X181914D01*
X181914Y65704D01*
X182375Y65895D01*
X182799Y65471D01*
D02*
G37*
G36*
X181058Y67144D02*
X178446Y64532D01*
X177529Y64152D01*
D01*
Y64152D01*
X177309D01*
Y64152D01*
X176961Y64297D01*
Y67148D01*
X177309Y67293D01*
X177309Y67293D01*
X177529D01*
Y67293D01*
X178689Y66812D01*
X179849Y67293D01*
X179994Y67641D01*
X180721D01*
X180724Y67643D01*
X181058Y67144D01*
D02*
G37*
G36*
X209425Y36916D02*
X209179Y36322D01*
X209630Y35234D01*
X209464Y34833D01*
X208875Y34716D01*
X207568Y36023D01*
Y37415D01*
X209092D01*
X209425Y36916D01*
D02*
G37*
G36*
X199265D02*
X199019Y36322D01*
X199393Y35419D01*
X199201Y34956D01*
X198841Y34806D01*
X198377Y34998D01*
X198137Y35577D01*
X196977Y36058D01*
X196438Y35835D01*
X196105Y36333D01*
X197186Y37415D01*
X198932D01*
X199265Y36916D01*
D02*
G37*
D10*
X182753Y62230D02*
X184150D01*
X180975Y60452D02*
X182753Y62230D01*
X180975Y55753D02*
Y60452D01*
X217297Y78105D02*
Y80518D01*
X215646Y76454D02*
X217297Y78105D01*
X215646Y74930D02*
Y76454D01*
X216154Y81661D02*
X217297Y80518D01*
X213106Y81661D02*
X216154D01*
X211963Y80518D02*
X213106Y81661D01*
X211963Y79121D02*
Y80518D01*
X214503Y76708D02*
Y79121D01*
X212979Y75184D02*
X214503Y76708D01*
X211455Y75184D02*
X212979D01*
X215519Y69723D02*
X215646Y69850D01*
X211455Y69723D02*
X215519D01*
X208915Y33528D02*
X210058D01*
X196850Y38227D02*
X226949D01*
X194437Y35814D02*
X196850Y38227D01*
X194437Y34036D02*
Y35814D01*
X206756Y35687D02*
Y38227D01*
Y35687D02*
X208915Y33528D01*
X227711Y82550D02*
X229489D01*
X230251Y81788D01*
Y68961D02*
Y81788D01*
X217678Y56388D02*
X230251Y68961D01*
X212725Y60833D02*
X215265D01*
X211455Y62103D02*
X212725Y60833D01*
X211455Y62103D02*
Y67183D01*
X168529Y53848D02*
X174371D01*
X166370Y51689D02*
X168529Y53848D01*
X174371D02*
X176149Y52070D01*
X163322Y51689D02*
X166370D01*
X178689Y53467D02*
X180975Y55753D01*
X175387Y55372D02*
X180594D01*
X169418Y61341D02*
X175387Y55372D01*
X169418Y61341D02*
Y61976D01*
X174498Y59690D02*
X178689D01*
X172212Y61976D02*
X174498Y59690D01*
X158877Y45466D02*
X178816D01*
X184150Y39116D02*
Y44450D01*
X181483Y36449D02*
X184150Y39116D01*
X176149Y62992D02*
Y68453D01*
X166243Y68072D02*
X168402Y65913D01*
X169799D01*
X178689Y68453D02*
Y69318D01*
X177788Y70219D02*
X178689Y69318D01*
X165893Y70219D02*
X177788D01*
X163745Y68072D02*
X165893Y70219D01*
X163576Y68072D02*
X163745D01*
X178689Y52070D02*
Y53467D01*
X183769Y64770D02*
X184150D01*
X178689Y59690D02*
X183769Y64770D01*
X178689Y57785D02*
Y59690D01*
Y62992D02*
Y63627D01*
X182372Y67310D01*
X184150D01*
X182118Y69850D02*
X184150D01*
X180721Y68453D02*
X182118Y69850D01*
X178689Y68453D02*
X180721D01*
X184150Y57150D02*
X187706D01*
X200406Y69850D01*
X207010D01*
X181991Y49530D02*
Y52409D01*
X180213Y47752D02*
X181991Y49530D01*
X155956Y47752D02*
X180213D01*
X181991Y52409D02*
X183769Y54187D01*
Y54610D01*
X182118Y41402D02*
Y45593D01*
X180594Y39878D02*
X182118Y41402D01*
X176022Y39878D02*
X180594D01*
X182118Y45593D02*
X183515Y46990D01*
X184150D01*
X169037Y42418D02*
X175030D01*
X176022D01*
X174256Y41644D02*
X175030Y42418D01*
X174256Y36606D02*
Y41644D01*
Y36606D02*
X175641Y35222D01*
Y32639D02*
Y35222D01*
X168910Y42545D02*
X169037Y42418D01*
X162306Y42545D02*
X168308D01*
X168910D02*
X169037D01*
X168308D02*
X168910D01*
X167271Y41508D02*
X168308Y42545D01*
X167271Y36734D02*
Y41508D01*
Y36734D02*
X168910Y35095D01*
Y32512D02*
Y35095D01*
X155702Y42545D02*
X161314D01*
X162306D01*
X160540Y41771D02*
X161314Y42545D01*
X160540Y36734D02*
Y41771D01*
Y36734D02*
X162306Y34967D01*
Y32512D02*
Y34967D01*
X153809Y41771D02*
X154583Y42545D01*
X153809Y36734D02*
Y41771D01*
Y36734D02*
X155702Y34840D01*
Y32512D02*
Y34840D01*
X176022Y37338D02*
X178181Y35179D01*
X178943D01*
X169037Y37465D02*
X171323Y35179D01*
X172339D01*
X162306Y37465D02*
X164592Y35179D01*
X165735D01*
X155575Y37465D02*
X157734Y35306D01*
X158877D01*
X155575Y42418D02*
X155702Y42545D01*
X226949Y38227D02*
X231013Y34163D01*
X223901Y38227D02*
Y52451D01*
X227838Y56388D01*
D11*
X225298Y68707D02*
D03*
Y75057D02*
D03*
D12*
X217043Y56388D02*
D03*
X213868D02*
D03*
X231013D02*
D03*
D13*
X227838D02*
D03*
D14*
X213868Y34163D02*
D03*
X231013D02*
D03*
D15*
X184150Y80010D02*
D03*
Y62230D02*
D03*
Y64770D02*
D03*
Y67310D02*
D03*
Y69850D02*
D03*
Y72390D02*
D03*
Y74930D02*
D03*
Y77470D02*
D03*
Y59690D02*
D03*
Y44450D02*
D03*
Y46990D02*
D03*
Y49530D02*
D03*
Y52070D02*
D03*
Y54610D02*
D03*
Y57150D02*
D03*
X207010D02*
D03*
Y54610D02*
D03*
Y52070D02*
D03*
Y49530D02*
D03*
Y46990D02*
D03*
Y44450D02*
D03*
Y59690D02*
D03*
Y77470D02*
D03*
Y74930D02*
D03*
Y72390D02*
D03*
Y69850D02*
D03*
Y67310D02*
D03*
Y64770D02*
D03*
Y62230D02*
D03*
Y80010D02*
D03*
X227711D02*
D03*
Y82550D02*
D03*
X176149Y52070D02*
D03*
X178689D02*
D03*
X176149Y57785D02*
D03*
X178689D02*
D03*
X176149Y62992D02*
D03*
X178689D02*
D03*
X176149Y68453D02*
D03*
X178689D02*
D03*
X169037Y37465D02*
D03*
Y40005D02*
D03*
Y42545D02*
D03*
X162306Y37465D02*
D03*
Y40005D02*
D03*
Y42545D02*
D03*
X155575Y37465D02*
D03*
Y40005D02*
D03*
Y42545D02*
D03*
X211201Y83566D02*
D03*
X221361D02*
D03*
X200660Y36322D02*
D03*
X210820D02*
D03*
X169418Y51816D02*
D03*
Y61976D02*
D03*
X172212Y51816D02*
D03*
Y61976D02*
D03*
X166243Y57912D02*
D03*
Y68072D02*
D03*
X163576Y57912D02*
D03*
Y68072D02*
D03*
X210058Y33528D02*
D03*
X199898D02*
D03*
X191643Y36195D02*
D03*
X181483D02*
D03*
X178943Y35179D02*
D03*
Y45339D02*
D03*
X172339Y35179D02*
D03*
Y45339D02*
D03*
X165735Y35179D02*
D03*
Y45339D02*
D03*
X158877Y35306D02*
D03*
Y45466D02*
D03*
X176022Y37338D02*
D03*
Y39878D02*
D03*
Y42418D02*
D03*
X230886Y62992D02*
D03*
X220726D02*
D03*
X196977Y34417D02*
D03*
X194437D02*
D03*
X211455Y75184D02*
D03*
Y72644D02*
D03*
D16*
X172847Y68453D02*
D03*
Y65913D02*
D03*
X169799Y68453D02*
D03*
Y65913D02*
D03*
X166243Y51689D02*
D03*
Y54229D02*
D03*
X163195Y51689D02*
D03*
Y54229D02*
D03*
X211455Y69723D02*
D03*
Y67183D02*
D03*
D17*
X231267Y85725D02*
D03*
X155448Y51181D02*
D03*
X155194Y85598D02*
D03*
D18*
X178816Y83312D02*
D03*
Y78232D02*
D03*
Y73152D02*
D03*
D19*
X215265Y63373D02*
D03*
Y60833D02*
D03*
Y65913D02*
D03*
X215646Y72390D02*
D03*
Y69850D02*
D03*
Y74930D02*
D03*
D20*
X214503Y79121D02*
D03*
X211963D02*
D03*
X178181Y32639D02*
D03*
X175641D02*
D03*
X171450Y32512D02*
D03*
X168910D02*
D03*
X164846D02*
D03*
X162306D02*
D03*
X158242D02*
D03*
X155702D02*
D03*
D21*
X155956Y47752D02*
D03*
M02*
