%FSTAX43Y43*%
%MOIN*%
%SFA1B1*%

%IPPOS*%
%ADD23C,0.005000*%
%LNpcb-vitor-project-1*%
%LPD*%
G54D23*
X000885Y0002705D02*
X000889D01*
X000887Y0002685D02*
Y0002725D01*
X000885Y0002955D02*
X000889D01*
X000887Y0002935D02*
Y0002975D01*
X000853Y000222D02*
X000856D01*
X0008545Y0002205D02*
Y0002235D01*
X0008955Y000222D02*
X0008985D01*
X000897Y0002205D02*
Y0002235D01*
X0008405Y0001345D02*
X0008435D01*
X000842Y000133D02*
Y000136D01*
X0008405Y000222D02*
X0008435D01*
X000842Y0002205D02*
Y0002235D01*
X000908Y000222D02*
X000911D01*
X0009095Y0002205D02*
Y0002235D01*
X000908Y0001345D02*
X000911D01*
X0009095Y000133D02*
Y000136D01*
X000723Y000315D02*
X000727D01*
X000725Y000313D02*
Y000317D01*
X000723Y000245D02*
X000727D01*
X000725Y000243D02*
Y000247D01*
X000723Y000255D02*
X000727D01*
X000725Y000253D02*
Y000257D01*
X000723Y000265D02*
X000727D01*
X000725Y000263D02*
Y000267D01*
X000723Y000275D02*
X000727D01*
X000725Y000273D02*
Y000277D01*
X000723Y000285D02*
X000727D01*
X000725Y000283D02*
Y000287D01*
X000723Y000295D02*
X000727D01*
X000725Y000293D02*
Y000297D01*
X000723Y000305D02*
X000727D01*
X000725Y000303D02*
Y000307D01*
X000723Y000235D02*
X000727D01*
X000725Y000233D02*
Y000237D01*
X000723Y000175D02*
X000727D01*
X000725Y000173D02*
Y000177D01*
X000723Y000185D02*
X000727D01*
X000725Y000183D02*
Y000187D01*
X000723Y000195D02*
X000727D01*
X000725Y000193D02*
Y000197D01*
X000723Y000205D02*
X000727D01*
X000725Y000203D02*
Y000207D01*
X000723Y000215D02*
X000727D01*
X000725Y000213D02*
Y000217D01*
X000723Y000225D02*
X000727D01*
X000725Y000223D02*
Y000227D01*
X000813Y000225D02*
X000817D01*
X000815Y000223D02*
Y000227D01*
X000813Y000215D02*
X000817D01*
X000815Y000213D02*
Y000217D01*
X000813Y000205D02*
X000817D01*
X000815Y000203D02*
Y000207D01*
X000813Y000195D02*
X000817D01*
X000815Y000193D02*
Y000197D01*
X000813Y000185D02*
X000817D01*
X000815Y000183D02*
Y000187D01*
X000813Y000175D02*
X000817D01*
X000815Y000173D02*
Y000177D01*
X000813Y000235D02*
X000817D01*
X000815Y000233D02*
Y000237D01*
X000813Y000305D02*
X000817D01*
X000815Y000303D02*
Y000307D01*
X000813Y000295D02*
X000817D01*
X000815Y000293D02*
Y000297D01*
X000813Y000285D02*
X000817D01*
X000815Y000283D02*
Y000287D01*
X000813Y000275D02*
X000817D01*
X000815Y000273D02*
Y000277D01*
X000813Y000265D02*
X000817D01*
X000815Y000263D02*
Y000267D01*
X000813Y000255D02*
X000817D01*
X000815Y000253D02*
Y000257D01*
X000813Y000245D02*
X000817D01*
X000815Y000243D02*
Y000247D01*
X000813Y000315D02*
X000817D01*
X000815Y000313D02*
Y000317D01*
X0006785Y0002695D02*
X0006825D01*
X0006805Y0002675D02*
Y0002715D01*
X0006785Y0002595D02*
X0006825D01*
X0006805Y0002575D02*
Y0002615D01*
X0006665Y0002695D02*
X0006705D01*
X0006685Y0002675D02*
Y0002715D01*
X0006665Y0002595D02*
X0006705D01*
X0006685Y0002575D02*
Y0002615D01*
X0006525Y0002035D02*
X0006565D01*
X0006545Y0002015D02*
Y0002055D01*
X0006525Y0002135D02*
X0006565D01*
X0006545Y0002115D02*
Y0002155D01*
X0006405Y0002035D02*
X0006445D01*
X0006425Y0002015D02*
Y0002055D01*
X0006405Y0002135D02*
X0006445D01*
X0006425Y0002115D02*
Y0002155D01*
X0008945Y000315D02*
X0008985D01*
X0008965Y000313D02*
Y000317D01*
X0008945Y000325D02*
X0008985D01*
X0008965Y000323D02*
Y000327D01*
X0006915Y000205D02*
X0006955D01*
X0006935Y000203D02*
Y000207D01*
X0007015Y000205D02*
X0007055D01*
X0007035Y000203D02*
Y000207D01*
X0006915Y0002275D02*
X0006955D01*
X0006935Y0002255D02*
Y0002295D01*
X0007015Y0002275D02*
X0007055D01*
X0007035Y0002255D02*
Y0002295D01*
X0006915Y000248D02*
X0006955D01*
X0006935Y000246D02*
Y00025D01*
X0007015Y000248D02*
X0007055D01*
X0007035Y000246D02*
Y00025D01*
X0006915Y0002695D02*
X0006955D01*
X0006935Y0002675D02*
Y0002715D01*
X0007015Y0002695D02*
X0007055D01*
X0007035Y0002675D02*
Y0002715D01*
X0006635Y0001475D02*
X0006675D01*
X0006655Y0001455D02*
Y0001495D01*
X0006635Y0001575D02*
X0006675D01*
X0006655Y0001555D02*
Y0001595D01*
X0006635Y0001675D02*
X0006675D01*
X0006655Y0001655D02*
Y0001695D01*
X000637Y0001475D02*
X000641D01*
X000639Y0001455D02*
Y0001495D01*
X000637Y0001575D02*
X000641D01*
X000639Y0001555D02*
Y0001595D01*
X000637Y0001675D02*
X000641D01*
X000639Y0001655D02*
Y0001695D01*
X0006105Y0001475D02*
X0006145D01*
X0006125Y0001455D02*
Y0001495D01*
X0006105Y0001575D02*
X0006145D01*
X0006125Y0001555D02*
Y0001595D01*
X0006105Y0001675D02*
X0006145D01*
X0006125Y0001655D02*
Y0001695D01*
X0008295Y000329D02*
X0008335D01*
X0008315Y000327D02*
Y000331D01*
X0008695Y000329D02*
X0008735D01*
X0008715Y000327D02*
Y000331D01*
X000788Y000143D02*
X000792D01*
X00079Y000141D02*
Y000145D01*
X000828Y000143D02*
X000832D01*
X00083Y000141D02*
Y000145D01*
X000665Y000204D02*
X000669D01*
X000667Y000202D02*
Y000206D01*
X000665Y000244D02*
X000669D01*
X000667Y000242D02*
Y000246D01*
X000676Y000204D02*
X00068D01*
X000678Y000202D02*
Y000206D01*
X000676Y000244D02*
X00068D01*
X000678Y000242D02*
Y000246D01*
X0006525Y000228D02*
X0006565D01*
X0006545Y000226D02*
Y00023D01*
X0006525Y000268D02*
X0006565D01*
X0006545Y000266D02*
Y00027D01*
X000642Y000228D02*
X000646D01*
X000644Y000226D02*
Y00023D01*
X000642Y000268D02*
X000646D01*
X000644Y000266D02*
Y00027D01*
X000825Y000132D02*
X000829D01*
X000827Y00013D02*
Y000134D01*
X000785Y000132D02*
X000789D01*
X000787Y00013D02*
Y000134D01*
X0007525Y0001425D02*
X0007565D01*
X0007545Y0001405D02*
Y0001445D01*
X0007125Y0001425D02*
X0007165D01*
X0007145Y0001405D02*
Y0001445D01*
X0007025Y0001385D02*
X0007065D01*
X0007045Y0001365D02*
Y0001405D01*
X0007025Y0001785D02*
X0007065D01*
X0007045Y0001765D02*
Y0001805D01*
X0006765Y0001385D02*
X0006805D01*
X0006785Y0001365D02*
Y0001405D01*
X0006765Y0001785D02*
X0006805D01*
X0006785Y0001765D02*
Y0001805D01*
X0006505Y0001385D02*
X0006545D01*
X0006525Y0001365D02*
Y0001405D01*
X0006505Y0001785D02*
X0006545D01*
X0006525Y0001765D02*
Y0001805D01*
X0006235Y000139D02*
X0006275D01*
X0006255Y000137D02*
Y000141D01*
X0006235Y000179D02*
X0006275D01*
X0006255Y000177D02*
Y000181D01*
X000702Y000328D02*
X000706D01*
X000704Y000326D02*
Y00033D01*
X000702Y000308D02*
X000706D01*
X000704Y000306D02*
Y00031D01*
X000702Y000288D02*
X000706D01*
X000704Y000286D02*
Y00029D01*
X000691Y000147D02*
X000695D01*
X000693Y000145D02*
Y000149D01*
X000691Y000157D02*
X000695D01*
X000693Y000155D02*
Y000159D01*
X000691Y000167D02*
X000695D01*
X000693Y000165D02*
Y000169D01*
X0008455Y0002495D02*
X0008495D01*
X0008475Y0002475D02*
Y0002515D01*
X0008455Y0002395D02*
X0008495D01*
X0008475Y0002375D02*
Y0002415D01*
X0008455Y0002595D02*
X0008495D01*
X0008475Y0002575D02*
Y0002615D01*
X000847Y000285D02*
X000851D01*
X000849Y000283D02*
Y000287D01*
X000847Y000275D02*
X000851D01*
X000849Y000273D02*
Y000277D01*
X000847Y000295D02*
X000851D01*
X000849Y000293D02*
Y000297D01*
X000907Y000248D02*
X000911D01*
X000909Y000246D02*
Y00025D01*
X000867Y000248D02*
X000871D01*
X000869Y000246D02*
Y00025D01*
X0008425Y0003115D02*
X0008465D01*
X0008445Y0003095D02*
Y0003135D01*
X0008325Y0003115D02*
X0008365D01*
X0008345Y0003095D02*
Y0003135D01*
X0007735Y0001355D02*
X0007775D01*
X0007755Y0001335D02*
Y0001375D01*
X0007635Y0001355D02*
X0007675D01*
X0007655Y0001335D02*
Y0001375D01*
X0006995Y0001285D02*
X0007035D01*
X0007015Y0001265D02*
Y0001305D01*
X0006895Y0001285D02*
X0006935D01*
X0006915Y0001265D02*
Y0001305D01*
X000673Y000128D02*
X000677D01*
X000675Y000126D02*
Y00013D01*
X000663Y000128D02*
X000667D01*
X000665Y000126D02*
Y00013D01*
X000647Y000128D02*
X000651D01*
X000649Y000126D02*
Y00013D01*
X000637Y000128D02*
X000641D01*
X000639Y000126D02*
Y00013D01*
X000621Y000128D02*
X000625D01*
X000623Y000126D02*
Y00013D01*
X000611Y000128D02*
X000615D01*
X000613Y000126D02*
Y00013D01*
X0008305Y0002745D02*
X0008345D01*
X0008325Y0002725D02*
Y0002765D01*
X0008305Y0002645D02*
X0008345D01*
X0008325Y0002625D02*
Y0002665D01*
X0008305Y000296D02*
X0008345D01*
X0008325Y000294D02*
Y000298D01*
X0008305Y000286D02*
X0008345D01*
X0008325Y000284D02*
Y000288D01*
X0006125Y000188D02*
X0006154D01*
X000614Y0001865D02*
Y0001894D01*
M02*