%FSTAX43Y43*%
%MOIN*%
%SFA1B1*%

%IPPOS*%
%ADD10C,0.019685*%
%ADD11C,0.100000*%
%ADD12R,0.098425X0.118110*%
%ADD13R,0.094488X0.118110*%
%ADD14R,0.118110X0.118110*%
%ADD15C,0.080000*%
%ADD16O,0.080000X0.070000*%
%ADD17C,0.039370*%
%ADD18C,0.120000*%
%ADD19O,0.090000X0.070000*%
%ADD20O,0.070000X0.080000*%
%ADD21C,0.050000*%
%LNpcb-vitor-project-1*%
%LPD*%
G36*
X0006733Y0001817D02*
X000672Y0001785D01*
X0006739Y0001739*
X0006785Y000172*
X0006817Y0001733*
X000683Y0001714*
X0006726Y0001609*
X0006703Y0001614*
X00067Y000162*
X0006694Y0001623*
Y0001635*
X0006707Y0001665*
X0006602*
X0006615Y0001635*
Y0001623*
X0006609Y000162*
X0006602Y0001603*
X0006594Y00016*
X0006587Y0001597*
X0006562Y0001572*
X0006553Y000155*
Y0001459*
X0006533Y0001446*
X0006525Y0001449*
X0006479Y000143*
X000646Y0001385*
X000646Y0001383*
X0006441Y000137*
X0006413Y0001398*
X0006417Y0001421*
X0006435Y0001429*
X0006454Y0001475*
X0006435Y000152*
Y0001529*
X0006451Y0001568*
X0006584Y0001701*
X0006604Y0001688*
X0006602Y0001684*
X0006645*
Y0001727*
X0006641Y0001725*
X0006628Y0001745*
X0006714Y000183*
X0006733Y0001817*
G37*
G36*
X0009173Y0002357D02*
Y0002298D01*
X0009163*
X0009111*
X0009106Y0002321*
X0009107Y0002322*
X0009151Y0002366*
X0009173Y0002357*
G37*
G36*
X0008644Y0002604D02*
X0008627Y0002597D01*
X0008577Y0002547*
X0008568Y0002525*
Y0002458*
X0008554Y0002444*
X0008545Y0002441*
X0008528Y0002457*
X0008544Y0002495*
X0008526Y0002536*
Y0002553*
X0008544Y0002595*
X0008537Y0002611*
X0008553Y0002628*
X000864*
X0008644Y0002604*
G37*
G36*
X0007408Y0003026D02*
Y0002373D01*
X000732Y0002286*
X0007301Y000229*
X0007289Y000231*
X0007302Y000234*
X0007197*
X000721Y000231*
Y0002298*
X0007204Y0002295*
X0007198Y0002281*
X000718*
X0007164Y0002275*
X0007157Y0002272*
X0007108Y0002223*
X0007085Y0002226*
X0007081Y0002231*
X0007099Y0002275*
X000708Y000232*
X0007035Y0002339*
X0006989Y000232*
X000698*
X0006966Y0002326*
Y0002428*
X000698Y0002434*
X0006989*
X0007035Y0002415*
X000708Y0002434*
X0007099Y000248*
X000708Y0002525*
X0007035Y0002544*
X0006989Y0002525*
X000698*
X0006941Y0002542*
Y0002565*
X0006957Y0002572*
X0007021Y0002636*
X0007035Y000263*
X000708Y0002649*
X0007088Y0002667*
X0007111Y0002671*
X0007155Y0002627*
X0007162Y0002624*
X0007178Y0002618*
X0007198*
X0007204Y0002604*
Y0002595*
X0007185Y000255*
X0007204Y0002504*
Y0002495*
X0007185Y000245*
X0007204Y0002404*
X000721Y0002401*
Y0002389*
X0007197Y0002359*
X0007302*
X0007289Y0002389*
Y0002401*
X0007295Y0002404*
X0007314Y000245*
X0007295Y0002495*
Y0002504*
X0007314Y000255*
X0007295Y0002595*
Y0002604*
X0007314Y000265*
X0007295Y0002695*
Y0002704*
X0007314Y000275*
X0007295Y0002795*
Y0002804*
X0007314Y000285*
X0007295Y0002895*
Y0002904*
X0007314Y000295*
X0007295Y0002995*
X0007289Y0002998*
Y000301*
X0007302Y000304*
X000725*
Y0003059*
X0007302*
X0007289Y0003089*
X0007301Y0003109*
X000732Y0003113*
X0007408Y0003026*
G37*
G36*
X00069Y0001355D02*
X0006895Y0001332D01*
X0006879Y0001325*
X0006866Y0001294*
X0006915*
Y0001275*
X0006866*
X0006878Y0001246*
X0006865Y0001226*
X000681*
X0006797Y0001246*
X0006809Y0001275*
Y0001285*
X0006793Y0001323*
X000683Y0001339*
X0006847Y000138*
X0006871Y0001385*
X00069Y0001355*
G37*
G36*
X0006962Y0001846D02*
X0006855Y0001739D01*
X0006836Y0001752*
X0006849Y0001785*
X000683Y000183*
X0006796Y0001844*
X0006801Y0001868*
X0006953*
X0006962Y0001846*
G37*
G36*
X0006882Y0001648D02*
X000689Y000163D01*
Y0001618*
X0006884Y0001615*
X0006877Y0001598*
X0006863Y0001592*
X0006837Y0001567*
X0006828Y0001544*
Y0001452*
X0006808Y0001439*
X0006785Y0001449*
X0006739Y000143*
X000672Y0001385*
X0006699Y0001376*
X0006676Y0001398*
X0006681Y0001421*
X00067Y0001429*
X0006719Y0001475*
X00067Y000152*
Y0001529*
X0006706Y0001543*
X0006736*
X0006759Y0001552*
X0006859Y0001652*
X0006882Y0001648*
G37*
G36*
X0007683Y0002911D02*
Y0002035D01*
X0007692Y0002012*
X0007977Y0001727*
X0008Y0001718*
X0008098*
X0008104Y0001704*
X000815Y0001685*
X0008195Y0001704*
X0008214Y000175*
X0008195Y0001795*
Y0001804*
X0008214Y000185*
X0008195Y0001895*
Y0001904*
X0008214Y000195*
X0008205Y0001971*
X0008225Y0001984*
X0008253Y0001956*
Y0001668*
X0008156Y0001571*
X000801*
X0007987Y0001562*
X0007913Y0001488*
X00079Y0001494*
X0007854Y0001475*
X0007835Y000143*
X0007842Y0001411*
X0007838Y00014*
Y0001387*
X0007818Y0001374*
X000781Y0001377*
X00078Y00014*
X0007786Y0001406*
X0007777Y0001427*
X0007747Y0001457*
X0007725Y0001466*
X0007592*
X000759Y000147*
X0007545Y0001489*
X0007499Y000147*
X000748Y0001425*
X0007499Y0001379*
X0007545Y000136*
X0007584Y0001376*
X0007596Y0001364*
X0007655*
Y0001355*
X0007664*
Y0001302*
X0007694Y0001315*
X0007706*
X0007709Y0001309*
X0007755Y000129*
X0007793Y0001306*
X0007814Y0001297*
X0007824Y0001274*
X000787Y0001255*
X0007915Y0001274*
X0007934Y000132*
X0007919Y0001355*
X0007928Y0001377*
X0007945Y0001384*
X0007964Y000143*
X0007958Y0001443*
X0008023Y0001508*
X000817*
X0008192Y0001517*
X0008307Y0001632*
X0008316Y0001655*
Y000197*
X0008312Y0001981*
X0008307Y0001992*
X0008227Y0002072*
X0008205Y0002081*
X0008201*
X0008195Y0002095*
Y0002104*
X0008201Y0002118*
X000823*
X0008252Y0002127*
X0008327Y0002202*
X0008327Y0002203*
X0008351Y0002198*
Y0002141*
X0008613*
Y0002188*
X0008615*
X0008637Y0002197*
X0008712Y0002272*
X0008715Y0002279*
X0008721Y0002295*
Y0002428*
X0008735Y0002434*
X0008754Y000248*
X0008736Y0002523*
X0008749Y0002543*
X0008821*
X0008938Y0002426*
Y000229*
X000891*
Y0002229*
X000897*
Y000222*
X0008979*
Y0002149*
X0009026*
Y0002141*
X0009163*
X0009173Y0002131*
Y0001415*
X0009165*
X0009156*
X0009104*
Y0001345*
Y0001274*
X0009156*
X0009165*
X0009173Y0001266*
Y0001226*
X0007073*
X000706Y0001246*
X0007074Y000128*
Y000129*
X0007059Y0001326*
X000709Y0001339*
X0007099Y0001361*
X0007121Y000137*
X0007145Y000136*
X000719Y0001379*
X0007209Y0001425*
X000719Y000147*
X0007145Y0001489*
X0007099Y000147*
X0007083Y0001433*
X0007045Y0001449*
X0007002Y0001432*
X0006985Y0001448*
X0006994Y000147*
X0006975Y0001515*
Y0001524*
X0006994Y000157*
X0006975Y0001615*
X0006969Y0001618*
Y000163*
X0006982Y000166*
X000693*
Y0001679*
X0006982*
X0006969Y0001709*
X0006951Y0001717*
X0006947Y000174*
X0006968Y0001761*
X0006991Y0001757*
X0006999Y0001739*
X0007013Y0001733*
Y000169*
X0007022Y0001667*
X0007152Y0001537*
X0007175Y0001528*
X0007315*
X0007337Y0001537*
X0007462Y0001662*
X0007471Y0001685*
Y000214*
X0007467Y0002151*
X0007462Y0002162*
X0007387Y0002238*
Y0002261*
X0007462Y0002337*
X0007467Y0002348*
X0007471Y000236*
Y000304*
X0007467Y0003051*
X0007462Y0003062*
X0007352Y0003172*
X000733Y0003181*
X0007301*
X0007295Y0003195*
X000725Y0003214*
X0007211Y0003198*
X0007123Y0003286*
X0007104Y0003333*
X0007117Y0003353*
X0007241*
X0007683Y0002911*
G37*
G36*
X0007196Y0002177D02*
X0007185Y000215D01*
X0007204Y0002104*
Y0002095*
X0007198Y0002081*
X0007184Y0002075*
X0007177Y0002072*
X0007103Y0001998*
X0007083Y0002011*
X0007099Y000205*
X000708Y0002095*
X0007035Y0002114*
X0006989Y0002095*
X000698*
X0006966Y0002101*
Y0002148*
X000711*
X0007132Y0002157*
X0007161Y0002186*
X000718Y0002194*
X0007196Y0002177*
G37*
G36*
X0007408Y0002126D02*
Y0001698D01*
X0007301Y0001591*
X0007188*
X0007076Y0001703*
Y0001733*
X000709Y0001739*
X0007109Y0001785*
X000709Y000183*
X0007092Y0001831*
X0007177Y0001917*
X0007192Y0001914*
X0007203Y0001893*
X0007185Y000185*
X0007204Y0001804*
Y0001795*
X0007185Y000175*
X0007204Y0001704*
X000725Y0001685*
X0007295Y0001704*
X0007314Y000175*
X0007295Y0001795*
Y0001804*
X0007314Y000185*
X0007295Y0001895*
Y0001904*
X0007314Y000195*
X0007295Y0001995*
Y0002004*
X0007314Y000205*
X0007295Y0002095*
Y0002104*
X0007314Y000215*
X0007297Y000219*
X0007308Y0002211*
X000732Y0002213*
X0007408Y0002126*
G37*
G36*
X0008421Y0002458D02*
X0008423Y0002453D01*
X0008429Y000245*
Y000243*
X0008418Y0002404*
X0008475*
Y0002395*
X0008484*
Y0002344*
X0008485*
X000852Y0002359*
X0008522Y0002363*
X000855*
X0008572Y0002372*
X0008622Y0002422*
X0008623Y0002424*
X0008638Y000243*
X0008658Y0002417*
Y0002308*
X0008635Y0002285*
X0008613Y0002294*
Y0002298*
X0008351*
X0008336Y0002312*
Y0002401*
X0008397Y0002462*
X0008421Y0002458*
G37*
G36*
X0006372Y0001349D02*
X0006367Y0001326D01*
X0006354Y000132*
X0006341Y0001289*
X000639*
Y000127*
X0006341*
X0006351Y0001246*
X0006338Y0001226*
X000629*
X0006277Y0001246*
X0006289Y0001275*
Y0001285*
X0006271Y0001326*
Y0001332*
X00063Y0001344*
X0006314Y0001378*
X0006338Y0001383*
X0006372Y0001349*
G37*
G36*
X0008573Y0003271D02*
Y0002956D01*
X0008549Y0002951*
X0008535Y0002985*
X00085Y0003*
X0008499*
Y000295*
X000848*
Y0003*
X000848*
X0008444Y0002985*
X0008442Y0002981*
X000843*
X0008414Y0002975*
X0008407Y0002972*
X0008406Y0002971*
X0008382Y0002975*
X000837Y0003005*
X0008337Y0003019*
X0008332Y0003042*
X0008352Y0003062*
X000838Y0003074*
X00084*
X0008403Y0003068*
X0008445Y000305*
X0008486Y0003068*
X0008504Y000311*
Y000312*
X0008486Y0003161*
X0008471Y0003168*
X0008467Y0003177*
X0008372Y0003272*
X0008379Y000329*
X0008365Y0003323*
X0008378Y0003343*
X0008501*
X0008573Y0003271*
G37*
G36*
X0006945Y0003415D02*
X0006934Y000341D01*
X0006927Y0003407*
X0006882Y0003362*
X0006873Y000334*
Y0003215*
X0006882Y0003192*
X0006965Y0003109*
X0006953Y000308*
X0006979Y0003019*
X000704Y0002993*
X00071Y0003019*
X0007126Y000308*
X00071Y000314*
X000704Y0003166*
X000701Y0003154*
X0006936Y0003228*
Y000326*
X000696Y0003264*
X0006979Y0003219*
X000704Y0003193*
X00071Y0003218*
X0007192Y0003127*
X0007195Y0003126*
X0007204Y0003104*
X000721Y0003101*
Y0003089*
X0007203Y0003073*
X0007202Y0003072*
X0007073Y0002943*
X0007049Y0002953*
Y0002889*
X0007113*
X0007112Y0002892*
X0007165Y0002945*
X0007189Y0002941*
X0007204Y0002904*
Y0002895*
X0007185Y000285*
X0007204Y0002804*
Y0002795*
X0007185Y000275*
X0007196Y0002722*
X000718Y0002705*
X0007159Y0002714*
X0007086Y0002787*
X0007073Y0002792*
Y0002816*
X0007094Y0002825*
X0007113Y000287*
X0006966*
X0006985Y0002825*
X0006998Y0002819*
X0006993Y0002796*
X0006641*
X0006625Y0002789*
X0006618Y0002787*
X0006566Y0002735*
X0006545Y0002744*
X0006499Y0002725*
X0006485*
X000644Y0002744*
X0006394Y0002725*
X0006375Y000268*
X0006394Y0002634*
X000644Y0002615*
X0006485Y0002634*
X0006499*
X0006545Y0002615*
X000659Y0002634*
X0006602Y0002662*
X0006625Y0002667*
X0006637Y0002655*
X0006638Y0002653*
Y0002636*
X000662Y0002595*
X0006638Y0002553*
X000668Y0002535*
X000669*
X0006731Y0002553*
X0006733Y0002556*
X0006756*
X0006758Y0002553*
X00068Y0002535*
X000681*
X0006851Y0002553*
X0006855Y0002563*
X0006918*
X0006923Y0002539*
X0006889Y0002525*
X000687Y000248*
X0006889Y0002434*
X0006903Y0002428*
Y0002326*
X0006889Y000232*
X000687Y0002275*
X0006889Y0002229*
X0006903Y0002223*
Y000218*
Y0002101*
X0006889Y0002095*
X000687Y000205*
X0006889Y0002004*
X0006935Y0001985*
X000698Y0002004*
X0006989*
X0007035Y0001985*
X0007073Y0002001*
X0007086Y0001981*
X0007036Y0001931*
X0006738*
X0006722Y0001925*
X0006715Y0001922*
X0006601Y0001808*
X0006578Y0001812*
X000657Y000183*
X0006525Y0001849*
X0006479Y000183*
X000646Y0001785*
X0006479Y0001739*
X0006497Y0001731*
X0006501Y0001708*
X0006467Y0001674*
X0006444Y0001679*
X0006429Y0001714*
X0006399Y0001727*
Y0001675*
X000639*
Y0001665*
X0006337*
X000635Y0001635*
Y0001623*
X0006344Y000162*
X0006336Y0001601*
X0006327Y0001597*
X0006297Y0001567*
X0006288Y0001545*
Y0001462*
X0006268Y0001449*
X0006255Y0001454*
X0006209Y0001435*
X0006191Y0001391*
X0006171Y0001387*
X0006154Y0001404*
X0006158Y0001424*
X000617Y0001429*
X0006189Y0001475*
X000617Y000152*
Y0001529*
X0006189Y0001575*
X000617Y000162*
X0006164Y0001623*
Y0001635*
X0006177Y0001665*
X0006125*
Y0001675*
X0006115*
Y0001727*
X0006107Y0001723*
X0006087Y0001736*
Y0001782*
X0006137Y0001832*
X000614Y0001831*
X0006174Y0001845*
X0006188Y000188*
X0006174Y0001914*
X000614Y0001928*
X0006105Y0001914*
X0006091Y000188*
X0006092Y0001877*
X0006058Y0001843*
X0006036Y0001852*
Y0003438*
X000694*
X0006945Y0003415*
G37*
G36*
X0009173Y000334D02*
Y0003017D01*
X0009151Y0003008*
X000902Y000314*
X0008974*
Y0003094*
X0009128Y0002941*
Y0002623*
X0009106Y0002613*
X0008992Y0002727*
X000897Y0002736*
X0008932*
X0008923Y0002758*
X000887Y000278*
X0008816Y0002758*
X0008807Y0002736*
X000878*
X0008764Y000273*
X0008757Y0002727*
X0008721Y0002691*
X0008556*
X0008552Y0002697*
X0008564Y0002718*
X0008565*
X0008587Y0002727*
X0008737Y0002877*
X000874Y0002884*
X0008746Y00029*
Y0003238*
X000876Y0003244*
X0008779Y000329*
X0008765Y0003323*
X0008771Y0003332*
X0008795Y0003334*
X0008838Y0003291*
Y0003255*
Y0003017*
X0008816Y0003008*
X0008794Y0002955*
X0008816Y0002901*
X000887Y0002879*
X0008923Y0002901*
X0008945Y0002955*
X0008923Y0003008*
X0008901Y0003017*
Y0003106*
X0008925Y000311*
X0008925Y000311*
X0008955Y0003097*
Y000315*
X0008965*
Y0003159*
X0009017*
X0009004Y0003189*
Y0003201*
X000901Y0003204*
X0009029Y000325*
X000901Y0003295*
X0008965Y0003314*
X0008923Y0003297*
X0008901Y0003306*
X0008895Y000332*
X0008892Y0003327*
X0008822Y0003397*
X00088Y0003406*
X0008265*
X0008242Y0003397*
X0008127Y0003282*
X0008118Y000326*
Y0003201*
X0008104Y0003195*
X0008085Y000315*
X0008104Y0003104*
X000811Y0003101*
Y0003089*
X0008097Y0003059*
X000815*
Y000304*
X0008097*
X000811Y000301*
Y0002998*
X0008104Y0002995*
X0008085Y000295*
X0008104Y0002904*
Y0002895*
X0008085Y000285*
X0008104Y0002804*
Y0002795*
X0008085Y000275*
X0008104Y0002704*
X000811Y0002701*
Y0002689*
X0008097Y0002659*
X000815*
Y000264*
X0008097*
X000811Y000261*
Y0002598*
X0008104Y0002595*
X0008085Y000255*
X0008104Y0002504*
Y0002495*
X0008085Y000245*
X0008104Y0002404*
Y0002395*
X0008085Y000235*
X0008104Y0002304*
Y0002295*
X0008085Y000225*
X0008104Y0002204*
Y0002195*
X0008085Y000215*
X0008104Y0002104*
Y0002095*
X0008085Y000205*
X0008104Y0002004*
Y0001995*
X0008085Y000195*
X0008104Y0001904*
Y0001895*
X0008085Y000185*
X0008104Y0001804*
Y0001795*
X0008098Y0001781*
X0008013*
X0007746Y0002048*
Y0002925*
X000774Y000294*
X0007737Y0002947*
X0007277Y0003407*
X0007259Y0003415*
X0007264Y0003438*
X0009094*
X0009098Y0003415*
X0009074Y0003405*
X0009062Y0003375*
X0009074Y0003344*
X0009105Y0003332*
X0009135Y0003344*
X0009147Y0003375*
X0009135Y0003405*
X0009111Y0003415*
X0009115Y0003438*
X0009173*
Y000334*
G37*
G36*
X0006073Y0001382D02*
X000608Y000138D01*
X0006087Y0001376*
X0006114Y000135*
X0006109Y0001327*
X0006094Y000132*
X0006081Y0001289*
X000613*
Y000127*
X0006081*
X0006091Y0001246*
X0006078Y0001226*
X0006036*
Y0001388*
X0006058Y0001397*
X0006073Y0001382*
G37*
G36*
X0008251Y0003288D02*
X0008269Y0003244D01*
X0008315Y0003225*
X0008325Y0003229*
X0008368Y0003185*
X0008355Y0003166*
X0008354Y0003166*
Y0003115*
X0008345*
Y0003105*
X0008296*
X0008298Y0003099*
X0008281Y0003081*
X0008204*
X0008195Y0003104*
X0008214Y000315*
X0008195Y0003195*
X0008181Y0003201*
Y0003246*
X0008227Y0003292*
X0008251Y0003288*
G37*
G36*
X0008284Y0002898D02*
X0008272Y0002869D01*
X0008325*
Y000285*
X0008272*
X0008285Y000282*
X0008293Y0002816*
Y0002793*
X0008278Y0002786*
X0008276Y0002781*
X0008201*
X0008195Y0002795*
Y0002804*
X0008214Y000285*
X0008195Y0002895*
Y0002904*
X0008201Y0002918*
X0008271*
X0008284Y0002898*
G37*
G36*
X000848Y000269D02*
X0008494D01*
X0008503Y000267*
X0008486Y0002653*
X0008485Y0002654*
X0008465*
X0008423Y0002636*
X0008405Y0002595*
X0008423Y0002553*
Y0002536*
X0008419Y0002526*
X0008385*
X0008373Y0002522*
X0008362Y0002517*
X0008282Y0002437*
X0008273Y0002415*
Y0002238*
X000822Y0002186*
X0008208Y0002188*
X0008197Y0002209*
X0008214Y000225*
X0008195Y0002295*
Y0002304*
X0008214Y000235*
X0008195Y0002395*
Y0002404*
X0008214Y000245*
X0008195Y0002495*
Y0002504*
X0008214Y000255*
X0008195Y0002595*
X0008204Y0002618*
X000828*
X0008284Y0002609*
X0008315Y0002596*
Y0002645*
X0008334*
Y0002596*
X0008365Y0002609*
X0008377Y0002637*
X0008427Y0002687*
X000843Y0002693*
X0008451Y0002702*
X000848Y000269*
G37*
G36*
X0009058Y0002571D02*
Y0002531D01*
X0009044Y0002525*
X0009025Y000248*
X0009044Y0002434*
X0009084Y0002417*
X0009089Y0002394*
X0009071Y0002376*
X0009001*
Y000244*
X0008995Y0002455*
X0008992Y0002462*
X0008857Y0002597*
X0008835Y0002606*
X0008744*
X000874Y000263*
X0008757Y0002637*
X0008788Y0002668*
X0008811Y0002663*
X0008816Y0002651*
X000887Y0002629*
X0008923Y0002651*
X0008932Y0002673*
X0008956*
X0009058Y0002571*
G37*
G36*
X0006634Y000135D02*
X0006629Y0001327D01*
X0006614Y000132*
X0006601Y0001289*
X000665*
Y000127*
X0006601*
X0006611Y0001246*
X0006598Y0001226*
X000655*
X0006537Y0001246*
X0006549Y0001275*
Y0001285*
X0006533Y0001323*
X000657Y0001339*
X0006584Y0001372*
X0006607Y0001377*
X0006634Y000135*
G37*
G36*
X0008669Y0003244D02*
X0008683Y0003238D01*
Y0002913*
X0008656Y0002886*
X0008636Y0002899*
X0008636Y00029*
Y0003261*
X000866Y0003266*
X0008669Y0003244*
G37*
%LNpcb-vitor-project-2*%
%LPC*%
G36*
X000638Y0001727D02*
X000635Y0001714D01*
X0006337Y0001684*
X000638*
Y0001727*
G37*
G36*
X0006134D02*
Y0001684D01*
X0006177*
X0006164Y0001714*
X0006134Y0001727*
G37*
G36*
X000826Y000131D02*
X0008217D01*
X000823Y000128*
X000826Y0001267*
Y000131*
G37*
G36*
X00083Y0001494D02*
X0008254Y0001475D01*
X0008235Y000143*
X0008253Y0001387*
X0008244Y0001365*
X000823Y0001359*
X0008217Y0001329*
X000827*
Y000132*
X0008279*
Y0001267*
X0008309Y000128*
X0008318Y00013*
X0008341Y0001296*
Y0001266*
X0008498*
Y0001423*
X0008368*
X0008364Y000143*
X0008345Y0001475*
X00083Y0001494*
G37*
G36*
X0009085Y0001335D02*
X0009024D01*
Y0001274*
X0009085*
Y0001335*
G37*
G36*
Y0001415D02*
X0009024D01*
Y0001354*
X0009085*
Y0001415*
G37*
G36*
X0007645Y0001345D02*
X0007602D01*
X0007615Y0001315*
X0007645Y0001302*
Y0001345*
G37*
G36*
X000678Y0002504D02*
X0006734Y0002485D01*
X0006715*
X000667Y0002504*
X0006624Y0002485*
X0006605Y000244*
X0006624Y0002394*
X0006638Y0002388*
Y0002236*
X0006604*
X0006591Y0002256*
X0006597Y000227*
X0006545*
Y000228*
X0006535*
Y0002332*
X0006505Y0002319*
X0006504Y0002317*
X000648*
X0006479Y0002319*
X0006449Y0002332*
Y000228*
X000644*
Y000227*
X0006384*
X0006307Y0002192*
X0006298Y000217*
Y0001965*
X0006307Y0001942*
X0006342Y0001907*
X0006365Y0001898*
X0006625*
X0006647Y0001907*
X0006692Y0001952*
X0006695Y0001959*
X0006701Y0001975*
Y0001997*
X0006709Y0002*
X0006712Y0002008*
X0006737*
X000674Y0002*
X000677Y0001987*
Y000204*
Y0002092*
X000674Y0002079*
X0006737Y0002071*
X0006726*
X0006711Y000209*
X0006713Y0002103*
X0006715*
X0006737Y0002112*
X0006802Y0002177*
X0006807Y0002188*
X0006811Y00022*
Y0002388*
X0006825Y0002394*
X0006844Y000244*
X0006825Y0002485*
X000678Y0002504*
G37*
G36*
X0008465Y0002385D02*
X0008418D01*
X0008429Y0002359*
X0008465Y0002344*
X0008465*
Y0002385*
G37*
G36*
X0006554Y0002332D02*
Y0002289D01*
X0006597*
X0006584Y0002319*
X0006554Y0002332*
G37*
G36*
X000611Y0003412D02*
X0006079Y00034D01*
X0006067Y000337*
X0006079Y0003339*
X000611Y0003327*
X000614Y0003339*
X0006152Y000337*
X000614Y00034*
X000611Y0003412*
G37*
G36*
X0008335Y0003166D02*
X0008309Y0003155D01*
X0008296Y0003124*
X0008335*
Y0003166*
G37*
G36*
X000703Y0002953D02*
X0006985Y0002934D01*
X0006966Y0002889*
X000703*
Y0002953*
G37*
G36*
X000643Y0002332D02*
X00064Y0002319D01*
X0006387Y0002289*
X000643*
Y0002332*
G37*
G36*
X000612Y0002057D02*
X0006089Y0002045D01*
X0006077Y0002015*
X0006089Y0001984*
X000612Y0001972*
X000615Y0001984*
X0006162Y0002015*
X000615Y0002045*
X000612Y0002057*
G37*
G36*
X0006255Y0001854D02*
X0006209Y0001835D01*
X000619Y000179*
X0006209Y0001744*
X0006255Y0001725*
X00063Y0001744*
X0006319Y000179*
X00063Y0001835*
X0006255Y0001854*
G37*
G36*
X0006664Y0001727D02*
Y0001684D01*
X0006707*
X0006694Y0001714*
X0006664Y0001727*
G37*
G36*
X0006832Y000203D02*
X0006789D01*
Y0001987*
X0006819Y0002*
X0006832Y000203*
G37*
G36*
X000896Y000221D02*
X000891D01*
Y0002149*
X000896*
Y000221*
G37*
G36*
X0006789Y0002092D02*
Y0002049D01*
X0006832*
X0006819Y0002079*
X0006789Y0002092*
G37*
%LNpcb-vitor-project-3*%
%LPD*%
G36*
X0006748Y0002388D02*
Y0002213D01*
X000671Y0002175*
X0006687Y000218*
X0006683Y0002188*
X0006692Y0002197*
X0006701Y000222*
Y0002388*
X0006715Y0002394*
X0006734*
X0006748Y0002388*
G37*
G54D10*
X0006055Y0001795D02*
X000614Y000188D01*
X0006055Y0001646D02*
Y0001795D01*
X000744Y000236D02*
Y000304D01*
X000733Y000315D02*
X000744Y000304D01*
X000725Y000315D02*
X000733D01*
X0008Y000175D02*
X000815D01*
X0007715Y0002035D02*
X0008Y000175D01*
X0007715Y0002035D02*
Y0002925D01*
X0008735Y000266D02*
X000878Y0002705D01*
X000854Y000266D02*
X0008735D01*
X0008475Y0002595D02*
X000854Y000266D01*
X000878Y0002705D02*
X000887D01*
X000897Y000222D02*
Y000244D01*
X000869Y0002295D02*
Y000248D01*
X0008615Y000222D02*
X000869Y0002295D01*
X000857Y000222D02*
X0008615D01*
X000865Y0002575D02*
X0008835D01*
X00086Y0002525D02*
X000865Y0002575D01*
X00086Y0002445D02*
Y0002525D01*
X0008835Y0002575D02*
X000897Y000244D01*
X000909Y000248D02*
Y0002585D01*
X000897Y0002705D02*
X000909Y0002585D01*
X000887Y0002705D02*
X000897D01*
X0008605Y00029D02*
Y0003285D01*
X0008555Y000285D02*
X0008605Y00029D01*
X0008475Y000285D02*
X0008555D01*
X0008715Y00029D02*
Y000329D01*
X0008565Y000275D02*
X0008715Y00029D01*
X000849Y000275D02*
X0008565D01*
X0008515Y0003375D02*
X0008605Y0003285D01*
X00088Y0003375D02*
X000887Y0003305D01*
X0008265Y0003375D02*
X00088D01*
X000815Y000326D02*
X0008265Y0003375D01*
X0008445Y0003115D02*
Y0003155D01*
Y00031D02*
Y0003115D01*
X0008475Y000275D02*
X000849D01*
X0007755Y000134D02*
Y0001405D01*
X0007725Y0001435D02*
X0007755Y0001405D01*
X0007545Y0001435D02*
X0007725D01*
X0007525Y0001415D02*
X0007545Y0001435D01*
X000787Y00014D02*
X000801Y000154D01*
X000787Y000132D02*
Y00014D01*
X0008285Y000143D02*
X000837Y0001345D01*
X000828Y000143D02*
X0008285D01*
X000801Y000154D02*
X000817D01*
X000916Y000242D02*
Y0002955D01*
X0009085Y0002345D02*
X000916Y000242D01*
X000897Y0002345D02*
X0009085D01*
X0008965Y000315D02*
X000916Y0002955D01*
X000869Y000248D02*
Y00025D01*
X000733Y000225D02*
X000744Y000236D01*
X000725Y000225D02*
X000733D01*
X000667Y000204D02*
X000678D01*
X000667Y0001975D02*
Y000204D01*
X0006625Y000193D02*
X000667Y0001975D01*
X0006365Y000193D02*
X0006625D01*
X000633Y0001965D02*
X0006365Y000193D01*
X000633Y0001965D02*
Y000217D01*
X000644Y000228*
X0006545*
X0006425Y0002135D02*
X0006495Y0002205D01*
X0006655*
X000667Y000222*
Y000244*
X000678Y00022D02*
Y000244D01*
X0006715Y0002135D02*
X000678Y00022D01*
X0006545Y0002135D02*
X0006715D01*
X0007175Y000156D02*
X0007315D01*
X0007045Y000169D02*
X0007175Y000156D01*
X0007045Y000169D02*
Y0001785D01*
X000744Y0001685D02*
Y000214D01*
X000733Y000225D02*
X000744Y000214D01*
X000718Y000225D02*
X000725D01*
X000711Y000218D02*
X000718Y000225D01*
X0006935Y000218D02*
X000711D01*
X0007315Y000156D02*
X000744Y0001685D01*
X0006935Y000218D02*
Y0002275D01*
Y000205D02*
Y000218D01*
Y0002275D02*
Y000248D01*
Y0002595D02*
X0007035Y0002695D01*
X0006805Y0002595D02*
X0006935D01*
X0006805Y0002695D02*
X0006935D01*
X0006685D02*
X0006805D01*
X0007178Y000265D02*
X000725D01*
X0006641Y0002764D02*
X0007063D01*
X0006556Y000268D02*
X0006641Y0002764D01*
X0007063D02*
X0007178Y000265D01*
X0006545Y000268D02*
X0006556D01*
X000705Y00019D02*
X00072Y000205D01*
X0006738Y00019D02*
X000705D01*
X0006413Y0001575D02*
X0006738Y00019D01*
X0007016Y0001854D02*
X0007069D01*
X0006736Y0001575D02*
X0007016Y0001854D01*
X00072Y000205D02*
X000725D01*
X0006655Y0001575D02*
X0006736D01*
X0007069Y0001854D02*
X0007165Y000195D01*
X000725*
X0007255Y0003385D02*
X0007715Y0002925D01*
X000695Y0003385D02*
X0007255D01*
X0006905Y000334D02*
X000695Y0003385D01*
X0006055Y0001646D02*
X0006125Y0001576D01*
Y0001575D02*
Y0001576D01*
X000639Y0001575D02*
X0006413D01*
X0006885Y000157D02*
X000693D01*
X000686Y0001544D02*
X0006885Y000157D01*
X000686Y0001441D02*
Y0001544D01*
X0007145Y0001425D02*
Y0001435D01*
X000686Y0001441D02*
X0007015Y0001286D01*
Y0001285D02*
Y0001286D01*
X000661Y0001575D02*
X0006655D01*
X0006585Y000155D02*
X000661Y0001575D01*
X0006585Y0001445D02*
Y000155D01*
Y0001445D02*
X000675Y000128D01*
X000635Y0001575D02*
X000639D01*
X000632Y0001545D02*
X000635Y0001575D01*
X000632Y0001446D02*
Y0001545D01*
Y0001446D02*
X0006486Y000128D01*
X000649*
X0006095Y0001575D02*
X0006125D01*
X0006055Y0001535D02*
X0006095Y0001575D01*
X0006055Y0001446D02*
Y0001535D01*
Y0001446D02*
X0006096Y0001405D01*
X0006104*
X000623Y000128*
X0007035Y0002875D02*
X000704Y000288D01*
X0006905Y0003215D02*
X000704Y000308D01*
X0006905Y0003215D02*
Y000334D01*
X000704Y000328D02*
X0007085D01*
X0007215Y000315*
X000725*
X000704Y000288D02*
X0007055D01*
X0007225Y000305*
X000725*
X000815Y000205D02*
X0008205D01*
X0008285Y000197*
Y0001655D02*
Y000197D01*
X000817Y000154D02*
X0008285Y0001655D01*
X000837Y0001345D02*
X0008445D01*
X0008315Y0003285D02*
Y000329D01*
Y0003285D02*
X0008445Y0003155D01*
X0008295Y000305D02*
X0008345Y00031D01*
X000815Y000305D02*
X0008295D01*
X000815Y000265D02*
X000832D01*
X0008325Y0002645*
X000815Y000275D02*
X000832D01*
X000815Y000295D02*
X0008315D01*
X0008325Y000296*
X000815Y000315D02*
Y000326D01*
X0008875Y000325D02*
X0008965D01*
X000887Y0003255D02*
X0008875Y000325D01*
X000887Y0002955D02*
Y0003255D01*
Y0003305*
X0008385Y0002495D02*
X0008475D01*
X000815Y000215D02*
X000823D01*
X0008305Y0002225*
Y0002415*
X0008385Y0002495*
X0008469Y0002395D02*
X0008475D01*
X000855*
X00086Y0002445*
X0008325Y000286D02*
X0008405Y000278D01*
X0008325Y0002645D02*
X000834D01*
X0008405Y000271*
Y000278*
X0008325Y000286D02*
X000834D01*
X000843Y000295*
X0008475*
G54D11*
X000887Y0002705D03*
Y0002955D03*
G54D12*
X0008545Y000222D03*
X000842D03*
X0009095D03*
G54D13*
X000897Y000222D03*
G54D14*
X000842Y0001345D03*
X0009095D03*
G54D15*
X000725Y000315D03*
Y000245D03*
Y000255D03*
Y000265D03*
Y000275D03*
Y000285D03*
Y000295D03*
Y000305D03*
Y000235D03*
Y000175D03*
Y000185D03*
Y000195D03*
Y000205D03*
Y000215D03*
Y000225D03*
X000815D03*
Y000215D03*
Y000205D03*
Y000195D03*
Y000185D03*
Y000175D03*
Y000235D03*
Y000305D03*
Y000295D03*
Y000285D03*
Y000275D03*
Y000265D03*
Y000255D03*
Y000245D03*
Y000315D03*
X0008965D03*
Y000325D03*
X0006935Y000205D03*
X0007035D03*
X0006935Y0002275D03*
X0007035D03*
X0006935Y000248D03*
X0007035D03*
X0006935Y0002695D03*
X0007035D03*
X0006655Y0001475D03*
Y0001575D03*
Y0001675D03*
X000639Y0001475D03*
Y0001575D03*
Y0001675D03*
X0006125Y0001475D03*
Y0001575D03*
Y0001675D03*
X0008315Y000329D03*
X0008715D03*
X00079Y000143D03*
X00083D03*
X000667Y000204D03*
Y000244D03*
X000678Y000204D03*
Y000244D03*
X0006545Y000228D03*
Y000268D03*
X000644Y000228D03*
Y000268D03*
X000827Y000132D03*
X000787D03*
X0007545Y0001425D03*
X0007145D03*
X0007045Y0001385D03*
Y0001785D03*
X0006785Y0001385D03*
Y0001785D03*
X0006525Y0001385D03*
Y0001785D03*
X0006255Y000139D03*
Y000179D03*
X000693Y000147D03*
Y000157D03*
Y000167D03*
X000909Y000248D03*
X000869D03*
X0007755Y0001355D03*
X0007655D03*
X0008325Y000296D03*
Y000286D03*
G54D16*
X0006805Y0002695D03*
Y0002595D03*
X0006685Y0002695D03*
Y0002595D03*
X0006545Y0002035D03*
Y0002135D03*
X0006425Y0002035D03*
Y0002135D03*
X0008325Y0002745D03*
Y0002645D03*
G54D17*
X0009105Y0003375D03*
X000612Y0002015D03*
X000611Y000337D03*
G54D18*
X000704Y000328D03*
Y000308D03*
Y000288D03*
G54D19*
X0008475Y0002495D03*
Y0002395D03*
Y0002595D03*
X000849Y000285D03*
Y000275D03*
Y000295D03*
G54D20*
X0008445Y0003115D03*
X0008345D03*
X0007015Y0001285D03*
X0006915D03*
X000675Y000128D03*
X000665D03*
X000649D03*
X000639D03*
X000623D03*
X000613D03*
G54D21*
X000614Y000188D03*
M02*