%FSTAX43Y43*%
%MOIN*%
%SFA1B1*%

%IPPOS*%
%ADD10C,0.019685*%
%ADD11C,0.100000*%
%ADD12R,0.098425X0.118110*%
%ADD13R,0.094488X0.118110*%
%ADD14R,0.118110X0.118110*%
%ADD15C,0.080000*%
%ADD16O,0.080000X0.070000*%
%ADD17C,0.039370*%
%ADD18C,0.120000*%
%ADD19O,0.090000X0.070000*%
%ADD20O,0.070000X0.080000*%
%ADD21C,0.050000*%
%LNpcb-vitor-project-1*%
%LPD*%
G36*
X0007218Y0001604D02*
Y0001553D01*
X0007151Y0001486*
X0007145Y0001489*
X0007099Y000147*
X0007083Y0001433*
X0007045Y0001449*
X000701Y0001435*
X0006988Y0001456*
X0006994Y000147*
X0006975Y0001515*
Y0001524*
X0006981Y0001538*
X000711*
X0007132Y0001547*
X0007192Y0001607*
X0007201Y0001611*
X0007218Y0001604*
G37*
G36*
X0006739Y0001739D02*
X0006773Y0001725D01*
X0006768Y0001701*
X0006699*
X0006694Y0001714*
X0006664Y0001727*
Y0001675*
X0006645*
Y0001727*
X0006615Y0001714*
X0006612Y0001706*
X0006553*
X0006548Y000173*
X000657Y0001739*
X0006578Y0001758*
X0006731*
X0006739Y0001739*
G37*
G36*
X0006553Y0001634D02*
Y0001459D01*
X0006533Y0001445*
X0006525Y0001449*
X0006479Y000143*
X0006448Y0001461*
X0006454Y0001475*
X0006435Y000152*
Y0001529*
X0006454Y0001575*
X0006435Y000162*
X0006444Y0001643*
X0006547*
X0006553Y0001634*
G37*
G36*
X0006288Y0001461D02*
X0006268Y0001448D01*
X0006255Y0001454*
X0006209Y0001435*
X0006183Y0001461*
X0006189Y0001475*
X000617Y000152*
Y0001529*
X0006189Y0001575*
X000617Y000162*
X0006179Y0001643*
X0006288*
Y0001461*
G37*
G36*
X0006479Y0001739D02*
X0006501Y000173D01*
X0006496Y0001706*
X0006432*
X0006429Y0001714*
X0006399Y0001727*
Y0001675*
X000638*
Y0001727*
X000635Y0001714*
X0006347Y0001706*
X0006271*
X0006266Y000173*
X00063Y0001744*
X0006306Y0001758*
X0006471*
X0006479Y0001739*
G37*
G36*
X0006988Y0001842D02*
X0006977Y0001821D01*
X0006852*
X0006841Y0001842*
X0006844Y0001848*
X0006985*
X0006988Y0001842*
G37*
G36*
X0007192Y0001914D02*
X0007203Y0001893D01*
X0007189Y0001859*
X0007147Y0001817*
X0007138Y0001795*
Y0001643*
X0007096Y0001601*
X0006981*
X0006975Y0001615*
X0006969Y0001618*
Y000163*
X0006982Y000166*
X000693*
Y000167*
X000692*
Y0001722*
X000689Y0001709*
X0006887Y0001701*
X0006801*
X0006796Y0001725*
X000683Y0001739*
X0006838Y0001758*
X0006991*
X0006999Y0001739*
X0007045Y000172*
X000709Y0001739*
X0007109Y0001785*
X000709Y000183*
X0007094Y0001848*
X0007095*
X0007117Y0001857*
X0007177Y0001917*
X0007192Y0001914*
G37*
G36*
X0006468Y0001842D02*
X0006457Y0001821D01*
X0006324*
X0006313Y0001842*
X0006316Y0001848*
X0006465*
X0006468Y0001842*
G37*
G36*
X0006728D02*
X0006717Y0001821D01*
X0006592*
X0006581Y0001842*
X0006584Y0001848*
X0006725*
X0006728Y0001842*
G37*
G36*
X0006618Y0001361D02*
Y0001322D01*
X0006614Y000132*
X0006601Y0001289*
X000665*
Y000127*
X0006601*
X0006611Y0001246*
X0006598Y0001226*
X000655*
X0006537Y0001246*
X0006549Y0001275*
Y0001285*
X0006533Y0001323*
X000657Y0001339*
X0006584Y0001373*
X0006599Y0001376*
X0006618Y0001361*
G37*
G36*
X0006883Y0001369D02*
Y0001327D01*
X0006879Y0001325*
X0006866Y0001294*
X0006915*
Y0001275*
X0006866*
X0006878Y0001246*
X0006865Y0001226*
X000681*
X0006797Y0001246*
X0006809Y0001275*
Y0001285*
X0006793Y0001323*
X000683Y0001339*
X0006847Y000138*
X0006864Y0001384*
X0006883Y0001369*
G37*
G36*
X0006358Y0001363D02*
Y0001322D01*
X0006354Y000132*
X0006341Y0001289*
X000639*
Y000127*
X0006341*
X0006351Y0001246*
X0006338Y0001226*
X000629*
X0006277Y0001246*
X0006289Y0001275*
Y0001285*
X0006271Y0001326*
Y0001332*
X00063Y0001344*
X0006314Y0001378*
X0006338Y0001383*
X0006358Y0001363*
G37*
G36*
X0009173Y000334D02*
D01*
Y0002495*
X0009155Y0002491*
X000915Y000249*
X0009135Y0002525*
X000909Y0002544*
X0009044Y0002525*
X0009025Y000248*
X0009044Y0002434*
X000909Y0002415*
X0009135Y0002434*
X000915Y0002469*
X0009155Y0002468*
X0009173Y0002464*
Y0002298*
X0009163*
X0009156*
X0009026*
Y000229*
X0008979*
Y000222*
Y0002149*
X0009026*
Y0002141*
X0009156*
X0009163*
X0009173Y0002131*
Y0001415*
X0009165*
X0009156*
X0009104*
Y0001345*
Y0001274*
X0009156*
X0009165*
X0009173Y0001266*
Y0001226*
X0007073*
X000706Y0001246*
X0007074Y000128*
Y000129*
X0007059Y0001326*
X000709Y0001339*
X0007099Y0001361*
X0007121Y000137*
X0007145Y000136*
X000719Y0001379*
X0007209Y0001425*
X00072Y0001445*
X0007272Y0001517*
X0007275Y0001524*
X0007281Y000154*
Y0001698*
X0007295Y0001704*
X0007314Y000175*
X0007295Y0001795*
Y0001804*
X0007314Y000185*
X0007295Y0001895*
Y0001904*
X0007314Y000195*
X0007295Y0001995*
Y0002004*
X0007314Y000205*
X0007295Y0002095*
Y0002104*
X0007314Y000215*
X0007295Y0002195*
Y0002204*
X0007301Y0002218*
X000739*
X0007412Y0002227*
X0007903Y0002718*
X0008098*
X0008104Y0002704*
X000811Y0002701*
Y0002689*
X0008097Y0002659*
X0008202*
X0008189Y0002689*
Y0002701*
X0008195Y0002704*
X0008214Y000275*
X0008195Y0002795*
Y0002804*
X0008214Y000285*
X0008195Y0002895*
Y0002904*
X0008214Y000295*
X0008195Y0002995*
X0008189Y0002998*
Y000301*
X0008202Y000304*
X0008097*
X000811Y000301*
Y0002998*
X0008104Y0002995*
X0008085Y000295*
X0008104Y0002904*
Y0002895*
X0008085Y000285*
X0008104Y0002804*
Y0002795*
X0008098Y0002781*
X000789*
X0007878Y0002777*
X0007867Y0002772*
X0007376Y0002281*
X0007301*
X0007295Y0002295*
X0007289Y0002298*
Y000231*
X0007302Y000234*
X0007197*
X000721Y000231*
Y0002298*
X0007204Y0002295*
X0007185Y000225*
X0007204Y0002204*
Y0002195*
X0007185Y000215*
X0007191Y0002135*
X0007142Y0002085*
X0007133Y0002063*
Y0001963*
X0007081Y0001911*
X0006175*
X0006174Y0001914*
X000614Y0001928*
X0006105Y0001914*
X0006091Y000188*
X0006105Y0001845*
X000614Y0001831*
X0006174Y0001845*
X0006202Y0001834*
X0006206Y0001828*
X000619Y000179*
X0006209Y0001744*
X0006243Y000173*
X0006238Y0001706*
X0006167*
X0006164Y0001714*
X0006134Y0001727*
Y0001675*
X0006115*
Y0001727*
X0006085Y0001714*
X0006081Y0001705*
X0006063Y0001697*
X0006058Y0001692*
X0006036Y0001701*
Y0003438*
X0009094*
X0009098Y0003415*
X0009074Y0003405*
X0009062Y0003375*
X0009074Y0003344*
X0009105Y0003332*
X0009135Y0003344*
X0009147Y0003375*
X0009135Y0003405*
X0009111Y0003415*
X0009115Y0003438*
X0009173*
Y000334*
G37*
G36*
X0006098Y0001358D02*
Y0001322D01*
X0006094Y000132*
X0006081Y0001289*
X000613*
Y000127*
X0006081*
X0006091Y0001246*
X0006078Y0001226*
X0006036*
Y0001388*
X0006058Y0001397*
X0006098Y0001358*
G37*
G36*
X0006828Y0001452D02*
X0006808Y0001439D01*
X0006785Y0001449*
X0006742Y0001432*
X0006713Y0001461*
X0006719Y0001475*
X00067Y000152*
Y0001529*
X0006719Y0001575*
X0006701Y0001618*
X0006714Y0001638*
X0006828*
Y0001452*
G37*
%LNpcb-vitor-project-2*%
%LPC*%
G36*
X000643Y000227D02*
X0006387D01*
X00064Y000224*
X000643Y0002227*
Y000227*
G37*
G36*
X0006832Y000203D02*
X0006789D01*
Y0001987*
X0006819Y0002*
X0006832Y000203*
G37*
G36*
X000896Y000229D02*
X000891D01*
Y0002229*
X000896*
Y000229*
G37*
G36*
X0006597Y000227D02*
X0006554D01*
Y0002227*
X0006584Y000224*
X0006597Y000227*
G37*
G36*
X000612Y0002057D02*
X0006089Y0002045D01*
X0006077Y0002015*
X0006089Y0001984*
X000612Y0001972*
X000615Y0001984*
X0006162Y0002015*
X000615Y0002045*
X000612Y0002057*
G37*
G36*
X0007645Y0001345D02*
X0007602D01*
X0007615Y0001315*
X0007645Y0001302*
Y0001345*
G37*
G36*
X0006939Y0001722D02*
Y0001679D01*
X0006982*
X0006969Y0001709*
X0006939Y0001722*
G37*
G36*
X0009085Y0001335D02*
X0009024D01*
Y0001274*
X0009085*
Y0001335*
G37*
G36*
X000896Y000221D02*
X000891D01*
Y0002206*
X0008792Y0002087*
X0008783Y0002065*
Y0001536*
X000775*
X0007738Y0001532*
X0007727Y0001527*
X0007632Y0001432*
X0007631Y0001429*
X0007607*
X000759Y000147*
X0007545Y0001489*
X0007499Y000147*
X000748Y0001425*
X0007499Y0001379*
X0007545Y000136*
X0007584Y0001376*
X0007596Y0001364*
X0007655*
Y0001355*
X0007664*
Y0001302*
X0007694Y0001315*
X0007706*
X0007709Y0001309*
X0007755Y000129*
X0007793Y0001306*
X0007814Y0001297*
X0007824Y0001274*
X000787Y0001255*
X0007915Y0001274*
X0007934Y000132*
X0007919Y0001355*
X0007928Y0001377*
X0007945Y0001384*
X0007964Y000143*
X0007954Y0001453*
X0007968Y0001473*
X0008108*
Y0001405*
X0008117Y0001382*
X0008202Y0001297*
X0008225Y0001288*
X0008227*
X000823Y000128*
X000826Y0001267*
Y000132*
X0008279*
Y0001267*
X0008309Y000128*
X0008318Y00013*
X0008341Y0001296*
Y0001266*
X0008498*
Y0001423*
X0008368*
X0008364Y000143*
X0008354Y0001453*
X0008368Y0001473*
X0008921*
X0009024Y000137*
Y0001354*
X0009085*
Y0001415*
X0009069*
X0008957Y0001527*
X0008935Y0001536*
X0008846*
Y0002051*
X0008944Y0002149*
X000896*
Y000221*
G37*
G36*
X000704Y0003166D02*
X0006979Y000314D01*
X0006953Y000308*
X0006979Y0003019*
X000704Y0002993*
X00071Y0003019*
X0007126Y000308*
X00071Y000314*
X000704Y0003166*
G37*
G36*
X0008315Y0003354D02*
X0008269Y0003335D01*
X000825Y000329*
X0008269Y0003244*
X0008315Y0003225*
X0008327Y000323*
X000834Y0003211*
X0008322Y0003192*
X0008313Y000317*
Y0003157*
X0008309Y0003155*
X0008296Y0003124*
X0008345*
Y0003115*
X0008354*
Y0003063*
X000838Y0003074*
X00084*
X0008403Y0003068*
X0008413Y0003064*
Y0003033*
X0008383Y0003003*
X000837Y0003005*
X0008325Y0003024*
X0008279Y0003005*
X000826Y000296*
X0008279Y0002914*
X0008285Y0002911*
Y0002899*
X0008272Y0002869*
X0008377*
X0008364Y0002899*
Y0002911*
X000837Y0002914*
X0008376Y0002928*
X0008385*
X0008407Y0002937*
X0008411Y0002941*
X0008434Y0002936*
X0008444Y0002914*
Y0002894*
X0008438Y0002891*
X000842Y000285*
X0008438Y0002808*
Y0002791*
X0008431Y0002776*
X0008375*
X0008371Y0002786*
X0008356Y0002793*
Y0002816*
X0008364Y000282*
X0008377Y000285*
X0008272*
X0008285Y000282*
X0008293Y0002816*
Y0002793*
X0008278Y0002786*
X000826Y0002745*
X0008278Y0002703*
X0008284Y00027*
Y000268*
X0008273Y0002654*
X0008376*
X0008365Y000268*
Y00027*
X0008371Y0002703*
X0008375Y0002713*
X0008436*
X0008438Y0002708*
X000848Y000269*
X00085*
X0008541Y0002708*
X0008559Y000275*
X0008541Y0002791*
Y0002808*
X0008559Y000285*
X0008541Y0002891*
X0008535Y0002894*
Y0002914*
X0008546Y000294*
X000849*
Y0002959*
X0008546*
X0008535Y0002985*
X0008553Y0003028*
X0008577Y0003052*
X0008582Y0003063*
X0008586Y0003075*
Y000317*
X000858Y0003185*
X0008577Y0003192*
X0008532Y0003237*
X000851Y0003246*
X000839*
X0008384Y0003244*
X0008367Y0003261*
X0008379Y000329*
X000836Y0003335*
X0008315Y0003354*
G37*
G36*
X000725Y0003214D02*
X0007204Y0003195D01*
X0007185Y000315*
X0007204Y0003104*
X000721Y0003101*
Y0003089*
X0007197Y0003059*
X0007302*
X0007289Y0003089*
Y0003101*
X0007295Y0003104*
X0007314Y000315*
X0007295Y0003195*
X000725Y0003214*
G37*
G36*
X000703Y0002953D02*
X0006985Y0002934D01*
X0006966Y0002889*
X000703*
Y0002953*
G37*
G36*
X0007049D02*
Y0002889D01*
X0007113*
X0007094Y0002934*
X0007049Y0002953*
G37*
G36*
X0007302Y000304D02*
X0007197D01*
X000721Y000301*
Y0002998*
X0007204Y0002995*
X0007185Y000295*
X0007204Y0002904*
Y0002895*
X0007185Y000285*
X0007204Y0002804*
Y0002795*
X0007198Y0002781*
X000717*
X0007154Y0002775*
X0007147Y0002772*
X0007105Y0002731*
X0007082Y0002735*
X000708Y000274*
X0007058Y0002749*
X0007057Y0002751*
X0007026Y0002782*
X0007039Y0002802*
X000704Y0002802*
X0007094Y0002825*
X0007113Y000287*
X0006966*
X0006985Y0002825*
X0006998Y0002819*
X0006993Y0002796*
X0006531*
X0006515Y0002789*
X0006508Y0002787*
X0006458Y0002736*
X000644Y0002744*
X0006394Y0002725*
X0006375Y000268*
X0006394Y0002634*
X000644Y0002615*
X0006485Y0002634*
X0006499*
X0006545Y0002615*
X0006558Y0002621*
X0006607Y0002572*
X000663Y0002563*
X0006634*
X0006638Y0002553*
X000668Y0002535*
X000669*
X0006731Y0002553*
X0006733Y0002556*
X0006756*
X0006758Y0002553*
X00068Y0002535*
X000681*
X0006851Y0002553*
X0006869Y0002595*
X0006851Y0002636*
Y0002653*
X0006857Y0002667*
X0006881*
X0006889Y0002649*
X0006903Y0002643*
Y0002531*
X0006889Y0002525*
X000687Y000248*
X0006889Y0002434*
X0006935Y0002415*
X000698Y0002434*
X0006989*
X0007029Y0002417*
X0007033Y00024*
X0007018Y0002381*
X0006883*
X0006838Y0002426*
X0006844Y000244*
X0006825Y0002485*
X000678Y0002504*
X0006734Y0002485*
X0006715*
X000667Y0002504*
X0006624Y0002485*
X0006605Y000244*
X0006624Y0002394*
X000666Y0002379*
X0006866Y0002173*
X0006856Y0002151*
X0006635*
X0006622Y0002146*
X00066Y0002155*
X0006591Y0002176*
X000655Y0002194*
X000654*
X0006498Y0002176*
X0006496Y0002173*
X0006473*
X0006471Y0002176*
X000643Y0002194*
X000642*
X0006378Y0002176*
X000636Y0002135*
X0006378Y0002093*
Y0002076*
X000636Y0002035*
X0006378Y0001993*
X000642Y0001975*
X000643*
X0006471Y0001993*
X0006473Y0001996*
X0006496*
X0006498Y0001993*
X000654Y0001975*
X000655*
X0006591Y0001993*
X00066Y0002014*
X0006624*
X000663Y0002*
X000666Y0001987*
Y000204*
X0006679*
Y0001987*
X0006709Y0002*
X0006713Y0002008*
X0006736*
X000674Y0002*
X000677Y0001987*
Y000204*
X000678*
Y0002049*
X0006832*
X0006824Y0002068*
X0006832Y0002081*
X0006856Y0002083*
X0006876Y0002063*
X000687Y000205*
X0006889Y0002004*
X0006935Y0001985*
X000698Y0002004*
X0006989*
X0007035Y0001985*
X000708Y0002004*
X0007099Y000205*
X000708Y0002095*
X0007079Y0002103*
X0007147Y0002172*
X000715Y0002179*
X0007156Y0002195*
Y0002366*
X0007189Y0002398*
X0007208Y0002385*
X0007197Y0002359*
X0007302*
X0007289Y0002389*
Y0002401*
X0007295Y0002404*
X0007314Y000245*
X0007295Y0002495*
Y0002504*
X0007314Y000255*
X0007295Y0002595*
Y0002604*
X0007314Y000265*
X0007295Y0002695*
Y0002704*
X0007314Y000275*
X0007295Y0002795*
Y0002804*
X0007314Y000285*
X0007295Y0002895*
Y0002904*
X0007314Y000295*
X0007295Y0002995*
X0007289Y0002998*
Y000301*
X0007302Y000304*
G37*
G36*
X000704Y0003366D02*
X0006979Y000334D01*
X0006953Y000328*
X0006979Y0003219*
X000704Y0003193*
X00071Y0003219*
X0007126Y000328*
X00071Y000334*
X000704Y0003366*
G37*
G36*
X0008715Y0003354D02*
X0008669Y0003335D01*
X000865Y000329*
X0008669Y0003244*
X0008715Y0003225*
X000876Y0003244*
X0008779Y000329*
X000876Y0003335*
X0008715Y0003354*
G37*
G36*
X000611Y0003412D02*
X0006079Y00034D01*
X0006067Y000337*
X0006079Y0003339*
X000611Y0003327*
X000614Y0003339*
X0006152Y000337*
X000614Y00034*
X000611Y0003412*
G37*
G36*
X000815Y0003214D02*
X0008104Y0003195D01*
X0008085Y000315*
X0008104Y0003104*
X000811Y0003101*
Y0003089*
X0008097Y0003059*
X0008202*
X0008189Y0003089*
Y0003101*
X0008195Y0003104*
X0008214Y000315*
X0008195Y0003195*
X000815Y0003214*
G37*
G36*
X0008335Y0003105D02*
X0008296D01*
X0008309Y0003074*
X0008335Y0003063*
Y0003105*
G37*
G36*
X0008955Y000314D02*
X0008912D01*
X0008925Y000311*
X0008955Y0003097*
Y000314*
G37*
G36*
X000887Y000303D02*
X0008816Y0003008D01*
X0008794Y0002955*
X0008816Y0002901*
X000887Y0002879*
X0008923Y0002901*
X0008945Y0002955*
X0008923Y0003008*
X000887Y000303*
G37*
G36*
X0006554Y0002332D02*
Y0002289D01*
X0006597*
X0006584Y0002319*
X0006554Y0002332*
G37*
G36*
X0008965Y0003314D02*
X0008919Y0003295D01*
X00089Y000325*
X0008919Y0003204*
X0008925Y0003201*
Y0003189*
X0008912Y0003159*
X0008965*
Y000315*
X0008974*
Y0003097*
X0009004Y000311*
X0009009Y0003122*
X0009033Y0003118*
Y0002728*
X0008775Y0002471*
X0008754Y000248*
X0008735Y0002525*
X000869Y0002544*
X0008644Y0002525*
X0008625Y000248*
X0008644Y0002434*
X000869Y0002415*
X0008698Y0002394*
X0008603Y0002298*
X0008351*
Y0002141*
X0008613*
Y0002218*
X0009087Y0002692*
X000909Y0002699*
X0009096Y0002715*
Y000322*
X0009087Y0003242*
X0009057Y0003272*
X0009035Y0003281*
X0009016*
X000901Y0003295*
X0008965Y0003314*
G37*
G36*
X0008531Y0002385D02*
X0008484D01*
Y0002344*
X0008485*
X000852Y0002359*
X0008531Y0002385*
G37*
G36*
X0006535Y0002332D02*
X0006505Y0002319D01*
X0006504Y0002317*
X000648*
X0006479Y0002319*
X0006449Y0002332*
Y000228*
Y0002227*
X0006479Y000224*
X000648Y0002242*
X0006504*
X0006505Y000224*
X0006535Y0002227*
Y000228*
Y0002332*
G37*
G36*
X0008202Y000264D02*
X0008097D01*
X000811Y000261*
Y0002598*
X0008104Y0002595*
X0008085Y000255*
X0008104Y0002504*
Y0002495*
X0008085Y000245*
X0008104Y0002404*
Y0002395*
X0008085Y000235*
X0008104Y0002304*
Y0002295*
X0008085Y000225*
X0008104Y0002204*
Y0002195*
X0008085Y000215*
X0008104Y0002104*
Y0002095*
X0008085Y000205*
X0008104Y0002004*
Y0001995*
X0008085Y000195*
X0008104Y0001904*
Y0001895*
X0008085Y000185*
X0008104Y0001804*
Y0001795*
X0008085Y000175*
X0008104Y0001704*
X000815Y0001685*
X0008195Y0001704*
X0008214Y000175*
X0008195Y0001795*
Y0001804*
X0008214Y000185*
X0008195Y0001895*
Y0001904*
X0008214Y000195*
X0008195Y0001995*
Y0002004*
X0008214Y000205*
X0008195Y0002095*
Y0002104*
X0008214Y000215*
X0008195Y0002195*
Y0002204*
X0008214Y000225*
X0008195Y0002295*
Y0002304*
X0008214Y000235*
X0008195Y0002395*
Y0002404*
X0008214Y000245*
X0008195Y0002495*
Y0002504*
X0008214Y000255*
X0008195Y0002595*
X0008189Y0002598*
Y000261*
X0008202Y000264*
G37*
G36*
X000887Y000278D02*
X0008816Y0002758D01*
X0008794Y0002705*
X0008816Y0002651*
X000887Y0002629*
X0008923Y0002651*
X0008945Y0002705*
X0008923Y0002758*
X000887Y000278*
G37*
G36*
X000643Y0002332D02*
X00064Y0002319D01*
X0006387Y0002289*
X000643*
Y0002332*
G37*
G36*
X0008485Y0002654D02*
X0008465D01*
X0008423Y0002636*
X0008405Y0002595*
X0008423Y0002553*
Y0002536*
X0008405Y0002495*
X0008423Y0002453*
X0008429Y000245*
Y0002443*
X0008425Y0002426*
X0008388*
X0008356Y0002458*
Y0002605*
X0008365Y0002609*
X0008376Y0002635*
X0008273*
X0008284Y0002609*
X0008293Y0002605*
Y0002445*
X0008302Y0002422*
X0008352Y0002372*
X0008375Y0002363*
X0008427*
X0008429Y0002359*
X0008465Y0002344*
X0008465*
Y0002395*
X0008475*
Y0002404*
X0008531*
X000852Y000243*
Y000245*
X0008526Y0002453*
X0008544Y0002495*
X0008526Y0002536*
Y0002553*
X0008544Y0002595*
X0008526Y0002636*
X0008485Y0002654*
G37*
%LNpcb-vitor-project-3*%
%LPD*%
G36*
X0006847Y0002327D02*
X0006854Y0002324D01*
X000687Y0002318*
X0006878Y0002304*
X0006869Y0002283*
X000685Y0002279*
X0006777Y0002352*
X0006779Y0002365*
X0006802Y0002372*
X0006847Y0002327*
G37*
G36*
X0007012Y0002127D02*
X0007003Y0002105D01*
Y0002101*
X0006989Y0002095*
X000698*
X0006935Y0002114*
X0006921Y0002108*
X0006903Y0002126*
X0006913Y0002148*
X0007003*
X0007012Y0002127*
G37*
G36*
X0007196Y0002577D02*
X0007185Y000255D01*
X0007186Y0002546*
X000712Y000248*
X0007097Y0002485*
X0007086Y0002511*
X0007161Y0002586*
X000718Y0002594*
X0007196Y0002577*
G37*
G36*
X0007128Y0002643D02*
X0007025Y000254D01*
X0006989Y0002525*
X000698*
X0006966Y0002531*
Y0002643*
X000698Y0002649*
X0006989*
X0007035Y000263*
X000708Y0002649*
X0007086Y0002663*
X0007115*
X0007115Y0002663*
X0007128Y0002643*
G37*
G36*
X0008245Y0001453D02*
X0008235Y000143D01*
X0008253Y0001387*
X0008246Y0001371*
X0008223Y0001366*
X0008171Y0001418*
Y0001473*
X0008231*
X0008245Y0001453*
G37*
G36*
X0007845D02*
X0007835Y000143D01*
X000785Y0001394*
X0007842Y0001376*
X0007828Y000137*
X000781Y0001377*
X00078Y00014*
X0007755Y0001419*
X0007733Y000141*
X000772Y000143*
X0007763Y0001473*
X0007831*
X0007845Y0001453*
G37*
G54D10*
X0007195Y000245D02*
X000725D01*
X0007125Y000238D02*
X0007195Y000245D01*
X0007125Y0002195D02*
Y000238D01*
X0008555Y0003075D02*
Y000317D01*
X000849Y000301D02*
X0008555Y0003075D01*
X000849Y000295D02*
Y000301D01*
X000851Y0003215D02*
X0008555Y000317D01*
X000839Y0003215D02*
X000851D01*
X0008345Y000317D02*
X000839Y0003215D01*
X0008345Y0003115D02*
Y000317D01*
X0008445Y000302D02*
Y0003115D01*
X0008385Y000296D02*
X0008445Y000302D01*
X0008325Y000296D02*
X0008385D01*
X0008485Y0002745D02*
X000849Y000275D01*
X0008325Y0002745D02*
X0008485D01*
X0008225Y000132D02*
X000827D01*
X000775Y0001505D02*
X0008935D01*
X0007655Y000141D02*
X000775Y0001505D01*
X0007655Y000134D02*
Y000141D01*
X000814Y0001405D02*
Y0001505D01*
Y0001405D02*
X0008225Y000132D01*
X0008965Y000325D02*
X0009035D01*
X0009065Y000322*
Y0002715D02*
Y000322D01*
X000857Y000222D02*
X0009065Y0002715D01*
X0008375Y0002395D02*
X0008475D01*
X0008325Y0002445D02*
X0008375Y0002395D01*
X0008325Y0002445D02*
Y0002645D01*
X0006635Y000212D02*
X0006865D01*
X000655Y0002035D02*
X0006635Y000212D01*
X0006865D02*
X0006935Y000205D01*
X000643Y0002035D02*
X000655D01*
X0007035Y0002105D02*
X0007125Y0002195D01*
X0006905Y000218D02*
X000711D01*
X000667Y0002415D02*
X0006905Y000218D01*
X000667Y0002415D02*
Y000244D01*
X000687Y000235D02*
X0007035D01*
X000678Y000244D02*
X000687Y000235D01*
X0006255Y000179D02*
X000704D01*
X000725Y000154D02*
Y000175D01*
X0007145Y0001435D02*
X000725Y000154D01*
X0006935Y000248D02*
Y0002695D01*
X0006545Y000268D02*
X000663Y0002595D01*
X0006685*
X0007035Y0002695D02*
Y0002729D01*
X0006999Y0002764D02*
X0007035Y0002729D01*
X0006531Y0002764D02*
X0006999D01*
X0006446Y000268D02*
X0006531Y0002764D01*
X000644Y000268D02*
X0006446D01*
X0007035Y000205D02*
Y0002105D01*
X0007235Y000255D02*
X000725D01*
X0007035Y000235D02*
X0007235Y000255D01*
X0007035Y0002275D02*
Y000235D01*
Y000248D02*
Y0002505D01*
X000718Y000265*
X000725*
X000717Y000275D02*
X000725D01*
X0007115Y0002695D02*
X000717Y000275D01*
X0007035Y0002695D02*
X0007115D01*
X000725Y000225D02*
X000739D01*
X000789Y000275*
X000815*
X0007165Y000195D02*
Y0002063D01*
X0007095Y000188D02*
X0007165Y000195D01*
X000614Y000188D02*
X0007095D01*
X0007165Y0002063D02*
X0007235Y0002133D01*
Y000215*
X000717Y000163D02*
Y0001795D01*
X000711Y000157D02*
X000717Y000163D01*
X000693Y000157D02*
X000711D01*
X000717Y0001795D02*
X0007225Y000185D01*
X000725*
X0006655Y000167D02*
X000689D01*
X000693*
X000686Y0001639D02*
X000689Y000167D01*
X000686Y0001441D02*
Y0001639D01*
Y0001441D02*
X0006915Y0001386D01*
Y0001285D02*
Y0001386D01*
X000665Y0001675D02*
X0006655Y000167D01*
X000639Y0001675D02*
X0006626D01*
X000665D02*
X0006655D01*
X0006626D02*
X000665D01*
X0006585Y0001634D02*
X0006626Y0001675D01*
X0006585Y0001446D02*
Y0001634D01*
Y0001446D02*
X000665Y0001381D01*
Y000128D02*
Y0001381D01*
X000613Y0001675D02*
X000635D01*
X000639*
X000632Y0001644D02*
X000635Y0001675D01*
X000632Y0001446D02*
Y0001644D01*
Y0001446D02*
X000639Y0001376D01*
Y000128D02*
Y0001376D01*
X0006055Y0001644D02*
X0006085Y0001675D01*
X0006055Y0001446D02*
Y0001644D01*
Y0001446D02*
X000613Y0001371D01*
Y000128D02*
Y0001371D01*
X000693Y000147D02*
X0007015Y0001385D01*
X0007045*
X0006655Y0001475D02*
X0006745Y0001385D01*
X0006785*
X000639Y0001475D02*
X000648Y0001385D01*
X0006525*
X0006125Y0001475D02*
X000621Y000139D01*
X0006255*
X0006125Y000167D02*
X000613Y0001675D01*
X0008935Y0001505D02*
X0009095Y0001345D01*
X0008815Y0001505D02*
Y0002065D01*
X000897Y000222*
G54D11*
X000887Y0002705D03*
Y0002955D03*
G54D12*
X0008545Y000222D03*
X000842D03*
X0009095D03*
G54D13*
X000897Y000222D03*
G54D14*
X000842Y0001345D03*
X0009095D03*
G54D15*
X000725Y000315D03*
Y000245D03*
Y000255D03*
Y000265D03*
Y000275D03*
Y000285D03*
Y000295D03*
Y000305D03*
Y000235D03*
Y000175D03*
Y000185D03*
Y000195D03*
Y000205D03*
Y000215D03*
Y000225D03*
X000815D03*
Y000215D03*
Y000205D03*
Y000195D03*
Y000185D03*
Y000175D03*
Y000235D03*
Y000305D03*
Y000295D03*
Y000285D03*
Y000275D03*
Y000265D03*
Y000255D03*
Y000245D03*
Y000315D03*
X0008965D03*
Y000325D03*
X0006935Y000205D03*
X0007035D03*
X0006935Y0002275D03*
X0007035D03*
X0006935Y000248D03*
X0007035D03*
X0006935Y0002695D03*
X0007035D03*
X0006655Y0001475D03*
Y0001575D03*
Y0001675D03*
X000639Y0001475D03*
Y0001575D03*
Y0001675D03*
X0006125Y0001475D03*
Y0001575D03*
Y0001675D03*
X0008315Y000329D03*
X0008715D03*
X00079Y000143D03*
X00083D03*
X000667Y000204D03*
Y000244D03*
X000678Y000204D03*
Y000244D03*
X0006545Y000228D03*
Y000268D03*
X000644Y000228D03*
Y000268D03*
X000827Y000132D03*
X000787D03*
X0007545Y0001425D03*
X0007145D03*
X0007045Y0001385D03*
Y0001785D03*
X0006785Y0001385D03*
Y0001785D03*
X0006525Y0001385D03*
Y0001785D03*
X0006255Y000139D03*
Y000179D03*
X000693Y000147D03*
Y000157D03*
Y000167D03*
X000909Y000248D03*
X000869D03*
X0007755Y0001355D03*
X0007655D03*
X0008325Y000296D03*
Y000286D03*
G54D16*
X0006805Y0002695D03*
Y0002595D03*
X0006685Y0002695D03*
Y0002595D03*
X0006545Y0002035D03*
Y0002135D03*
X0006425Y0002035D03*
Y0002135D03*
X0008325Y0002745D03*
Y0002645D03*
G54D17*
X0009105Y0003375D03*
X000612Y0002015D03*
X000611Y000337D03*
G54D18*
X000704Y000328D03*
Y000308D03*
Y000288D03*
G54D19*
X0008475Y0002495D03*
Y0002395D03*
Y0002595D03*
X000849Y000285D03*
Y000275D03*
Y000295D03*
G54D20*
X0008445Y0003115D03*
X0008345D03*
X0007015Y0001285D03*
X0006915D03*
X000675Y000128D03*
X000665D03*
X000649D03*
X000639D03*
X000623D03*
X000613D03*
G54D21*
X000614Y000188D03*
M02*