%FSTAX43Y43*%
%MOIN*%
%SFA1B1*%

%IPPOS*%
%ADD24C,0.111811*%
%ADD25R,0.110236X0.129921*%
%ADD26R,0.106299X0.129921*%
%ADD27R,0.129921X0.129921*%
%ADD28C,0.091811*%
%ADD29O,0.091811X0.081811*%
%ADD30C,0.118110*%
%ADD31C,0.131811*%
%ADD32O,0.101811X0.081811*%
%ADD33O,0.081811X0.091811*%
%ADD34C,0.061811*%
%LNpcb-vitor-project-1*%
%LPD*%
G54D24*
X000887Y0002705D03*
Y0002955D03*
G54D25*
X0008545Y000222D03*
X000842D03*
X0009095D03*
G54D26*
X000897Y000222D03*
G54D27*
X000842Y0001345D03*
X0009095D03*
G54D28*
X000725Y000315D03*
Y000245D03*
Y000255D03*
Y000265D03*
Y000275D03*
Y000285D03*
Y000295D03*
Y000305D03*
Y000235D03*
Y000175D03*
Y000185D03*
Y000195D03*
Y000205D03*
Y000215D03*
Y000225D03*
X000815D03*
Y000215D03*
Y000205D03*
Y000195D03*
Y000185D03*
Y000175D03*
Y000235D03*
Y000305D03*
Y000295D03*
Y000285D03*
Y000275D03*
Y000265D03*
Y000255D03*
Y000245D03*
Y000315D03*
X0008965D03*
Y000325D03*
X0006935Y000205D03*
X0007035D03*
X0006935Y0002275D03*
X0007035D03*
X0006935Y000248D03*
X0007035D03*
X0006935Y0002695D03*
X0007035D03*
X0006655Y0001475D03*
Y0001575D03*
Y0001675D03*
X000639Y0001475D03*
Y0001575D03*
Y0001675D03*
X0006125Y0001475D03*
Y0001575D03*
Y0001675D03*
X0008315Y000329D03*
X0008715D03*
X00079Y000143D03*
X00083D03*
X000667Y000204D03*
Y000244D03*
X000678Y000204D03*
Y000244D03*
X0006545Y000228D03*
Y000268D03*
X000644Y000228D03*
Y000268D03*
X000827Y000132D03*
X000787D03*
X0007545Y0001425D03*
X0007145D03*
X0007045Y0001385D03*
Y0001785D03*
X0006785Y0001385D03*
Y0001785D03*
X0006525Y0001385D03*
Y0001785D03*
X0006255Y000139D03*
Y000179D03*
X000693Y000147D03*
Y000157D03*
Y000167D03*
X000909Y000248D03*
X000869D03*
X0007755Y0001355D03*
X0007655D03*
X0008325Y000296D03*
Y000286D03*
G54D29*
X0006805Y0002695D03*
Y0002595D03*
X0006685Y0002695D03*
Y0002595D03*
X0006545Y0002035D03*
Y0002135D03*
X0006425Y0002035D03*
Y0002135D03*
X0008325Y0002745D03*
Y0002645D03*
G54D30*
X0009105Y0003375D03*
X000612Y0002015D03*
X000611Y000337D03*
G54D31*
X000704Y000328D03*
Y000308D03*
Y000288D03*
G54D32*
X0008475Y0002495D03*
Y0002395D03*
Y0002595D03*
X000849Y000285D03*
Y000275D03*
Y000295D03*
G54D33*
X0008445Y0003115D03*
X0008345D03*
X0007015Y0001285D03*
X0006915D03*
X000675Y000128D03*
X000665D03*
X000649D03*
X000639D03*
X000623D03*
X000613D03*
G54D34*
X000614Y000188D03*
M02*