%FSTAX43Y43*%
%MOIN*%
%SFA1B1*%

%IPPOS*%
%ADD23C,0.005000*%
%ADD35C,0.006654*%
%LNpcb-vitor-project-1*%
%LPD*%
G54D23*
X000885Y0002685D02*
Y0002725D01*
X000889*
Y0002685*
X000885*
Y0002935D02*
Y0002975D01*
X000889*
Y0002935*
X000885*
X000723Y000313D02*
Y000317D01*
X000727*
Y000313*
X000723*
Y000243D02*
Y000247D01*
X000727*
Y000243*
X000723*
Y000253D02*
Y000257D01*
X000727*
Y000253*
X000723*
Y000263D02*
Y000267D01*
X000727*
Y000263*
X000723*
Y000273D02*
Y000277D01*
X000727*
Y000273*
X000723*
Y000283D02*
Y000287D01*
X000727*
Y000283*
X000723*
Y000293D02*
Y000297D01*
X000727*
Y000293*
X000723*
Y000303D02*
Y000307D01*
X000727*
Y000303*
X000723*
Y000233D02*
Y000237D01*
X000727*
Y000233*
X000723*
Y000173D02*
Y000177D01*
X000727*
Y000173*
X000723*
Y000183D02*
Y000187D01*
X000727*
Y000183*
X000723*
Y000193D02*
Y000197D01*
X000727*
Y000193*
X000723*
Y000203D02*
Y000207D01*
X000727*
Y000203*
X000723*
Y000213D02*
Y000217D01*
X000727*
Y000213*
X000723*
Y000223D02*
Y000227D01*
X000727*
Y000223*
X000723*
X000813D02*
Y000227D01*
X000817*
Y000223*
X000813*
Y000213D02*
Y000217D01*
X000817*
Y000213*
X000813*
Y000203D02*
Y000207D01*
X000817*
Y000203*
X000813*
Y000193D02*
Y000197D01*
X000817*
Y000193*
X000813*
Y000183D02*
Y000187D01*
X000817*
Y000183*
X000813*
Y000173D02*
Y000177D01*
X000817*
Y000173*
X000813*
Y000233D02*
Y000237D01*
X000817*
Y000233*
X000813*
Y000303D02*
Y000307D01*
X000817*
Y000303*
X000813*
Y000293D02*
Y000297D01*
X000817*
Y000293*
X000813*
Y000283D02*
Y000287D01*
X000817*
Y000283*
X000813*
Y000273D02*
Y000277D01*
X000817*
Y000273*
X000813*
Y000263D02*
Y000267D01*
X000817*
Y000263*
X000813*
Y000253D02*
Y000257D01*
X000817*
Y000253*
X000813*
Y000243D02*
Y000247D01*
X000817*
Y000243*
X000813*
Y000313D02*
Y000317D01*
X000817*
Y000313*
X000813*
X0006785Y0002675D02*
Y0002715D01*
X0006825*
Y0002675*
X0006785*
Y0002575D02*
Y0002615D01*
X0006825*
Y0002575*
X0006785*
X0006665Y0002675D02*
Y0002715D01*
X0006705*
Y0002675*
X0006665*
Y0002575D02*
Y0002615D01*
X0006705*
Y0002575*
X0006665*
X0006525Y0002015D02*
Y0002055D01*
X0006565*
Y0002015*
X0006525*
Y0002115D02*
Y0002155D01*
X0006565*
Y0002115*
X0006525*
X0006405Y0002015D02*
Y0002055D01*
X0006445*
Y0002015*
X0006405*
Y0002115D02*
Y0002155D01*
X0006445*
Y0002115*
X0006405*
X0008945Y000313D02*
Y000317D01*
X0008985*
Y000313*
X0008945*
Y000323D02*
Y000327D01*
X0008985*
Y000323*
X0008945*
X0006915Y000203D02*
Y000207D01*
X0006955*
Y000203*
X0006915*
X0007015D02*
Y000207D01*
X0007055*
Y000203*
X0007015*
X0006915Y0002255D02*
Y0002295D01*
X0006955*
Y0002255*
X0006915*
X0007015D02*
Y0002295D01*
X0007055*
Y0002255*
X0007015*
X0006915Y000246D02*
Y00025D01*
X0006955*
Y000246*
X0006915*
X0007015D02*
Y00025D01*
X0007055*
Y000246*
X0007015*
X0006915Y0002675D02*
Y0002715D01*
X0006955*
Y0002675*
X0006915*
X0007015D02*
Y0002715D01*
X0007055*
Y0002675*
X0007015*
X0006635Y0001455D02*
Y0001495D01*
X0006675*
Y0001455*
X0006635*
Y0001555D02*
Y0001595D01*
X0006675*
Y0001555*
X0006635*
Y0001655D02*
Y0001695D01*
X0006675*
Y0001655*
X0006635*
X000637Y0001455D02*
Y0001495D01*
X000641*
Y0001455*
X000637*
Y0001555D02*
Y0001595D01*
X000641*
Y0001555*
X000637*
Y0001655D02*
Y0001695D01*
X000641*
Y0001655*
X000637*
X0006105Y0001455D02*
Y0001495D01*
X0006145*
Y0001455*
X0006105*
Y0001555D02*
Y0001595D01*
X0006145*
Y0001555*
X0006105*
Y0001655D02*
Y0001695D01*
X0006145*
Y0001655*
X0006105*
X0008295Y000327D02*
Y000331D01*
X0008335*
Y000327*
X0008295*
X0008695D02*
Y000331D01*
X0008735*
Y000327*
X0008695*
X000788Y000141D02*
Y000145D01*
X000792*
Y000141*
X000788*
X000828D02*
Y000145D01*
X000832*
Y000141*
X000828*
X000665Y000202D02*
Y000206D01*
X000669*
Y000202*
X000665*
Y000242D02*
Y000246D01*
X000669*
Y000242*
X000665*
X000676Y000202D02*
Y000206D01*
X00068*
Y000202*
X000676*
Y000242D02*
Y000246D01*
X00068*
Y000242*
X000676*
X0006525Y000226D02*
Y00023D01*
X0006565*
Y000226*
X0006525*
Y000266D02*
Y00027D01*
X0006565*
Y000266*
X0006525*
X000642Y000226D02*
Y00023D01*
X000646*
Y000226*
X000642*
Y000266D02*
Y00027D01*
X000646*
Y000266*
X000642*
X000825Y00013D02*
Y000134D01*
X000829*
Y00013*
X000825*
X000785D02*
Y000134D01*
X000789*
Y00013*
X000785*
X0007525Y0001405D02*
Y0001445D01*
X0007565*
Y0001405*
X0007525*
X0007125D02*
Y0001445D01*
X0007165*
Y0001405*
X0007125*
X0007025Y0001365D02*
Y0001405D01*
X0007065*
Y0001365*
X0007025*
Y0001765D02*
Y0001805D01*
X0007065*
Y0001765*
X0007025*
X0006765Y0001365D02*
Y0001405D01*
X0006805*
Y0001365*
X0006765*
Y0001765D02*
Y0001805D01*
X0006805*
Y0001765*
X0006765*
X0006505Y0001365D02*
Y0001405D01*
X0006545*
Y0001365*
X0006505*
Y0001765D02*
Y0001805D01*
X0006545*
Y0001765*
X0006505*
X0006235Y000137D02*
Y000141D01*
X0006275*
Y000137*
X0006235*
Y000177D02*
Y000181D01*
X0006275*
Y000177*
X0006235*
X000702Y000326D02*
Y00033D01*
X000706*
Y000326*
X000702*
Y000306D02*
Y00031D01*
X000706*
Y000306*
X000702*
Y000286D02*
Y00029D01*
X000706*
Y000286*
X000702*
X000691Y000145D02*
Y000149D01*
X000695*
Y000145*
X000691*
Y000155D02*
Y000159D01*
X000695*
Y000155*
X000691*
Y000165D02*
Y000169D01*
X000695*
Y000165*
X000691*
X0008455Y0002475D02*
Y0002515D01*
X0008495*
Y0002475*
X0008455*
Y0002375D02*
Y0002415D01*
X0008495*
Y0002375*
X0008455*
Y0002575D02*
Y0002615D01*
X0008495*
Y0002575*
X0008455*
X000847Y000283D02*
Y000287D01*
X000851*
Y000283*
X000847*
Y000273D02*
Y000277D01*
X000851*
Y000273*
X000847*
Y000293D02*
Y000297D01*
X000851*
Y000293*
X000847*
X000907Y000246D02*
Y00025D01*
X000911*
Y000246*
X000907*
X000867D02*
Y00025D01*
X000871*
Y000246*
X000867*
X0008425Y0003095D02*
Y0003135D01*
X0008465*
Y0003095*
X0008425*
X0008325D02*
Y0003135D01*
X0008365*
Y0003095*
X0008325*
X0007735Y0001335D02*
Y0001375D01*
X0007775*
Y0001335*
X0007735*
X0007635D02*
Y0001375D01*
X0007675*
Y0001335*
X0007635*
X0006995Y0001265D02*
Y0001305D01*
X0007035*
Y0001265*
X0006995*
X0006895D02*
Y0001305D01*
X0006935*
Y0001265*
X0006895*
X000673Y000126D02*
Y00013D01*
X000677*
Y000126*
X000673*
X000663D02*
Y00013D01*
X000667*
Y000126*
X000663*
X000647D02*
Y00013D01*
X000651*
Y000126*
X000647*
X000637D02*
Y00013D01*
X000641*
Y000126*
X000637*
X000621D02*
Y00013D01*
X000625*
Y000126*
X000621*
X000611D02*
Y00013D01*
X000615*
Y000126*
X000611*
X0008305Y0002725D02*
Y0002765D01*
X0008345*
Y0002725*
X0008305*
Y0002625D02*
Y0002665D01*
X0008345*
Y0002625*
X0008305*
Y000294D02*
Y000298D01*
X0008345*
Y000294*
X0008305*
Y000284D02*
Y000288D01*
X0008345*
Y000284*
X0008305*
X000614Y000186D02*
X000612Y00019D01*
X000616*
X000614Y000186*
G54D35*
X0008565Y000222D02*
D01*
X0008564Y0002221*
X0008564Y0002222*
X0008564Y0002224*
X0008564Y0002225*
X0008563Y0002226*
X0008563Y0002228*
X0008562Y0002229*
X0008561Y000223*
X0008561Y0002231*
X000856Y0002232*
X0008559Y0002233*
X0008558Y0002234*
X0008557Y0002235*
X0008556Y0002236*
X0008555Y0002237*
X0008553Y0002237*
X0008552Y0002238*
X0008551Y0002239*
X0008549Y0002239*
X0008548Y0002239*
X0008547Y0002239*
X0008545Y0002239*
X0008544*
X0008542Y0002239*
X0008541Y0002239*
X000854Y0002239*
X0008538Y0002239*
X0008537Y0002238*
X0008536Y0002237*
X0008535Y0002237*
X0008533Y0002236*
X0008532Y0002235*
X0008531Y0002234*
X000853Y0002233*
X0008529Y0002232*
X0008528Y0002231*
X0008528Y000223*
X0008527Y0002229*
X0008526Y0002228*
X0008526Y0002226*
X0008525Y0002225*
X0008525Y0002224*
X0008525Y0002222*
X0008525Y0002221*
X0008525Y000222*
X0008525Y0002218*
X0008525Y0002217*
X0008525Y0002215*
X0008525Y0002214*
X0008526Y0002213*
X0008526Y0002211*
X0008527Y000221*
X0008528Y0002209*
X0008528Y0002208*
X0008529Y0002207*
X000853Y0002206*
X0008531Y0002205*
X0008532Y0002204*
X0008533Y0002203*
X0008535Y0002202*
X0008536Y0002202*
X0008537Y0002201*
X0008538Y00022*
X000854Y00022*
X0008541Y00022*
X0008542Y00022*
X0008544Y00022*
X0008545*
X0008547Y00022*
X0008548Y00022*
X0008549Y00022*
X0008551Y00022*
X0008552Y0002201*
X0008553Y0002202*
X0008555Y0002202*
X0008556Y0002203*
X0008557Y0002204*
X0008558Y0002205*
X0008559Y0002206*
X000856Y0002207*
X0008561Y0002208*
X0008561Y0002209*
X0008562Y000221*
X0008563Y0002211*
X0008563Y0002213*
X0008564Y0002214*
X0008564Y0002215*
X0008564Y0002217*
X0008564Y0002218*
X0008565Y000222*
X000899D02*
D01*
X0008989Y0002221*
X0008989Y0002222*
X0008989Y0002224*
X0008989Y0002225*
X0008988Y0002226*
X0008988Y0002228*
X0008987Y0002229*
X0008986Y000223*
X0008986Y0002231*
X0008985Y0002232*
X0008984Y0002233*
X0008983Y0002234*
X0008982Y0002235*
X0008981Y0002236*
X000898Y0002237*
X0008978Y0002237*
X0008977Y0002238*
X0008976Y0002239*
X0008974Y0002239*
X0008973Y0002239*
X0008972Y0002239*
X000897Y0002239*
X0008969*
X0008967Y0002239*
X0008966Y0002239*
X0008965Y0002239*
X0008963Y0002239*
X0008962Y0002238*
X0008961Y0002237*
X000896Y0002237*
X0008958Y0002236*
X0008957Y0002235*
X0008956Y0002234*
X0008955Y0002233*
X0008954Y0002232*
X0008953Y0002231*
X0008953Y000223*
X0008952Y0002229*
X0008951Y0002228*
X0008951Y0002226*
X000895Y0002225*
X000895Y0002224*
X000895Y0002222*
X000895Y0002221*
X000895Y000222*
X000895Y0002218*
X000895Y0002217*
X000895Y0002215*
X000895Y0002214*
X0008951Y0002213*
X0008951Y0002211*
X0008952Y000221*
X0008953Y0002209*
X0008953Y0002208*
X0008954Y0002207*
X0008955Y0002206*
X0008956Y0002205*
X0008957Y0002204*
X0008958Y0002203*
X000896Y0002202*
X0008961Y0002202*
X0008962Y0002201*
X0008963Y00022*
X0008965Y00022*
X0008966Y00022*
X0008967Y00022*
X0008969Y00022*
X000897*
X0008972Y00022*
X0008973Y00022*
X0008974Y00022*
X0008976Y00022*
X0008977Y0002201*
X0008978Y0002202*
X000898Y0002202*
X0008981Y0002203*
X0008982Y0002204*
X0008983Y0002205*
X0008984Y0002206*
X0008985Y0002207*
X0008986Y0002208*
X0008986Y0002209*
X0008987Y000221*
X0008988Y0002211*
X0008988Y0002213*
X0008989Y0002214*
X0008989Y0002215*
X0008989Y0002217*
X0008989Y0002218*
X000899Y000222*
X000844Y0001345D02*
D01*
X0008439Y0001346*
X0008439Y0001347*
X0008439Y0001349*
X0008439Y000135*
X0008438Y0001351*
X0008438Y0001353*
X0008437Y0001354*
X0008436Y0001355*
X0008436Y0001356*
X0008435Y0001357*
X0008434Y0001358*
X0008433Y0001359*
X0008432Y000136*
X0008431Y0001361*
X000843Y0001362*
X0008428Y0001362*
X0008427Y0001363*
X0008426Y0001364*
X0008424Y0001364*
X0008423Y0001364*
X0008422Y0001364*
X000842Y0001364*
X0008419*
X0008417Y0001364*
X0008416Y0001364*
X0008415Y0001364*
X0008413Y0001364*
X0008412Y0001363*
X0008411Y0001362*
X000841Y0001362*
X0008408Y0001361*
X0008407Y000136*
X0008406Y0001359*
X0008405Y0001358*
X0008404Y0001357*
X0008403Y0001356*
X0008403Y0001355*
X0008402Y0001354*
X0008401Y0001353*
X0008401Y0001351*
X00084Y000135*
X00084Y0001349*
X00084Y0001347*
X00084Y0001346*
X00084Y0001345*
X00084Y0001343*
X00084Y0001342*
X00084Y000134*
X00084Y0001339*
X0008401Y0001338*
X0008401Y0001336*
X0008402Y0001335*
X0008403Y0001334*
X0008403Y0001333*
X0008404Y0001332*
X0008405Y0001331*
X0008406Y000133*
X0008407Y0001329*
X0008408Y0001328*
X000841Y0001327*
X0008411Y0001327*
X0008412Y0001326*
X0008413Y0001325*
X0008415Y0001325*
X0008416Y0001325*
X0008417Y0001325*
X0008419Y0001325*
X000842*
X0008422Y0001325*
X0008423Y0001325*
X0008424Y0001325*
X0008426Y0001325*
X0008427Y0001326*
X0008428Y0001327*
X000843Y0001327*
X0008431Y0001328*
X0008432Y0001329*
X0008433Y000133*
X0008434Y0001331*
X0008435Y0001332*
X0008436Y0001333*
X0008436Y0001334*
X0008437Y0001335*
X0008438Y0001336*
X0008438Y0001338*
X0008439Y0001339*
X0008439Y000134*
X0008439Y0001342*
X0008439Y0001343*
X000844Y0001345*
Y000222D02*
D01*
X0008439Y0002221*
X0008439Y0002222*
X0008439Y0002224*
X0008439Y0002225*
X0008438Y0002226*
X0008438Y0002228*
X0008437Y0002229*
X0008436Y000223*
X0008436Y0002231*
X0008435Y0002232*
X0008434Y0002233*
X0008433Y0002234*
X0008432Y0002235*
X0008431Y0002236*
X000843Y0002237*
X0008428Y0002237*
X0008427Y0002238*
X0008426Y0002239*
X0008424Y0002239*
X0008423Y0002239*
X0008422Y0002239*
X000842Y0002239*
X0008419*
X0008417Y0002239*
X0008416Y0002239*
X0008415Y0002239*
X0008413Y0002239*
X0008412Y0002238*
X0008411Y0002237*
X000841Y0002237*
X0008408Y0002236*
X0008407Y0002235*
X0008406Y0002234*
X0008405Y0002233*
X0008404Y0002232*
X0008403Y0002231*
X0008403Y000223*
X0008402Y0002229*
X0008401Y0002228*
X0008401Y0002226*
X00084Y0002225*
X00084Y0002224*
X00084Y0002222*
X00084Y0002221*
X00084Y000222*
X00084Y0002218*
X00084Y0002217*
X00084Y0002215*
X00084Y0002214*
X0008401Y0002213*
X0008401Y0002211*
X0008402Y000221*
X0008403Y0002209*
X0008403Y0002208*
X0008404Y0002207*
X0008405Y0002206*
X0008406Y0002205*
X0008407Y0002204*
X0008408Y0002203*
X000841Y0002202*
X0008411Y0002202*
X0008412Y0002201*
X0008413Y00022*
X0008415Y00022*
X0008416Y00022*
X0008417Y00022*
X0008419Y00022*
X000842*
X0008422Y00022*
X0008423Y00022*
X0008424Y00022*
X0008426Y00022*
X0008427Y0002201*
X0008428Y0002202*
X000843Y0002202*
X0008431Y0002203*
X0008432Y0002204*
X0008433Y0002205*
X0008434Y0002206*
X0008435Y0002207*
X0008436Y0002208*
X0008436Y0002209*
X0008437Y000221*
X0008438Y0002211*
X0008438Y0002213*
X0008439Y0002214*
X0008439Y0002215*
X0008439Y0002217*
X0008439Y0002218*
X000844Y000222*
X0009115D02*
D01*
X0009114Y0002221*
X0009114Y0002222*
X0009114Y0002224*
X0009114Y0002225*
X0009113Y0002226*
X0009113Y0002228*
X0009112Y0002229*
X0009111Y000223*
X0009111Y0002231*
X000911Y0002232*
X0009109Y0002233*
X0009108Y0002234*
X0009107Y0002235*
X0009106Y0002236*
X0009105Y0002237*
X0009103Y0002237*
X0009102Y0002238*
X0009101Y0002239*
X0009099Y0002239*
X0009098Y0002239*
X0009097Y0002239*
X0009095Y0002239*
X0009094*
X0009092Y0002239*
X0009091Y0002239*
X000909Y0002239*
X0009088Y0002239*
X0009087Y0002238*
X0009086Y0002237*
X0009085Y0002237*
X0009083Y0002236*
X0009082Y0002235*
X0009081Y0002234*
X000908Y0002233*
X0009079Y0002232*
X0009078Y0002231*
X0009078Y000223*
X0009077Y0002229*
X0009076Y0002228*
X0009076Y0002226*
X0009075Y0002225*
X0009075Y0002224*
X0009075Y0002222*
X0009075Y0002221*
X0009075Y000222*
X0009075Y0002218*
X0009075Y0002217*
X0009075Y0002215*
X0009075Y0002214*
X0009076Y0002213*
X0009076Y0002211*
X0009077Y000221*
X0009078Y0002209*
X0009078Y0002208*
X0009079Y0002207*
X000908Y0002206*
X0009081Y0002205*
X0009082Y0002204*
X0009083Y0002203*
X0009085Y0002202*
X0009086Y0002202*
X0009087Y0002201*
X0009088Y00022*
X000909Y00022*
X0009091Y00022*
X0009092Y00022*
X0009094Y00022*
X0009095*
X0009097Y00022*
X0009098Y00022*
X0009099Y00022*
X0009101Y00022*
X0009102Y0002201*
X0009103Y0002202*
X0009105Y0002202*
X0009106Y0002203*
X0009107Y0002204*
X0009108Y0002205*
X0009109Y0002206*
X000911Y0002207*
X0009111Y0002208*
X0009111Y0002209*
X0009112Y000221*
X0009113Y0002211*
X0009113Y0002213*
X0009114Y0002214*
X0009114Y0002215*
X0009114Y0002217*
X0009114Y0002218*
X0009115Y000222*
Y0001345D02*
D01*
X0009114Y0001346*
X0009114Y0001347*
X0009114Y0001349*
X0009114Y000135*
X0009113Y0001351*
X0009113Y0001353*
X0009112Y0001354*
X0009111Y0001355*
X0009111Y0001356*
X000911Y0001357*
X0009109Y0001358*
X0009108Y0001359*
X0009107Y000136*
X0009106Y0001361*
X0009105Y0001362*
X0009103Y0001362*
X0009102Y0001363*
X0009101Y0001364*
X0009099Y0001364*
X0009098Y0001364*
X0009097Y0001364*
X0009095Y0001364*
X0009094*
X0009092Y0001364*
X0009091Y0001364*
X000909Y0001364*
X0009088Y0001364*
X0009087Y0001363*
X0009086Y0001362*
X0009085Y0001362*
X0009083Y0001361*
X0009082Y000136*
X0009081Y0001359*
X000908Y0001358*
X0009079Y0001357*
X0009078Y0001356*
X0009078Y0001355*
X0009077Y0001354*
X0009076Y0001353*
X0009076Y0001351*
X0009075Y000135*
X0009075Y0001349*
X0009075Y0001347*
X0009075Y0001346*
X0009075Y0001345*
X0009075Y0001343*
X0009075Y0001342*
X0009075Y000134*
X0009075Y0001339*
X0009076Y0001338*
X0009076Y0001336*
X0009077Y0001335*
X0009078Y0001334*
X0009078Y0001333*
X0009079Y0001332*
X000908Y0001331*
X0009081Y000133*
X0009082Y0001329*
X0009083Y0001328*
X0009085Y0001327*
X0009086Y0001327*
X0009087Y0001326*
X0009088Y0001325*
X000909Y0001325*
X0009091Y0001325*
X0009092Y0001325*
X0009094Y0001325*
X0009095*
X0009097Y0001325*
X0009098Y0001325*
X0009099Y0001325*
X0009101Y0001325*
X0009102Y0001326*
X0009103Y0001327*
X0009105Y0001327*
X0009106Y0001328*
X0009107Y0001329*
X0009108Y000133*
X0009109Y0001331*
X000911Y0001332*
X0009111Y0001333*
X0009111Y0001334*
X0009112Y0001335*
X0009113Y0001336*
X0009113Y0001338*
X0009114Y0001339*
X0009114Y000134*
X0009114Y0001342*
X0009114Y0001343*
X0009115Y0001345*
M02*